<svg xmlns="http://www.w3.org/2000/svg" width="132.922" height="107.287" viewBox="0 0 132.922 107.287">
  <g id="Group_113" data-name="Group 113" transform="translate(-124.22 -4277.106)">
    <path id="Path_299" data-name="Path 299" d="M98.111,79.31c-.086-.086-.174-.173-.264-.255a11.5,11.5,0,0,0,1.184-5.223A11.738,11.738,0,0,0,78.985,65.5h-.01a11.832,11.832,0,0,0,.01,16.66,12.457,12.457,0,0,0,2.133,1.728H99.97v-.078A6.138,6.138,0,0,0,98.111,79.31Z" transform="translate(151.234 4300.007)" fill="#fff"/>
    <path id="Path_300" data-name="Path 300" d="M101.911,83.886H70.292M80.92,65.5l.006-.006a11.745,11.745,0,0,1,20.046,8.335,11.545,11.545,0,0,1-1.184,5.229c.09.08.178.163.264.251a6.141,6.141,0,0,1,1.859,4.5v.078h1.644Z" transform="translate(149.293 4300.007)" fill="none" stroke="#1f415d" stroke-linecap="round" stroke-linejoin="round" stroke-width="1"/>
    <path id="Path_303" data-name="Path 303" d="M21.987,20.757V87.545h6.684V68.488a3.687,3.687,0,0,1,2.861-3.615,3.472,3.472,0,0,1,.826-.1,3.714,3.714,0,0,1,3.7,3.711V87.545h7.193V18.095H21.987v2.662Zm9.544,24.7a3.465,3.465,0,0,1,.826-.1,3.714,3.714,0,0,1,3.7,3.711v7.948H28.671V49.074a3.686,3.686,0,0,1,2.861-3.615Z" transform="translate(131.466 4283.784)" fill="#fff" stroke="#1f415d" stroke-miterlimit="10" stroke-width="1"/>
    <path id="Path_306" data-name="Path 306" d="M74.579,1.977a6.706,6.706,0,0,0-9.509,0,6.641,6.641,0,0,0-1.7,2.776h-.186a3.726,3.726,0,0,0-2.739,1.135,3.742,3.742,0,0,0-1.113,2.28H80.469A4.842,4.842,0,0,0,75.9,3.8,6.886,6.886,0,0,0,74.579,1.977Z" transform="translate(145.25 4277.106)" fill="#efefef"/>
    <path id="Path_307" data-name="Path 307" d="M65.58,103.664V89.533H36.633v14.131Zm0-87.432H36.633V87.546H65.58V16.232ZM36.633,8.063v8.17H65.58V8.063Z" transform="translate(136.871 4280.082)" fill="#e5e5e5" stroke="#1f415d" stroke-miterlimit="10" stroke-width="1"/>
    <path id="Path_308" data-name="Path 308" d="M65.036,67.571H57.775V81.7h7.261ZM85.278,81.7H91V67.571H85.278Z" transform="translate(144.674 4302.044)" fill="#fff" stroke="#1f415d" stroke-miterlimit="10" stroke-width="1"/>
    <path id="Path_309" data-name="Path 309" d="M65.579,68.107V66.12H36.632v1.987Zm33.224,0V66.12H93.081v1.987Z" transform="translate(136.871 4301.509)" fill="#dedede" stroke="#1f415d" stroke-miterlimit="10" stroke-width="1"/>
    <path id="Path_310" data-name="Path 310" d="M65.579,16.233H36.633V8.063h0v8.17H65.579V8.063H98.8v95.6H36.631V16.233Zm33.224,0H65.579V73.527ZM65.579,76.478v0Zm0,3.12v0Zm0,2.4v0ZM72.84,91.19V67.356l20.241-.043v22.22H98.8Zm0-1.657v0Zm-7.261,0v0Z" transform="translate(136.87 4280.082)" fill="#fff"/>
    <path id="Path_311" data-name="Path 311" d="M65.579,89.533v14.131m0-87.432H36.633V8.063h0v8.17H65.579V8.063H98.8v95.6H36.631V16.233Zm33.224,0H65.579V73.527ZM65.579,76.478v0Zm0,3.12v0Zm0,2.4v0ZM72.84,91.19V67.356l20.241-.043v22.22H98.8Zm0-1.657v0Z" transform="translate(136.87 4280.082)" fill="none" stroke="#1f415d" stroke-linecap="round" stroke-linejoin="round" stroke-width="1"/>
    <path id="Path_312" data-name="Path 312" d="M23.619,35.433A6.193,6.193,0,0,1,27.814,45.99,5.914,5.914,0,0,1,23.619,47.8H50.407a6.191,6.191,0,0,0,4.359-10.557,5.926,5.926,0,0,0-4.359-1.808Z" transform="translate(132.068 4290.183)" fill="#fff"/>
    <path id="Path_314" data-name="Path 314" d="M31.821,47.8H7.412A5.928,5.928,0,0,1,3.2,45.989a6.211,6.211,0,0,1,0-8.749,5.928,5.928,0,0,1,4.209-1.808h51.2a6.191,6.191,0,0,1,4.359,10.557A5.926,5.926,0,0,1,58.61,47.8Zm0,0a6.193,6.193,0,0,0,4.2-10.558,5.914,5.914,0,0,0-4.2-1.808" transform="translate(123.868 4290.183)" fill="none" stroke="#1f415d" stroke-linecap="round" stroke-linejoin="round" stroke-width="1"/>
    <path id="Path_316" data-name="Path 316" d="M23.108,78.194V92.325h7.261Zm27.5,14.131h0Zm5.721,0v0Zm0-45.428,1.1-8.17H23.108V46.9Z" transform="translate(131.879 4291.399)" fill="#fff"/>
    <path id="Path_317" data-name="Path 317" d="M30.911,68.091V66.1H1.965v1.987Zm0-1.987v0Zm33.224,1.987v0Z" transform="translate(124.076 4301.503)" fill="#dedede"/>
    <path id="Path_318" data-name="Path 318" d="M64.491,46.9l1.1-8.17H31.267v7.4Zm-33.224,0H64.491V92.326H2.321V46.9L1,38.73H31.267Zm0,0v0Zm0,18.244v0Zm0,3.118v0Zm0,2.4v0Zm0,5.547v0Zm0,1.987v0ZM2.321,76.208h0ZM31.267,46.9h0Z" transform="translate(123.72 4291.399)" fill="#fff"/>
    <path id="Path_319" data-name="Path 319" d="M31.267,46.9H2.321m62.17,0,1.1-8.17H31.267v7.4Zm-33.224,0H64.491V92.326H2.321V46.9L1,38.73H31.267Zm0,0v0Zm0,18.244v0Zm0,3.118v0Zm0,2.4v0Zm0,5.547v0Zm0,1.987v0ZM2.321,76.208h0Z" transform="translate(123.72 4291.399)" fill="none" stroke="#1f415d" stroke-linecap="round" stroke-linejoin="round" stroke-width="1"/>
    <path id="Path_320" data-name="Path 320" d="M43.322,57.033H29.25V85.569H43.322Z" transform="translate(134.146 4298.155)" fill="none" stroke="#1f415d" stroke-linecap="round" stroke-linejoin="round" stroke-width="1"/>
    <path id="Path_321" data-name="Path 321" d="M43.514,20.039H55.573V32.46H42.336V20.039Z" transform="translate(138.976 4284.502)" fill="#fff" stroke="#1f415d" stroke-linecap="round" stroke-linejoin="round" stroke-width="1"/>
    <path id="Path_323" data-name="Path 323" d="M79.127,19.833H67.051V32.487H79.127Z" transform="translate(148.098 4284.426)" fill="#fff" stroke="#1f415d" stroke-linecap="round" stroke-linejoin="round" stroke-width="1"/>
    <path id="Path_324" data-name="Path 324" d="M35.937,24.469H26.852v9.519h9.085Z" transform="translate(133.262 4286.137)" fill="#fff" stroke="#1f415d" stroke-linecap="round" stroke-linejoin="round" stroke-width="1"/>
    <path id="Path_325" data-name="Path 325" d="M95.019,69.115q-.123-.194-.264-.383a9.67,9.67,0,0,0-.9-1.041,8.659,8.659,0,0,0-12.258,0A8.449,8.449,0,0,0,79.219,72.1a.124.124,0,0,1-.019.059,2.888,2.888,0,0,1-4.911,1.728c-.084-.083-.162-.163-.235-.245a.207.207,0,0,1-.039-.147.177.177,0,0,1,.02-.069,8.859,8.859,0,0,0-12.1.412A8.612,8.612,0,0,0,59.34,80.13a8.942,8.942,0,0,0,.372,2.611H80.276a2.165,2.165,0,0,1,2.172-1.924,2.1,2.1,0,0,1,1.546.638l.1.1a2.2,2.2,0,0,1,2.73.294,2.2,2.2,0,0,1,.558.893h.391a.2.2,0,0,1,.049-.137.193.193,0,0,1,.137-.059,8.706,8.706,0,0,0,8.443-8.7,8.792,8.792,0,0,0-.391-2.661v-.02c-.059-.181-.123-.357-.2-.53a.212.212,0,0,1,0-.147.26.26,0,0,1,.108-.108,8.418,8.418,0,0,0-.626-1.217.165.165,0,0,1-.147.029A.185.185,0,0,1,95.019,69.115Z" transform="translate(145.251 4301.15)" fill="#fff"/>
    <path id="Path_326" data-name="Path 326" d="M91.337,69.27a.153.153,0,0,0,.078-.118.167.167,0,0,0-.029-.147c-.1-.151-.2-.3-.313-.452a10,10,0,0,0-.9-1.031,9.036,9.036,0,0,0-12.806,0A8.81,8.81,0,0,0,74.9,72.039a.18.18,0,0,0-.039.1,2.43,2.43,0,0,1-.734,1.581,2.5,2.5,0,0,1-3.522,0c-.072-.075-.141-.151-.206-.226a.17.17,0,0,0-.127-.069.2.2,0,0,0-.147.039.2.2,0,0,0-.049.069.172.172,0,0,0-.02.069.206.206,0,0,0,.039.147c.072.082.151.163.235.245a2.9,2.9,0,0,0,4.911-1.728.123.123,0,0,0,.02-.059A8.448,8.448,0,0,1,77.641,67.8a8.659,8.659,0,0,1,12.258,0,9.67,9.67,0,0,1,.9,1.041q.141.189.264.383a.185.185,0,0,0,.127.078A.165.165,0,0,0,91.337,69.27Z" transform="translate(149.207 4301.044)" fill="#545454"/>
    <path id="Path_327" data-name="Path 327" d="M87.769,81.1h-.391a2.2,2.2,0,0,0-.558-.893,2.2,2.2,0,0,0-2.73-.295l-.1-.1a2.1,2.1,0,0,0-1.546-.638A2.164,2.164,0,0,0,80.275,81.1H59.711a8.943,8.943,0,0,1-.372-2.611A8.867,8.867,0,0,1,68.2,69.6a8.506,8.506,0,0,1,5.831,2.189" transform="translate(145.251 4302.792)" fill="none" stroke="#1f415d" stroke-linecap="round" stroke-linejoin="round" stroke-width="1"/>
    <path id="Path_328" data-name="Path 328" d="M88.692,56.856q-.038-2.639-1.076-1.934a6.338,6.338,0,0,0-.235-1.384,4.439,4.439,0,0,0-2.769,1.08,2.944,2.944,0,0,0,1.115,1.041q-.739.607.851,1.787-.772.624.89,2.121-.778.686.744,1.983-.66.442.382,1.62.155.186.352.383-.93.436.567,2.052-.936.445.4,2.081-.927.327.323,2.15-.757.188.254,2.1-.9-.012.108,2.219a.585.585,0,0,0-.372.147q-.411.43.479,1.983-1.121-.459-.235,2.17-1.1-.292-.333,1.865c.025.067.051.135.078.206q-1.121-.2-.372,2.14-.875-.4-.558,1.3c.047.238.11.5.186.805q-1.23-.539-.4,2h4.275q.933-1.564,0-1.6a8.064,8.064,0,0,0,.626-1.325c.217-.618.1-.913-.362-.883q1.28-2.333.274-2.278c.135-.289.247-.546.333-.776q.575-1.534-.333-1.325,1.01-2.218,0-2.307a4.337,4.337,0,0,0,.509-1.757.413.413,0,0,0-.509-.452q.66-2.321-.381-2.15.666-2.353-.391-2.287.631-2.389-.45-2.219.49-2.244-.616-2.081.376-1.964-.636-2.209a6.3,6.3,0,0,0,.039-.736q.015-1.537-.9-1.325.247-2.792-.851-2.14Q89.726,56.3,88.692,56.856Zm-2.26-.874a.557.557,0,0,1,.861,0A.557.557,0,0,0,86.432,55.983Zm2.7,5.37a.46.46,0,0,1,.538,0A.46.46,0,0,0,89.132,61.353Zm1.047,5.154a.991.991,0,0,1,.88-.314A1,1,0,0,0,90.179,66.507Zm.89,2.523a.777.777,0,0,1,.636,0A.777.777,0,0,0,91.069,69.03Zm2.055,4.035a.849.849,0,0,0-.978,0A.856.856,0,0,1,93.124,73.064Zm-1.614,2.749a.9.9,0,0,1,1.027,0A.9.9,0,0,0,91.509,75.813ZM90.58,81.36a.4.4,0,0,1,.538,0A.4.4,0,0,0,90.58,81.36Zm2.005-3.191a.486.486,0,0,1,.587,0A.492.492,0,0,0,92.585,78.169Zm-1.516,5.694a.388.388,0,0,1,.489,0A.388.388,0,0,0,91.069,83.863Z" transform="translate(154.578 4296.865)" fill="#fff"/>
    <path id="Path_329" data-name="Path 329" d="M83.948,53.641l.9.9a.84.84,0,0,0,.01.805,4.44,4.44,0,0,1,2.769-1.08q-.294-.916-.89-.628L86.12,51.6Q83.915,51.252,83.948,53.641Z" transform="translate(154.333 4296.133)" fill="#dfdfdf"/>
    <path id="Path_330" data-name="Path 330" d="M91.315,84.595a.388.388,0,0,1,.489,0M84.858,55.355a.848.848,0,0,1-.01-.809l-.9-.9q-.035-2.388,2.172-2.042l.616,2.042q.6-.289.89.628a6.331,6.331,0,0,1,.235,1.384q1.039-.707,1.076,1.934,1.033-.563,1.008,2.062,1.1-.651.851,2.14.916-.212.9,1.331c0,.218-.016.461-.043.73q1.013.244.636,2.209,1.106-.162.616,2.081,1.08-.171.45,2.219,1.057-.065.391,2.287,1.042-.171.382,2.15a.417.417,0,0,1,.513.452,4.429,4.429,0,0,1-.513,1.757q1.01.088,0,2.307.907-.209.333,1.325c-.086.23-.2.487-.333.776q1.007-.053-.274,2.278c.46-.029.581.267.368.889A8.624,8.624,0,0,1,93.6,85.9q.933.035,0,1.6H89.321q-.828-2.542.407-2c-.08-.3-.143-.567-.186-.805q-.323-1.7.554-1.3-.748-2.344.372-2.14c-.027-.071-.051-.139-.074-.206q-.772-2.156.327-1.865-.886-2.63.235-2.17-.892-1.552-.479-1.977a.577.577,0,0,1,.372-.153q-1.012-2.229-.108-2.219-1.01-1.911-.254-2.1-1.25-1.823-.323-2.15-1.335-1.638-.4-2.081-1.5-1.617-.567-2.052-.2-.2-.352-.377-1.042-1.184-.381-1.626-1.523-1.3-.744-1.983-1.664-1.5-.89-2.121Q85.235,57,85.975,56.392A3.01,3.01,0,0,1,84.858,55.355Zm1.82,1.359a.557.557,0,0,1,.861,0Zm2.7,5.37a.46.46,0,0,1,.538,0Zm1.047,5.154a.991.991,0,0,1,.881-.314Zm.89,2.523a.777.777,0,0,1,.636,0ZM93.369,73.8a.849.849,0,0,0-.978,0Zm-1.614,2.749a.9.9,0,0,1,1.027,0Zm-.929,5.547a.4.4,0,0,1,.538,0ZM92.831,78.9a.486.486,0,0,1,.587,0Z" transform="translate(154.333 4296.134)" fill="none" stroke="#1f415d" stroke-linecap="round" stroke-linejoin="round" stroke-width="1"/>
    <path id="Path_331" data-name="Path 331" d="M81.414,47.172a7.449,7.449,0,0,0-3.679-.334,6.222,6.222,0,0,0-3.287,1.718,5.154,5.154,0,0,0-1.634,3.259,10.176,10.176,0,0,1,3.7-1.62,6.339,6.339,0,0,0-1.5,1.846,9.365,9.365,0,0,1,2.749-1.09,9.968,9.968,0,0,1,2.925-.216q-.7.648-1.536,1.374a8.69,8.69,0,0,1,10.077,3.515c.147-.041.339-.1.577-.186a8.814,8.814,0,0,1,3.062-8.482,2.618,2.618,0,0,0-1.585.619,7.928,7.928,0,0,1,1.624-2,8.323,8.323,0,0,1,2.162-1.384,3.317,3.317,0,0,0-1.878.147,6.138,6.138,0,0,1,3-1.669,5.005,5.005,0,0,0-5.547.147,6.335,6.335,0,0,0-2.27,3.672,18.483,18.483,0,0,0-.421,4.594,9.692,9.692,0,0,0-2.632-2.847,9.5,9.5,0,0,0-3.512-1.59,11.586,11.586,0,0,1,2.837,2.425A9.3,9.3,0,0,0,81.414,47.172Z" transform="translate(150.225 4292.569)" fill="#fff"/>
    <path id="Path_332" data-name="Path 332" d="M90.131,50.893a8.356,8.356,0,0,1,2.739-3.937,2.618,2.618,0,0,0-1.585.619,7.928,7.928,0,0,1,1.624-2,8.323,8.323,0,0,1,2.162-1.384,3.317,3.317,0,0,0-1.878.147,6.138,6.138,0,0,1,3-1.669,5.005,5.005,0,0,0-5.547.147,6.335,6.335,0,0,0-2.27,3.672,18.483,18.483,0,0,0-.421,4.594,9.692,9.692,0,0,0-2.632-2.847,9.5,9.5,0,0,0-3.512-1.59,11.586,11.586,0,0,1,2.837,2.425,9.289,9.289,0,0,0-3.238-1.895,7.449,7.449,0,0,0-3.679-.334,6.222,6.222,0,0,0-3.287,1.718,5.154,5.154,0,0,0-1.634,3.259,10.176,10.176,0,0,1,3.7-1.62,6.339,6.339,0,0,0-1.5,1.846,9.365,9.365,0,0,1,2.749-1.09,9.968,9.968,0,0,1,2.925-.216q-.7.648-1.536,1.374a8.69,8.69,0,0,1,10.077,3.515c.147-.041.341-.1.581-.181A8.357,8.357,0,0,1,90.131,50.893Z" transform="translate(150.225 4292.569)" fill="none" stroke="#1f415d" stroke-linecap="round" stroke-linejoin="round" stroke-width="1"/>
    <path id="Path_333" data-name="Path 333" d="M80.911,51.455a8.711,8.711,0,0,0-7.093,4.761,8.527,8.527,0,0,0-.851,4.339,8.441,8.441,0,0,0,1.389,4.2,10.135,10.135,0,0,1,1.223-4,4.536,4.536,0,0,0,.489,2.376,12.376,12.376,0,0,1,3.248-6.578,5.26,5.26,0,0,0-.117,2.582,7.538,7.538,0,0,1,3.013-4,7.4,7.4,0,0,1,4.765-1.4c.221.006.552.024.988.049a2.193,2.193,0,0,0,.939-.177,1.414,1.414,0,0,0,.333-.236c-.078-.143-.147-.267-.206-.373.059.106.127.23.206.373a1.327,1.327,0,0,0,.284-.442c-.029-.22-.055-.406-.078-.56a9.386,9.386,0,0,0-5.821-2.69A9.367,9.367,0,0,0,77.164,51.7,9.784,9.784,0,0,1,80.911,51.455Z" transform="translate(150.274 4295.435)" fill="#fff"/>
    <path id="Path_334" data-name="Path 334" d="M89.24,53.378a1.369,1.369,0,0,0,.288-.442c-.033-.22-.061-.406-.084-.56a9.385,9.385,0,0,0-5.821-2.69A9.366,9.366,0,0,0,77.166,51.7a9.743,9.743,0,0,1,3.747-.245,8.71,8.71,0,0,0-7.093,4.761,8.719,8.719,0,0,0,.538,8.541,10.133,10.133,0,0,1,1.223-4,4.538,4.538,0,0,0,.489,2.376,12.376,12.376,0,0,1,3.248-6.578A5.264,5.264,0,0,0,79.2,59.14a7.54,7.54,0,0,1,3.013-4,7.4,7.4,0,0,1,4.765-1.4c.221.006.552.024.988.049a2.193,2.193,0,0,0,.939-.177A1.351,1.351,0,0,0,89.24,53.378Zm0,0c-.078-.143-.147-.267-.206-.373" transform="translate(150.275 4295.435)" fill="none" stroke="#1f415d" stroke-linecap="round" stroke-linejoin="round" stroke-width="1"/>
    <path id="Path_335" data-name="Path 335" d="M84.8,54.134l.059-.177c.513.055.92.112,1.223.167a.062.062,0,0,0,.01-.02c.068-.092.249-.342.538-.746a4.955,4.955,0,0,1,1.614-1.247A8.98,8.98,0,0,1,91.06,51.2a12.735,12.735,0,0,1,4.627.432,7.756,7.756,0,0,0-2.152-1.551A12.589,12.589,0,0,1,99.777,51.6a4.852,4.852,0,0,0-1.663-2.16q2.143.766,3.884,1.571a7.337,7.337,0,0,0-2.162-3.495,7.193,7.193,0,0,0-3.659-1.856,7.332,7.332,0,0,0-4.1.422,7.43,7.43,0,0,0-3.287,2.474,7.547,7.547,0,0,1,2.544-2.916,8.293,8.293,0,0,0-4.852,3.407A8.4,8.4,0,0,0,84.8,54.134Z" transform="translate(154.647 4293.913)" fill="#fff"/>
    <path id="Path_336" data-name="Path 336" d="M84.856,54.134l.059-.177c.513.055.92.112,1.223.167a.067.067,0,0,0,.01-.016c.068-.1.25-.347.542-.752A4.91,4.91,0,0,1,88.3,52.11a8.815,8.815,0,0,1,2.818-.907,12.634,12.634,0,0,1,4.622.426,7.765,7.765,0,0,0-2.152-1.551A12.591,12.591,0,0,1,99.832,51.6a4.852,4.852,0,0,0-1.663-2.16q2.142.766,3.884,1.571a7.337,7.337,0,0,0-2.162-3.495,7.192,7.192,0,0,0-3.659-1.855,7.333,7.333,0,0,0-4.1.422,7.431,7.431,0,0,0-3.287,2.474,7.548,7.548,0,0,1,2.544-2.916,8.294,8.294,0,0,0-4.852,3.407A8.422,8.422,0,0,0,84.856,54.134Zm0,0c0,.2.012.4.029.609Zm1.781,1.718a.43.43,0,0,0-.156-.049m-.343-1.679-.059.078a2.511,2.511,0,0,1-.382.422,1.092,1.092,0,0,1-.519.216.752.752,0,0,1-.538-.118c.076-.192.147-.389.215-.589Z" transform="translate(154.589 4293.912)" fill="none" stroke="#1f415d" stroke-linecap="round" stroke-linejoin="round" stroke-width="1"/>
    <path id="Path_337" data-name="Path 337" d="M85.99,52.345a15.247,15.247,0,0,0-2.4.736,8.985,8.985,0,0,0-5.254,8.492l1.947-3.495a1.03,1.03,0,0,0,.069-.108c.035-.067.07-.132.108-.2-.037.065-.072.13-.108.2a1.03,1.03,0,0,1-.069.108,8.163,8.163,0,0,0-.89,4.113,7.984,7.984,0,0,0,4.911,7.186,7.89,7.89,0,0,0,4.5.589L85.334,66.56l3.2,1.325a13.12,13.12,0,0,1-2.387-2.6,12.836,12.836,0,0,1-1.624-3.142,6.728,6.728,0,0,0,2.544,1.669,11.222,11.222,0,0,1-1.692-3.092,7.064,7.064,0,0,1-.382-3.416,5.212,5.212,0,0,1,1.6-3.073,4.086,4.086,0,0,1,3.111-1.247,4.171,4.171,0,0,1,2.084.736,5.7,5.7,0,0,1,1.614,1.6,9.146,9.146,0,0,1,1.008,2.013,12.7,12.7,0,0,1,.372,1.227,4.329,4.329,0,0,0,.284-2.385A8.523,8.523,0,0,1,96.4,59.306a8.286,8.286,0,0,1,.039,3.4,6.615,6.615,0,0,0,1.243-3.092,4.342,4.342,0,0,1,.695,2.16,4.222,4.222,0,0,1-.45,2.209,6.467,6.467,0,0,0,2.69-3.073,6.545,6.545,0,0,0-1.536-7.628,6.542,6.542,0,0,0-3.669-1.787,6.494,6.494,0,0,1,3.444.363,7.783,7.783,0,0,0-3.091-1.463,7.9,7.9,0,0,0-3.414-.059,15.576,15.576,0,0,0-1.976.628q-1.664.648-1.957.746Q87.841,51.9,85.99,52.345Z" transform="translate(152.259 4295.624)" fill="#fff"/>
    <path id="Path_338" data-name="Path 338" d="M80.3,58.085l-1.951,3.489A8.985,8.985,0,0,1,83.6,53.082a15.25,15.25,0,0,1,2.4-.736q1.849-.451,2.426-.638.293-.1,1.957-.746a15.555,15.555,0,0,1,1.976-.628,7.893,7.893,0,0,1,3.414.059,7.783,7.783,0,0,1,3.092,1.463,6.493,6.493,0,0,0-3.444-.363,6.541,6.541,0,0,1,3.669,1.787,6.545,6.545,0,0,1,1.536,7.628,6.467,6.467,0,0,1-2.69,3.073,4.221,4.221,0,0,0,.45-2.209,4.342,4.342,0,0,0-.695-2.16A6.614,6.614,0,0,1,96.444,62.7a8.286,8.286,0,0,0-.039-3.4,8.524,8.524,0,0,0-1.331-3.132,4.347,4.347,0,0,1-.28,2.386q-.176-.677-.376-1.227a9.14,9.14,0,0,0-1.008-2.012,5.7,5.7,0,0,0-1.614-1.6,4.172,4.172,0,0,0-2.084-.736A4.086,4.086,0,0,0,86.6,54.23,5.212,5.212,0,0,0,85,57.3a7.062,7.062,0,0,0,.382,3.416,11.217,11.217,0,0,0,1.692,3.092,6.727,6.727,0,0,1-2.544-1.669,12.835,12.835,0,0,0,1.624,3.141,13.114,13.114,0,0,0,2.387,2.6l-3.2-1.325,3.473,3.407a8.315,8.315,0,0,1-8.022-3.456,7.984,7.984,0,0,1-1.389-4.32A8.093,8.093,0,0,1,80.3,58.085Zm0,0c.021-.037.043-.075.064-.114.035-.067.07-.131.108-.2" transform="translate(152.261 4295.624)" fill="none" stroke="#1f415d" stroke-linecap="round" stroke-linejoin="round" stroke-width="1"/>
  </g>
</svg>
