<svg width="384" height="499" viewBox="0 0 384 499" fill="none" xmlns="http://www.w3.org/2000/svg">
<g clip-path="url(#clip0_25_8505)">
<path d="M188.2 403.127L188.875 423.583C189.326 424.13 189.776 424.676 190.226 425.223C190.966 426.124 191.738 427.008 192.542 427.877C194.054 429.517 195.613 431.093 197.222 432.605C197.318 432.701 197.415 432.797 197.511 432.894C199.023 434.277 200.583 435.612 202.191 436.898C207.214 440.889 212.73 444.331 218.738 447.222L218.69 447.174C217.082 445.663 215.522 444.858 214.011 444.762V426.719C208.075 423.481 202.752 419.573 198.042 414.995C196.112 413.098 194.279 411.104 192.542 409.013C191.03 407.116 189.583 405.154 188.2 403.127Z" fill="white"/>
<path d="M219.51 429.564L218.98 430.095V447.318C225.645 450.506 232.914 453.015 240.786 454.844C243.847 455.757 247.047 456.481 250.387 457.015H250.435V436.994C249.684 436.92 248.928 436.84 248.167 436.753L237.843 435.546C231.187 434.041 225.028 431.999 219.366 429.419C219.413 429.468 219.461 429.516 219.51 429.564Z" fill="white"/>
<path d="M337.274 429.951C335.762 430.401 334.203 430.851 332.594 431.302C330.986 431.752 329.33 432.17 327.625 432.556C325.585 433.031 323.189 433.497 320.437 433.955C312.114 435.392 300.536 436.807 285.701 438.201V458.029C295.799 457.662 305.738 456.44 315.516 454.362C319.586 453.514 323.622 452.517 327.625 451.371C329.298 450.889 330.954 450.39 332.594 449.876C333.205 449.683 333.8 449.49 334.379 449.297C335.376 448.943 336.341 448.621 337.274 448.332C338.979 447.721 340.635 447.126 342.243 446.547C357.102 440.983 367.217 435.081 372.589 428.841C373.521 423.695 373.135 418.614 371.431 413.596C365.931 418.614 356.202 423.518 342.243 428.311C340.989 428.729 339.702 429.163 338.384 429.613C337.998 429.71 337.628 429.822 337.274 429.951ZM320.485 434.245V452.819C318.845 453.333 317.188 453.832 315.516 454.314V435.499C317.221 435.113 318.877 434.695 320.485 434.245Z" fill="white"/>
<path d="M186.27 15.1012C185.723 15.648 185.209 16.1948 184.726 16.7416C184.598 16.7416 184.469 16.7416 184.34 16.7416C182.121 16.7416 179.966 16.9345 177.876 17.3205C177.297 17.4491 176.718 17.5778 176.139 17.7064C175.11 17.9316 174.097 18.221 173.1 18.5748C172.36 18.8321 171.62 19.1216 170.88 19.4432C168.983 20.2473 167.182 21.2443 165.477 22.4343C165.316 22.5308 165.171 22.6273 165.043 22.7238C163.435 23.8816 161.907 25.1843 160.46 26.6316C159.623 27.4678 158.594 28.1593 157.372 28.7061C154.735 29.8961 152.258 30.7966 149.942 31.4077C144.314 32.855 139.297 35.7818 134.89 40.1881C128.297 46.7815 125 54.7418 125 64.0689C125 73.3961 128.297 81.3564 134.89 87.9497C140.036 93.0958 146.035 96.2316 152.885 97.3573C154.783 97.6789 156.745 97.8398 158.771 97.8398C162.695 97.8398 166.394 97.2608 169.867 96.103C173.309 97.2608 176.991 97.8398 180.915 97.8398C183.778 97.8398 186.527 97.5342 189.165 96.9231C193.668 95.8296 197.8 93.8033 201.564 90.8444C202.689 89.9438 203.767 88.9789 204.796 87.9497C206.275 86.4702 207.594 84.9264 208.752 83.3183C215.86 82.9967 222.164 80.681 227.664 76.3712C228.789 75.4706 229.867 74.5057 230.896 73.4765C231.507 72.8654 232.102 72.2382 232.681 71.595C232.745 71.5307 232.81 71.4503 232.874 71.3538C233.228 70.9357 233.581 70.5015 233.935 70.0512L235.093 68.8933C235.576 68.7004 236.138 68.5395 236.782 68.4109C237.425 68.2822 237.956 68.2662 238.374 68.3627C238.116 69.0381 237.891 69.7296 237.698 70.4371C237.473 71.1769 237.296 71.9488 237.168 72.7529C236.749 74.6183 236.524 76.5641 236.492 78.5904C236.46 79.0085 236.444 79.4266 236.444 79.8447C236.444 89.1719 239.741 97.1322 246.334 103.726C247.363 104.755 248.441 105.72 249.566 106.62C255.484 111.284 262.367 113.616 270.215 113.616C273.431 113.616 276.486 113.23 279.381 112.458C280.828 112.04 282.244 111.541 283.627 110.962C282.051 105.109 284.881 100.734 292.118 97.8398C294.465 96.8427 296.652 96.1834 298.679 95.8618C299.193 95.7653 299.692 95.6849 300.174 95.6205C302.715 90.8926 303.986 85.634 303.986 79.8447C303.986 72.5438 301.975 66.0952 297.955 60.4989C297.955 60.0807 297.955 59.6626 297.955 59.2445C297.955 58.8586 297.955 58.4726 297.955 58.0867C297.698 49.2741 294.401 41.6998 288.065 35.3637C287.036 34.3345 285.958 33.3857 284.833 32.5173C282.485 30.6519 279.992 29.1563 277.355 28.0306C275.715 23.6565 273.093 19.6683 269.491 16.0661C268.462 15.0369 267.384 14.0881 266.259 13.2197C263.364 10.904 260.228 9.16722 256.851 8.00936C253.345 6.78718 249.598 6.1761 245.61 6.1761C244.227 6.1761 242.86 6.2565 241.51 6.41732C238.808 5.03432 235.929 4.05336 232.874 3.47443C230.751 3.08848 228.564 2.89551 226.313 2.89551C223.45 2.89551 220.716 3.21713 218.111 3.86039C216.503 4.24634 214.943 4.74485 213.432 5.35594C213.271 5.32378 213.11 5.30771 212.949 5.30771C212.049 5.24338 211.116 5.21122 210.151 5.21122C207.932 5.21122 205.777 5.4042 203.686 5.79015C203.107 5.9188 202.528 6.04745 201.949 6.1761C200.92 6.40123 199.907 6.69069 198.91 7.04448C198.17 7.30178 197.431 7.59126 196.691 7.91288C196.627 7.94505 196.562 7.9772 196.498 8.00936C194.665 8.78127 192.928 9.74615 191.288 10.904C191.127 11.0005 190.982 11.097 190.853 11.1935C189.245 12.3513 187.717 13.6539 186.27 15.1012Z" fill="#454545"/>
<path d="M174.547 120.272C173.871 120.272 173.228 120.32 172.617 120.417C169.24 120.803 166.329 122.218 163.885 124.662C160.99 127.589 159.543 131.127 159.543 135.276C159.543 137.366 159.913 139.296 160.653 141.065C161.36 142.802 162.438 144.394 163.885 145.841C166.812 148.8 170.366 150.28 174.547 150.28C177.892 150.28 180.835 149.315 183.376 147.385C183.987 146.935 184.566 146.42 185.112 145.841C187.782 143.204 189.245 140.068 189.503 136.434C189.535 136.048 189.551 135.662 189.551 135.276C189.551 131.127 188.071 127.589 185.112 124.662C184.566 124.083 183.987 123.585 183.376 123.167C180.835 121.237 177.892 120.272 174.547 120.272ZM173.63 127.798C173.63 127.798 174.949 128.457 175.463 129.776C175.978 131.127 176.235 132.735 176.235 134.6C176.235 136.466 175.978 138.042 175.463 139.328C174.949 140.679 174.338 141.355 173.63 141.355C172.923 141.355 172.312 140.679 171.797 139.328C171.282 138.042 171.025 136.466 171.025 134.6C171.025 132.735 171.282 131.127 171.797 129.776C172.312 128.457 173.63 127.798 173.63 127.798Z" fill="white"/>
<path d="M205.52 136.434C205.456 137.174 205.424 137.93 205.424 138.702C205.424 144.459 207.434 149.348 211.454 153.368C212.226 154.14 213.03 154.847 213.866 155.491C216.407 157.388 219.205 158.61 222.261 159.157C223.547 159.382 224.866 159.495 226.217 159.495C231.974 159.495 236.879 157.453 240.931 153.368C245.016 149.348 247.058 144.459 247.058 138.702C247.058 138.637 247.058 138.589 247.058 138.557C247.026 132.864 244.984 127.992 240.931 123.939C236.879 119.887 231.974 117.86 226.217 117.86C221.553 117.86 217.436 119.195 213.866 121.865C213.03 122.476 212.226 123.167 211.454 123.939C207.981 127.477 206.003 131.642 205.52 136.434ZM227.037 144.009C226.265 144.009 225.59 143.269 225.011 141.789C224.464 140.374 224.19 138.654 224.19 136.627C224.19 134.569 224.464 132.816 225.011 131.369C225.59 129.921 226.265 129.198 227.037 129.198C227.809 129.198 228.468 129.921 229.015 131.369C229.594 132.816 229.883 134.569 229.883 136.627C229.883 138.654 229.594 140.374 229.015 141.789C228.468 143.269 227.809 144.009 227.037 144.009Z" fill="white"/>
<path d="M201.564 90.8435C197.801 93.8025 193.668 95.8287 189.165 96.9223C186.528 97.5334 183.778 97.8389 180.915 97.8389C176.992 97.8389 173.309 97.26 169.868 96.1022C166.394 97.26 162.695 97.8389 158.771 97.8389C156.745 97.8389 154.783 97.6781 152.886 97.3565L152.837 97.8389C151.872 113.341 154.301 127.815 160.122 141.259C161.891 145.375 163.982 149.412 166.394 153.368C176.654 170.092 191.802 179.693 211.84 182.169C216.214 182.941 221.794 182.829 228.58 181.832C233.662 180.577 237.731 179.066 240.786 177.297C259.569 170.35 275.651 156.729 289.03 136.434V133.057C294.369 133.99 300.159 131.304 306.398 125C310.225 121.109 312.573 117.072 313.442 112.891C315.468 102.985 312.525 97.2761 304.613 95.7644C303.23 95.5071 301.751 95.4589 300.175 95.6197C299.692 95.684 299.194 95.7644 298.679 95.8609C296.653 96.1826 294.466 96.8419 292.118 97.8389C284.881 100.734 282.051 105.108 283.627 110.961C282.244 111.54 280.829 112.039 279.381 112.457C276.487 113.229 273.431 113.615 270.215 113.615C262.367 113.615 255.485 111.283 249.567 106.619C248.441 105.719 247.364 104.754 246.334 103.725C239.741 97.1314 236.444 89.1711 236.444 79.8439C236.444 79.4258 236.46 79.0077 236.493 78.5895C236.525 76.5633 236.75 74.6175 237.168 72.752C237.297 71.948 237.473 71.1761 237.699 70.4363C237.892 69.7287 238.117 69.0373 238.374 68.3618C237.956 68.2653 237.425 68.2814 236.782 68.4101C236.139 68.5387 235.576 68.6995 235.093 68.8925L233.936 70.0504C233.582 70.5007 233.228 70.9348 232.874 71.3529C232.81 71.4494 232.746 71.5298 232.681 71.5942C232.102 72.2374 231.507 72.8646 230.896 73.4757C229.867 74.5049 228.79 75.4698 227.664 76.3703C222.164 80.6801 215.86 82.9959 208.752 83.3175C207.594 84.9256 206.276 86.4694 204.796 87.9489C203.767 88.9781 202.69 89.943 201.564 90.8435ZM172.617 120.417C173.229 120.321 173.872 120.272 174.547 120.272C177.892 120.272 180.835 121.237 183.376 123.167C183.987 123.585 184.566 124.084 185.113 124.663C188.072 127.589 189.551 131.127 189.551 135.276C189.551 135.662 189.535 136.048 189.503 136.434C189.246 140.069 187.782 143.204 185.113 145.842C184.566 146.421 183.987 146.935 183.376 147.386C180.835 149.315 177.892 150.28 174.547 150.28C170.366 150.28 166.812 148.801 163.885 145.842C162.438 144.394 161.36 142.802 160.653 141.066C159.913 139.297 159.543 137.367 159.543 135.276C159.543 131.127 160.991 127.589 163.885 124.663C166.33 122.218 169.24 120.803 172.617 120.417ZM205.423 138.702C205.423 137.93 205.456 137.174 205.52 136.434C206.002 131.642 207.98 127.477 211.454 123.939C212.226 123.167 213.03 122.476 213.866 121.864C217.436 119.195 221.553 117.86 226.217 117.86C231.974 117.86 236.878 119.886 240.931 123.939C244.983 127.991 247.026 132.864 247.058 138.557C247.058 138.589 247.058 138.637 247.058 138.702C247.058 144.459 245.016 149.347 240.931 153.368C236.878 157.452 231.974 159.495 226.217 159.495C224.866 159.495 223.547 159.382 222.261 159.157C219.205 158.61 216.407 157.388 213.866 155.491C213.03 154.847 212.226 154.14 211.454 153.368C207.434 149.347 205.423 144.459 205.423 138.702Z" fill="white"/>
<path d="M240.786 177.296C237.731 179.065 233.662 180.577 228.581 181.831C223.242 188.489 221.183 193.683 222.405 197.414C223.595 201.113 226.088 199.569 229.883 192.783C233.678 185.996 239.403 188.103 247.058 199.103C247.251 189.84 245.161 182.571 240.786 177.296Z" fill="#DCDCDC"/>
<path d="M316.384 168.709C314.583 165.589 311.447 163.434 306.977 162.244C303.246 161.215 299.129 161.649 294.626 163.547C295.752 165.444 297.103 166.747 298.679 167.454C299.29 169.963 299.29 172.166 298.679 174.064C294.53 185.482 288.821 194.905 281.552 202.335C285.862 200.727 294.063 204.49 306.156 213.624C314.873 203.557 318.812 190.692 317.976 175.029C317.88 172.617 317.349 170.51 316.384 168.709Z" fill="#DCDCDC"/>
<path d="M298.679 167.455C297.103 166.747 295.753 165.445 294.627 163.547C290.993 156.954 289.127 147.916 289.031 136.434C275.651 156.729 259.57 170.35 240.787 177.297C245.161 182.571 247.251 189.84 247.058 199.103C257.833 211.293 268.607 212.917 279.382 203.976C279.929 203.204 280.652 202.657 281.553 202.335C288.822 194.906 294.53 185.482 298.679 174.064C299.291 172.167 299.291 169.964 298.679 167.455Z" fill="#FCFCFC"/>
<path d="M22.7711 238.953C26.5985 236.927 29.0589 235.431 30.1525 234.466C32.7576 232.054 34.7356 228.982 36.0865 225.252C37.4051 221.521 36.4563 219.028 33.2401 217.774C30.0238 216.487 27.3543 216.342 25.2316 217.34C23.1088 218.304 22.1118 218.771 22.2404 218.739C20.182 220.315 18.2201 222.164 16.3546 224.287C14.4892 226.409 13.3796 228.693 13.0258 231.137C12.6399 233.55 13.6208 235.608 15.9687 237.313C18.2844 239.017 19.8282 239.789 20.6001 239.628C21.3399 239.435 22.0635 239.21 22.7711 238.953Z" fill="#FCFCFC"/>
<path d="M32.5166 237.07C30.4903 236.588 27.2419 237.215 22.7713 238.952C21.0023 240.11 19.3942 241.605 17.9469 243.439C15.8563 246.205 14.7628 248.826 14.6663 251.302C14.5698 253.779 15.4543 255.451 17.3197 256.32C19.2816 257.156 21.6778 256.899 24.5081 255.548L30.4421 251.206C30.9567 250.659 31.4552 250.064 31.9377 249.421C34.0604 246.655 35.1861 244.05 35.3147 241.605C35.4434 239.065 34.5107 237.553 32.5166 237.07Z" fill="#FCFCFC"/>
<path d="M38.5948 258.153C40.2351 255.065 40.814 252.75 40.3316 251.206C39.8813 249.534 38.4501 248.842 36.0379 249.131C34.3332 249.357 32.4678 250.048 30.4416 251.206L24.5075 255.548C23.1246 256.834 21.9345 258.201 20.9375 259.649C19.2329 262.254 18.6218 264.377 19.1042 266.017C19.5223 267.625 21.0018 268.574 23.5427 268.863C25.4403 269.056 27.4504 268.574 29.5732 267.416C30.2808 266.998 31.0044 266.531 31.7442 266.017C34.671 263.83 36.9545 261.209 38.5948 258.153Z" fill="#FCFCFC"/>
<path d="M42.0694 274.171C43.6775 272.08 44.2886 270.327 43.9027 268.912C43.4524 267.497 42.0855 266.436 39.802 265.728C37.4862 265.02 34.7846 265.326 31.6969 266.645C30.9894 266.934 30.33 267.272 29.7189 267.658C27.5962 268.976 25.9881 270.81 24.8945 273.158C23.4472 276.181 23.1417 278.384 23.9779 279.767C24.8141 281.15 26.2936 281.842 28.4163 281.842C30.6034 281.809 33.0317 281.054 35.7012 279.574C36.2801 279.252 36.843 278.915 37.3898 278.561C39.2874 277.274 40.8472 275.811 42.0694 274.171Z" fill="#FCFCFC"/>
<path d="M30.1529 234.465C29.0593 235.43 26.5989 236.926 22.7715 238.952C27.2421 237.215 30.4906 236.588 32.5168 237.07C34.5109 237.553 35.4436 239.064 35.315 241.605C35.1863 244.05 34.0606 246.655 31.9379 249.421C31.4554 250.064 30.9569 250.659 30.4423 251.206C32.4686 250.048 34.334 249.357 36.0386 249.131C38.4508 248.842 39.8821 249.533 40.3324 251.206C40.8148 252.75 40.2359 255.065 38.5956 258.153C36.9553 261.208 34.6717 263.83 31.7449 266.017C31.0052 266.531 30.2815 266.998 29.5739 267.416L29.7187 267.657C30.3298 267.271 30.9891 266.933 31.6967 266.644C34.7843 265.325 37.486 265.02 39.8017 265.727C42.0852 266.435 43.4521 267.496 43.9024 268.911C44.2884 270.327 43.6773 272.079 42.0691 274.17C40.8469 275.81 39.2871 277.274 37.3895 278.56L47.8102 339.058C91.2941 355.719 135.148 369.806 179.372 381.32L180.337 377.653L173.245 372.298C169.835 358.919 169.835 347.533 173.245 338.142C171.765 335.762 168.549 332.851 163.596 329.409C148.512 323.299 136.644 314.229 127.992 302.2C118.279 296.378 114.725 291.281 117.33 286.906C118.648 285.138 121.672 284.993 126.4 286.472L115.352 277.595C111.91 275.215 110.19 272.739 110.19 270.166C110.19 267.593 111.428 266.21 113.904 266.017C116.381 265.792 119.742 266.58 123.988 268.381L129.439 271.468L112.312 259.456C109.965 254.599 110.19 251.27 112.988 249.469C115.143 248.054 118.07 247.571 121.768 248.022C116.558 246.574 114.467 244.21 115.497 240.93C116.526 237.649 121.077 236.17 129.15 236.491C139.377 237.263 147.643 240.962 153.947 247.588L140.873 184.677L3.85986 159.156L22.2408 218.738C22.1122 218.77 23.1092 218.303 25.232 217.339C27.3547 216.342 30.0242 216.486 33.2405 217.773C36.4567 219.027 37.4056 221.52 36.0869 225.251C34.736 228.981 32.758 232.053 30.1529 234.465Z" fill="white"/>
<path d="M115.496 240.929C114.466 244.21 116.557 246.574 121.767 248.021C118.069 247.571 115.142 248.053 112.987 249.468C110.189 251.27 109.964 254.598 112.311 259.455L129.438 271.468L123.987 268.38C119.741 266.579 116.38 265.791 113.904 266.016C111.427 266.209 110.189 267.592 110.189 270.165C110.189 272.738 111.909 275.215 115.351 277.595L126.399 286.472C121.671 284.992 118.648 285.137 117.329 286.906C114.724 291.28 118.278 296.378 127.991 302.199C136.643 314.228 148.511 323.298 163.595 329.409C168.548 332.85 171.764 335.761 173.244 338.141L189.55 352.855C193.41 340.73 194.407 323.266 192.541 300.462C190.676 299.562 189.052 299.562 187.669 300.462C187.379 299.24 187.074 298.034 186.752 296.844C182.378 281.213 172.697 266.338 157.709 252.218C156.551 250.546 155.297 249.002 153.946 247.587C147.642 240.961 139.376 237.263 129.149 236.491C121.076 236.169 116.525 237.649 115.496 240.929Z" fill="#FCFCFC"/>
<path d="M173.245 338.143C169.835 347.534 169.835 358.92 173.245 372.299C180.771 369.759 186.206 363.278 189.551 352.857L173.245 338.143Z" fill="#DCDCDC"/>
<path d="M316.384 168.709C317.349 170.511 317.88 172.617 317.976 175.029C318.813 190.693 314.873 203.558 306.157 213.625C294.063 204.49 285.862 200.727 281.552 202.336C280.652 202.657 279.928 203.204 279.381 203.976C268.607 212.917 257.832 211.293 247.058 199.103C239.403 188.104 233.678 185.997 229.883 192.783C226.088 199.57 223.595 201.113 222.405 197.415C221.183 193.684 223.241 188.49 228.58 181.832C221.794 182.829 216.214 182.941 211.84 182.17C205.439 185.386 199.007 190.628 192.542 197.897C181.703 211.631 173.839 227.776 168.951 246.334C165.22 249.904 161.473 251.866 157.71 252.22C172.698 266.339 182.379 281.215 186.753 296.846C193.886 292.082 199.032 284.524 202.191 274.171L200.743 286.714C199.971 294.855 199.971 300.323 200.743 303.117C196.645 302.249 193.911 301.365 192.542 300.464C194.407 323.267 193.41 340.732 189.551 352.857C186.206 363.278 180.77 369.758 173.244 372.299L188.2 383.588C217.468 402.854 242.169 415.22 262.303 420.688C282.404 426.156 302.378 416.459 322.222 391.597C342.034 366.703 359.707 328.494 375.242 276.969L380.742 306.736C379.584 290.268 377.542 268.205 374.615 240.545C371.656 212.853 352.246 188.908 316.384 168.709Z" fill="white"/>
<path d="M380.742 306.736L375.242 276.97C359.707 328.494 342.034 366.704 322.222 391.598C302.377 416.459 282.404 426.156 262.303 420.689C242.169 415.221 217.468 402.854 188.2 383.589V403.128C189.583 405.154 191.03 407.116 192.542 409.014C194.279 411.104 196.112 413.098 198.042 414.996C202.752 419.574 208.075 423.482 214.011 426.719V426.767C215.703 426.682 217.488 427.566 219.366 429.421C225.028 432 231.187 434.042 237.843 435.548L248.167 436.754C248.928 436.841 249.684 436.922 250.435 436.995C263.694 438.429 275.434 438.831 285.653 438.201H285.701C300.536 436.808 312.114 435.393 320.437 433.956C323.189 433.497 325.585 433.031 327.625 432.557C329.33 432.171 330.986 431.753 332.594 431.302C334.202 430.852 335.762 430.402 337.274 429.952C337.628 429.823 337.998 429.71 338.384 429.614C339.702 429.164 340.989 428.729 342.243 428.311C356.202 423.519 365.931 418.614 371.431 413.597C378.989 384.297 382.093 348.676 380.742 306.736Z" fill="white"/>
<path d="M219.51 429.565L214.01 426.767V444.762C215.522 444.859 217.082 445.663 218.69 447.174L218.738 447.223L218.98 447.415V430.096L219.51 429.565Z" fill="#9B9E9D"/>
<path d="M320.485 434.244C318.877 434.694 317.221 435.113 315.516 435.498V454.314C317.189 453.831 318.845 453.333 320.485 452.818V434.244Z" fill="#9B9E9D"/>
<path d="M284.93 458.126V458.078C285.187 458.069 285.444 458.053 285.701 458.03V438.201H285.653C275.434 438.831 263.695 438.429 250.435 436.995V457.016C250.486 457.041 250.535 457.057 250.58 457.065C257.244 458.159 268.694 458.513 284.93 458.126Z" fill="#9B9E9D"/>
<path d="M192.542 427.876C191.738 427.007 190.966 426.123 190.226 425.222C189.776 424.676 189.326 424.129 188.875 423.582C187.975 424.418 187.46 425.801 187.332 427.731C181.446 474.045 179.966 515.246 182.893 551.332H262.448L269.732 503.088H279.381L286.473 551.332H370.852C371.785 533.353 372.589 512.85 373.264 489.821C373.907 466.76 373.682 446.434 372.589 428.841C367.217 435.08 357.102 440.982 342.243 446.546C340.635 447.125 338.979 447.72 337.274 448.331C336.341 448.621 335.376 448.942 334.379 449.296C333.8 449.489 333.205 449.682 332.594 449.875C330.954 450.39 329.298 450.888 327.625 451.371C323.622 452.517 319.586 453.514 315.516 454.362C305.738 456.439 295.799 457.661 285.701 458.028C285.444 458.052 285.187 458.068 284.929 458.077V458.125C268.694 458.512 257.244 458.158 250.579 457.063C250.533 457.067 250.484 457.067 250.435 457.063L250.387 457.015C247.047 456.481 243.846 455.757 240.786 454.844C232.914 453.015 225.645 450.506 218.98 447.318V447.415L218.738 447.222C212.73 444.33 207.214 440.889 202.191 436.897C200.583 435.611 199.023 434.276 197.511 432.893C197.415 432.797 197.318 432.7 197.222 432.604C195.613 431.092 194.054 429.516 192.542 427.876Z" fill="#DCDFDE"/>
<path d="M214.011 426.767L219.511 429.565C219.461 429.517 219.413 429.469 219.366 429.421C217.488 427.566 215.703 426.682 214.011 426.767ZM250.435 457.065V457.016H250.387L250.435 457.065ZM250.435 457.016V457.065C250.485 457.068 250.533 457.068 250.58 457.065C250.534 457.057 250.486 457.041 250.435 457.016Z" fill="#9B9E9D"/>
<path d="M189.503 136.435C189.246 140.069 187.782 143.205 185.113 145.843C184.566 146.421 183.987 146.936 183.376 147.386C180.835 149.316 177.892 150.281 174.547 150.281C170.366 150.281 166.812 148.802 163.885 145.843C162.438 144.395 161.361 142.803 160.653 141.066C159.913 139.297 159.543 137.368 159.543 135.277C159.543 131.128 160.991 127.59 163.885 124.663C166.33 122.219 169.24 120.804 172.617 120.418C173.229 120.321 173.872 120.273 174.547 120.273C177.892 120.273 180.835 121.238 183.376 123.168C183.987 123.586 184.566 124.084 185.113 124.663C188.072 127.59 189.551 131.128 189.551 135.277C189.551 135.663 189.535 136.049 189.503 136.435ZM189.503 136.435C189.599 136.403 189.696 136.371 189.792 136.338C195.324 134.73 200.567 134.763 205.52 136.435M205.52 136.435C206.002 131.643 207.98 127.478 211.454 123.94C212.226 123.168 213.03 122.476 213.866 121.865C217.436 119.196 221.553 117.861 226.217 117.861C231.974 117.861 236.879 119.887 240.931 123.94C244.983 127.992 247.026 132.865 247.058 138.558M205.52 136.435C205.456 137.175 205.423 137.931 205.423 138.702C205.423 144.46 207.434 149.348 211.454 153.369C212.226 154.141 213.03 154.848 213.866 155.491C216.407 157.389 219.205 158.611 222.261 159.158C223.547 159.383 224.866 159.496 226.217 159.496C231.974 159.496 236.879 157.453 240.931 153.369C245.016 149.348 247.058 144.46 247.058 138.702C247.058 138.638 247.058 138.59 247.058 138.558M247.058 138.558L279.382 112.458M279.382 112.458C276.487 113.23 273.431 113.616 270.215 113.616C262.367 113.616 255.485 111.284 249.567 106.62C248.441 105.72 247.364 104.755 246.334 103.726C239.741 97.1322 236.444 89.1719 236.444 79.8447C236.444 79.4266 236.46 79.0085 236.493 78.5904C236.525 76.5641 236.75 74.6183 237.168 72.7529C237.297 71.9488 237.474 71.1769 237.699 70.4371C237.892 69.7296 238.117 69.0381 238.374 68.3627C237.956 68.2662 237.425 68.2822 236.782 68.4109C236.139 68.5395 235.576 68.7004 235.093 68.8933L233.936 70.0512C233.582 70.5015 233.228 70.9356 232.874 71.3538C232.81 71.4502 232.746 71.5307 232.681 71.595C232.102 72.2382 231.507 72.8654 230.896 73.4765C229.867 74.5057 228.79 75.4706 227.664 76.3712C222.164 80.681 215.86 82.9967 208.752 83.3183C207.594 84.9264 206.276 86.4702 204.796 87.9497C203.767 88.9789 202.69 89.9438 201.564 90.8444C197.801 93.8033 193.668 95.8296 189.165 96.9231C186.528 97.5342 183.778 97.8397 180.915 97.8397C176.992 97.8397 173.309 97.2608 169.868 96.103C166.394 97.2608 162.695 97.8397 158.771 97.8397C156.745 97.8397 154.783 97.6789 152.886 97.3573C146.035 96.2316 140.037 93.0958 134.891 87.9497C128.297 81.3564 125.001 73.3961 125.001 64.0689C125.001 54.7417 128.297 46.7815 134.891 40.1881C139.297 35.7818 144.314 32.855 149.943 31.4077C152.258 30.7966 154.735 29.8961 157.372 28.7061C158.595 28.1593 159.624 27.4678 160.46 26.6316C161.907 25.1843 163.435 23.8816 165.043 22.7238C165.172 22.6273 165.317 22.5308 165.477 22.4343C167.182 21.2443 168.983 20.2473 170.881 19.4432C171.62 19.1216 172.36 18.8321 173.1 18.5748C174.097 18.221 175.11 17.9316 176.139 17.7064C176.718 17.5778 177.297 17.4491 177.876 17.3205C179.967 16.9345 182.122 16.7415 184.341 16.7415C184.469 16.7415 184.598 16.7415 184.727 16.7415C185.209 16.1948 185.724 15.648 186.271 15.1012C187.718 13.6539 189.246 12.3513 190.854 11.1935C190.982 11.097 191.127 11.0005 191.288 10.904C192.928 9.74615 194.665 8.78127 196.498 8.00936C196.563 7.9772 196.627 7.94505 196.691 7.91288C197.431 7.59126 198.171 7.30178 198.91 7.04448C199.908 6.69069 200.921 6.40123 201.95 6.1761C202.529 6.04744 203.108 5.9188 203.687 5.79015C205.777 5.4042 207.932 5.21122 210.151 5.21122C211.116 5.21122 212.049 5.24338 212.949 5.30771C213.11 5.30771 213.271 5.32378 213.432 5.35594C214.944 4.74485 216.503 4.24634 218.112 3.86039C220.717 3.21713 223.451 2.89551 226.313 2.89551C228.564 2.89551 230.752 3.08848 232.874 3.47443C235.93 4.05336 238.808 5.03432 241.51 6.41732C242.861 6.2565 244.228 6.1761 245.611 6.1761C249.599 6.1761 253.346 6.78718 256.852 8.00936C260.229 9.16722 263.364 10.904 266.259 13.2197C267.385 14.0881 268.462 15.0369 269.491 16.0661C273.094 19.6683 275.715 23.6565 277.355 28.0306C279.993 29.1563 282.485 30.6519 284.833 32.5173C285.959 33.3857 287.036 34.3345 288.065 35.3637C294.401 41.6998 297.698 49.2741 297.955 58.0867C297.955 58.4726 297.955 58.8586 297.955 59.2445C297.955 59.6626 297.955 60.0807 297.955 60.4989C301.976 66.0952 303.986 72.5438 303.986 79.8447C303.986 85.634 302.716 90.8926 300.175 95.6205M279.382 112.458C280.829 112.04 282.244 111.541 283.627 110.962C282.051 105.109 284.881 100.734 292.118 97.8397C294.466 96.8427 296.653 96.1834 298.679 95.8618C299.194 95.7653 299.692 95.6849 300.175 95.6205M300.175 95.6205C301.751 95.4597 303.23 95.508 304.613 95.7653C312.525 97.2769 315.468 102.986 313.442 112.892C312.573 117.073 310.225 121.109 306.398 125.001C300.159 131.305 294.369 133.991 289.03 133.058M289.03 133.058V136.435M289.03 133.058C287.326 132.736 285.653 132.045 284.013 130.983L289.03 133.058ZM289.03 136.435C289.127 147.917 290.992 156.955 294.627 163.548M289.03 136.435C275.651 156.73 259.569 170.351 240.786 177.298M294.627 163.548C299.129 161.651 303.246 161.216 306.977 162.246C311.448 163.436 314.584 165.59 316.385 168.71M294.627 163.548C295.752 165.446 297.103 166.748 298.679 167.456C299.29 169.965 299.29 172.168 298.679 174.065C294.53 185.483 288.821 194.907 281.552 202.336M316.385 168.71C352.246 188.908 371.656 212.853 374.615 240.546C377.542 268.205 379.584 290.269 380.742 306.736M316.385 168.71C317.35 170.511 317.88 172.618 317.977 175.03C318.813 190.693 314.873 203.558 306.157 213.625C294.064 204.491 285.862 200.728 281.552 202.336M380.742 306.736C382.093 348.677 378.989 384.297 371.431 413.597M380.742 306.736L375.242 276.97M380.742 306.736L373.892 269.878L375.242 276.97M371.431 413.597C373.136 418.614 373.522 423.696 372.589 428.842M371.431 413.597C365.931 418.614 356.202 423.519 342.243 428.311M372.589 428.842C373.682 446.435 373.908 466.762 373.264 489.822C372.589 512.851 371.785 533.355 370.852 551.334H286.473L279.382 503.09H269.733L262.448 551.334H182.893C179.967 515.247 181.446 474.047 187.332 427.732C187.461 425.803 187.975 424.42 188.876 423.583M372.589 428.842C367.218 435.082 357.103 440.983 342.243 446.548C340.635 447.127 338.979 447.722 337.274 448.333C336.342 448.622 335.377 448.944 334.38 449.297C333.801 449.49 333.206 449.683 332.595 449.876C330.954 450.391 329.298 450.89 327.626 451.372C323.622 452.518 319.594 453.523 315.54 454.387M188.876 423.583L188.2 403.128M188.876 423.583C189.326 424.13 189.776 424.677 190.227 425.224C190.966 426.124 191.738 427.009 192.542 427.877C194.054 429.517 195.614 431.093 197.222 432.605C197.318 432.702 197.415 432.798 197.511 432.895C199.023 434.277 200.583 435.612 202.191 436.899C205.865 439.818 209.805 442.439 214.011 444.763M188.2 403.128V383.589M188.2 403.128C189.583 405.154 191.031 407.116 192.542 409.014C194.279 411.104 196.112 413.098 198.042 414.996C202.752 419.574 208.075 423.49 214.011 426.743V426.768M188.2 383.589L180.337 377.655M188.2 383.589C217.468 402.855 242.169 415.221 262.303 420.689C282.405 426.156 302.378 416.459 322.222 391.598C342.034 366.704 359.708 328.494 375.242 276.97M180.337 377.655V381.563C180.015 381.466 179.693 381.386 179.372 381.322C135.148 369.807 91.2941 355.72 47.8102 339.06L37.3895 278.562M180.337 377.655L173.245 372.3M37.3895 278.562C36.8427 278.916 36.2799 279.253 35.7009 279.575C33.0314 281.054 30.6031 281.81 28.4161 281.842C26.2933 281.842 24.8138 281.151 23.9776 279.768C23.1414 278.385 23.4469 276.182 24.8943 273.159C25.9878 270.811 27.5959 268.977 29.7187 267.659C30.3298 267.273 30.9891 266.935 31.6967 266.646C34.7843 265.327 37.486 265.021 39.8017 265.729C42.0852 266.437 43.4521 267.498 43.9024 268.913C44.2884 270.328 43.6773 272.081 42.0691 274.172C40.8469 275.812 39.2871 277.275 37.3895 278.562ZM22.2408 218.739C22.1122 218.771 23.1092 218.305 25.232 217.34C27.3547 216.343 30.0242 216.488 33.2405 217.774C36.4567 219.029 37.4056 221.521 36.0869 225.252C34.7361 228.983 32.758 232.055 30.1529 234.467C29.0593 235.432 26.5989 236.927 22.7715 238.954M22.2408 218.739C20.1824 220.315 18.2205 222.165 16.3551 224.287C14.4896 226.41 13.38 228.694 13.0262 231.138C12.6403 233.55 13.6212 235.609 15.9691 237.313C18.2848 239.018 19.8286 239.79 20.6005 239.629C21.3403 239.436 22.0639 239.211 22.7715 238.954M22.2408 218.739L3.85986 159.158L140.873 184.679L153.947 247.589M22.7715 238.954C27.2421 237.217 30.4906 236.59 32.5168 237.072C34.5109 237.554 35.4436 239.066 35.315 241.607C35.1863 244.051 34.0606 246.656 31.9379 249.422C31.4554 250.066 30.9569 250.661 30.4423 251.208M22.7715 238.954C21.0026 240.111 19.3944 241.607 17.9471 243.44C15.8565 246.206 14.763 248.827 14.6665 251.304C14.57 253.781 15.4545 255.453 17.3199 256.321C19.2819 257.158 21.678 256.9 24.5083 255.549M30.4423 251.208C32.4686 250.05 34.334 249.358 36.0386 249.133C38.4508 248.844 39.8821 249.535 40.3324 251.208C40.8148 252.751 40.2359 255.067 38.5956 258.155C36.9553 261.21 34.6717 263.831 31.7449 266.018C31.0052 266.533 30.2815 266.999 29.5739 267.418C27.4512 268.575 25.441 269.058 23.5434 268.865C21.0026 268.575 19.5231 267.627 19.105 266.018C18.6225 264.378 19.2336 262.255 20.9382 259.65C21.9353 258.203 23.1253 256.836 24.5083 255.549M30.4423 251.208L24.5083 255.549M153.947 247.589C155.298 249.004 156.552 250.548 157.71 252.221M153.947 247.589C147.643 240.964 139.377 237.265 129.15 236.493C121.077 236.171 116.526 237.651 115.497 240.932C114.467 244.212 116.558 246.576 121.768 248.023M157.71 252.221C161.473 251.867 165.22 249.905 168.951 246.335C173.84 227.777 181.703 211.631 192.542 197.898C199.007 190.629 205.439 185.387 211.84 182.17M157.71 252.221C172.698 266.34 182.379 281.215 186.753 296.846M211.84 182.17C191.803 179.694 176.654 170.093 166.394 153.369C163.982 149.413 161.891 145.376 160.122 141.259C154.301 127.815 151.873 113.342 152.837 97.8397M211.84 182.17C216.214 182.942 221.794 182.83 228.581 181.833M281.552 202.336C280.652 202.658 279.928 203.205 279.382 203.977C268.607 212.918 257.832 211.294 247.058 199.104M247.058 199.104C239.403 188.104 233.678 185.998 229.883 192.784C226.088 199.57 223.595 201.114 222.405 197.415C221.183 193.685 223.242 188.49 228.581 181.833M247.058 199.104C247.251 189.841 245.16 182.572 240.786 177.298M228.581 181.833C233.662 180.578 237.731 179.067 240.786 177.298M346.923 211.358C323.959 219.334 311.834 240.867 310.547 275.957C297.425 307.959 286.795 327.514 278.658 334.621C270.489 341.729 260.373 341.954 248.312 335.297C236.909 328.972 221.052 318.245 200.744 303.118M200.744 303.118C196.645 302.25 193.911 301.366 192.542 300.465M200.744 303.118C199.971 300.324 199.971 294.856 200.744 286.715L202.191 274.172M192.542 300.465C194.408 323.268 193.411 340.732 189.551 352.858M192.542 300.465C190.677 299.564 189.053 299.564 187.67 300.465M189.551 352.858C186.206 363.278 180.771 369.759 173.245 372.3M189.551 352.858L173.245 338.143M173.245 372.3C169.835 358.92 169.835 347.535 173.245 338.143M188.731 162.439C200.599 169.321 211.518 169.321 221.489 162.439M121.768 248.023C122.797 248.12 123.875 248.297 125.001 248.554C135.614 251.61 144.604 257.302 151.969 265.633M121.768 248.023C118.07 247.573 115.143 248.056 112.988 249.471C110.19 251.272 109.965 254.601 112.312 259.457L129.439 271.47M173.245 338.143C171.765 335.763 168.549 332.852 163.596 329.411C148.512 323.3 136.644 314.23 127.992 302.201C118.279 296.38 114.725 291.282 117.33 286.908C118.648 285.139 121.672 284.994 126.4 286.474M126.4 286.474L115.352 277.597C111.91 275.217 110.19 272.74 110.19 270.167C110.19 267.594 111.428 266.211 113.904 266.018C116.381 265.793 119.742 266.581 123.988 268.382L129.439 271.47M126.4 286.474C127.204 286.699 128.056 286.989 128.957 287.342L139.426 294.048L126.4 286.474ZM129.439 271.47L141.066 278.079M202.191 223.274C200.551 226.619 199.682 233.438 199.586 243.73C199.457 254.022 200.326 264.169 202.191 274.172M202.191 274.172C199.032 284.525 193.886 292.083 186.753 296.846M186.753 296.846C187.075 298.036 187.38 299.242 187.67 300.465M187.67 300.465V305.482M218.739 447.223C217.125 446.446 215.549 445.626 214.011 444.763M214.011 444.763V426.768M214.011 426.768L219.511 429.566M250.411 457.041C247.055 456.49 243.847 455.759 240.786 454.846C232.914 453.016 225.646 450.515 218.98 447.344V430.096L219.366 429.421C225.028 432 231.187 434.042 237.843 435.548L248.168 436.754C248.928 436.841 249.684 436.922 250.435 436.995M250.411 457.041H250.435M250.411 457.041L250.435 457.065M250.435 457.041V436.995M250.435 457.041V457.065M250.435 457.041C250.486 457.049 250.535 457.057 250.58 457.065M250.435 436.995C263.695 438.429 275.442 438.831 285.677 438.201H285.701M342.243 428.311C340.989 428.729 339.703 429.164 338.384 429.614C337.998 429.71 337.628 429.823 337.274 429.952C335.763 430.402 334.203 430.852 332.595 431.302C330.987 431.753 329.33 432.171 327.626 432.557C325.585 433.031 323.189 433.506 320.437 433.98C312.114 435.401 300.536 436.808 285.701 438.201M342.243 428.311C350.535 423.815 355.311 417.463 356.572 409.255M285.701 438.201V458.054M285.701 458.054C295.8 457.671 305.746 456.448 315.54 454.387M285.701 458.054C285.444 458.061 285.187 458.069 284.93 458.078V458.126C268.694 458.513 257.244 458.159 250.58 457.065M315.54 454.387L315.516 435.5M250.58 457.065H250.435M320.485 434.245V452.819" stroke="#424544" stroke-width="1.92976" stroke-linecap="round" stroke-linejoin="round"/>
<path d="M178.861 132.434C178.861 129.985 176.877 128 174.43 128C171.984 128 170 129.985 170 132.434V138.01C170 140.459 171.984 142.444 174.43 142.444C176.877 142.444 178.861 140.459 178.861 138.01V132.434Z" fill="#454545"/>
<path d="M231.607 133.114C231.607 130.451 229.45 128.292 226.789 128.292C224.128 128.292 221.971 130.451 221.971 133.114V139.178C221.971 141.841 224.128 144 226.789 144C229.45 144 231.607 141.841 231.607 139.178V133.114Z" fill="#454545"/>
</g>
<defs>
<clipPath id="clip0_25_8505">
<rect width="383.058" height="552.877" fill="white"/>
</clipPath>
</defs>
</svg>
