<svg xmlns="http://www.w3.org/2000/svg" width="153.008" height="159.731" viewBox="0 0 153.008 159.731">
  <g id="Group_109" data-name="Group 109" transform="translate(-710.219 -3882.611)">
    <g id="egFDSnEm7BK4" transform="translate(775.565 3884.276)">
      <ellipse id="egFDSnEm7BK5" cx="7.959" cy="12.22" rx="7.959" ry="12.22" transform="matrix(0.118, -0.993, 0.993, 0.118, 0, 15.808)" fill="#dfdfdf" stroke="#1f415d" stroke-linecap="round" stroke-linejoin="round" stroke-width="3"/>
      <path id="egFDSnEm7BK6" d="M349.4,130.19s4.385,5.379,1.008,15.432-.959,10.858,1.521,11.336c3.264.628,4.292-3.331,4.243-10.314s.637-12.165,4.924-14.7" transform="translate(-342.695 -120.209)" fill="#dfdfdf" stroke="#1f415d" stroke-linecap="round" stroke-linejoin="round" stroke-width="3"/>
    </g>
    <g id="egFDSnEm7BK7" transform="translate(736.028 3890.433)">
      <ellipse id="egFDSnEm7BK8" cx="12.22" cy="7.959" rx="12.22" ry="7.959" transform="matrix(0.769, -0.639, 0.639, 0.769, 0, 15.627)" fill="#dfdfdf" stroke="#1f415d" stroke-linecap="round" stroke-linejoin="round" stroke-width="3"/>
      <path id="egFDSnEm7BK9" d="M220.86,163.72s6.919.521,11.875,9.891,7.215,8.171,9.268,6.7c2.705-1.935.542-5.407-4.559-10.178s-8.368-8.831-7.276-13.685" transform="translate(-210.287 -144.73)" fill="#dfdfdf" stroke="#1f415d" stroke-linecap="round" stroke-linejoin="round" stroke-width="3"/>
    </g>
    <g id="egFDSnEm7BK10" transform="translate(715.705 3918.376)">
      <ellipse id="egFDSnEm7BK11" cx="12.22" cy="7.959" rx="12.22" ry="7.959" transform="translate(0 22.893) rotate(-69.51)" fill="#dfdfdf" stroke="#1f415d" stroke-linecap="round" stroke-linejoin="round" stroke-width="3"/>
      <path id="egFDSnEm7BK12" d="M152.63,266.657s6.265-2.98,15.229,2.688,10.32,3.51,11.374,1.216c1.384-3.021-2.216-4.961-9.013-6.572s-11.655-3.508-13.109-8.269" transform="translate(-141.785 -246.088)" fill="#dfdfdf" stroke="#1f415d" stroke-linecap="round" stroke-linejoin="round" stroke-width="3"/>
    </g>
    <g id="egFDSnEm7BK13" transform="translate(711.986 3961.145)">
      <ellipse id="egFDSnEm7BK14" cx="7.959" cy="12.22" rx="7.959" ry="12.22" transform="translate(0 3.155) rotate(-11.43)" fill="#dfdfdf" stroke="#1f415d" stroke-linecap="round" stroke-linejoin="round" stroke-width="3"/>
      <path id="egFDSnEm7BK15" d="M135.718,404.658s3.742-5.842,14.348-5.772,10.615-2.474,10.3-4.979c-.42-3.3-4.5-3.041-11.125-.814s-11.748,3.186-15.5-.087" transform="translate(-122.91 -385.255)" fill="#dfdfdf" stroke="#1f415d" stroke-linecap="round" stroke-linejoin="round" stroke-width="3"/>
    </g>
    <g id="egFDSnEm7BK16" transform="translate(729.219 3994.502)">
      <ellipse id="egFDSnEm7BK17" cx="7.959" cy="12.22" rx="7.959" ry="12.22" transform="matrix(0.769, -0.639, 0.639, 0.769, 0, 14.087)" fill="#dfdfdf" stroke="#1f415d" stroke-linecap="round" stroke-linejoin="round" stroke-width="3"/>
      <path id="egFDSnEm7BK18" d="M201.564,513.618s.527-6.919,9.9-11.875,8.173-7.212,6.705-9.268c-1.943-2.711-5.419-.547-10.181,4.55s-8.834,8.373-13.688,7.27" transform="translate(-182.583 -491.298)" fill="#dfdfdf" stroke="#1f415d" stroke-linecap="round" stroke-linejoin="round" stroke-width="3"/>
    </g>
    <g id="egFDSnEm7BK19" transform="translate(808.243 3891.765)">
      <ellipse id="egFDSnEm7BK20" cx="7.959" cy="12.22" rx="7.959" ry="12.22" transform="translate(0.11 13.865) rotate(-60.58)" fill="#dfdfdf" stroke="#1f415d" stroke-linecap="round" stroke-linejoin="round" stroke-width="3"/>
      <path id="egFDSnEm7BK21" d="M462.1,165.581s-6.711,1.755-9.92,11.875-5.633,9.332-7.916,8.255c-3.006-1.416-1.5-5.213,2.662-10.829s6.662-10.189,4.7-14.771" transform="translate(-442.688 -148.373)" fill="#dfdfdf" stroke="#1f415d" stroke-linecap="round" stroke-linejoin="round" stroke-width="3"/>
    </g>
    <g id="egFDSnEm7BK22" transform="translate(820.614 3920.539)">
      <ellipse id="egFDSnEm7BK23" cx="7.959" cy="12.22" rx="7.959" ry="12.22" transform="translate(16.176 3.875) rotate(-14.09)" fill="#dfdfdf" stroke="#1f415d" stroke-linecap="round" stroke-linejoin="round" stroke-width="3"/>
      <path id="egFDSnEm7BK24" d="M520.444,271.771s-5.894-3.667-15.435.967-10.647,2.337-11.438-.061c-1.043-3.157,2.754-4.683,9.688-5.526s11.976-2.181,13.952-6.751" transform="translate(-493.401 -251.575)" fill="#dfdfdf" stroke="#1f415d" stroke-linecap="round" stroke-linejoin="round" stroke-width="3"/>
    </g>
    <g id="egFDSnEm7BK25" transform="translate(823.444 3958.56)">
      <ellipse id="egFDSnEm7BK26" cx="12.22" cy="7.959" rx="12.22" ry="7.959" transform="translate(16.006 23.531) rotate(-74.33)" fill="#dfdfdf" stroke="#1f415d" stroke-linecap="round" stroke-linejoin="round" stroke-width="3"/>
      <path id="egFDSnEm7BK27" d="M520.131,392.474s-3.3-6.106-13.87-6.821-10.413-3.241-9.909-5.729c.663-3.256,4.715-2.7,11.154,0s11.478,4.055,15.464,1.06" transform="translate(-496.173 -372.913)" fill="#dfdfdf" stroke="#1f415d" stroke-linecap="round" stroke-linejoin="round" stroke-width="3"/>
    </g>
    <g id="egFDSnEm7BK28" transform="translate(804.723 3994.391)">
      <ellipse id="egFDSnEm7BK29" cx="12.22" cy="7.959" rx="12.22" ry="7.959" transform="translate(10.423 22.129) rotate(-55.44)" fill="#dfdfdf" stroke="#1f415d" stroke-linecap="round" stroke-linejoin="round" stroke-width="3"/>
      <path id="egFDSnEm7BK30" d="M456.763,506.854s-1.159-6.844-10.928-10.945-8.788-6.447-7.51-8.625c1.683-2.867,5.335-1.025,10.548,3.623s9.558,7.545,14.288,6.01" transform="translate(-437.532 -485.914)" fill="#dfdfdf" stroke="#1f415d" stroke-linecap="round" stroke-linejoin="round" stroke-width="3"/>
    </g>
    <g id="egFDSnEm7BK31" transform="translate(775.566 4004.173)">
      <ellipse id="egFDSnEm7BK32" cx="7.959" cy="12.22" rx="7.959" ry="12.22" transform="translate(0 34.557) rotate(-85.32)" fill="#dfdfdf" stroke="#1f415d" stroke-linecap="round" stroke-linejoin="round" stroke-width="3"/>
      <path id="egFDSnEm7BK33" d="M345.08,544.424s5.364-4.4,4.055-14.928,1.211-10.832,3.736-10.809c3.325.032,3.548,4.116,2.114,10.951s-1.784,12.04,1.906,15.382" transform="translate(-338.357 -518.687)" fill="#dfdfdf" stroke="#1f415d" stroke-linecap="round" stroke-linejoin="round" stroke-width="3"/>
    </g>
    <ellipse id="egFDSnEm7BK35" cx="52.583" cy="52.583" rx="52.583" ry="52.583" transform="translate(734.355 3908.994)" fill="#dfdfdf" stroke="#1f415d" stroke-linecap="round" stroke-linejoin="round" stroke-width="3"/>
    <g id="egFDSnEm7BK37" transform="translate(793.553 3964.604)">
      <path id="egFDSnEm7BK38" d="M384.233,382.07s-.672,6.951.113,7.174,4.822-4.588,4.822-4.588Z" transform="translate(-383.965 -382.07)" fill="#fff" stroke="#1f415d" stroke-linecap="round" stroke-linejoin="round" stroke-width="3"/>
    </g>
    <g id="egFDSnEm7BK39" transform="translate(772.13 3965.612)">
      <path id="egFDSnEm7BK40" d="M314.941,385.55s.675,6.951-.11,7.177-4.831-4.6-4.831-4.6Z" transform="translate(-310 -385.55)" fill="#fff" stroke="#1f415d" stroke-linecap="round" stroke-linejoin="round" stroke-width="3"/>
    </g>
    <g id="egFDSnEm7BK41" transform="translate(770.133 3959.869)">
      <path id="egFDSnEm7BK42" d="M303.843,371.326a24.354,24.354,0,0,1,14.609-5.6,22.572,22.572,0,0,1,14.69,5.688,1.937,1.937,0,0,1,.507,2.7h0a1.94,1.94,0,0,1-2.7.5c-.884-.605-5.758-5-12.454-5.069-6.795-.072-12.237,4.811-12.237,4.811a1.941,1.941,0,0,1-2.726-.29h0a1.941,1.941,0,0,1,.307-2.74Z" transform="translate(-303.106 -365.723)" fill="#454545"/>
    </g>
    <g id="egFDSnEm7BK44_ts" transform="translate(757.45 3952.271)">
      <rect id="egFDSnEm7BK44" width="7.287" height="10.314" rx="3.644" fill="#454545"/>
    </g>
    <g id="egFDSnEm7BK46_ts" transform="translate(805.996 3951.26)">
      <rect id="egFDSnEm7BK46" width="7.287" height="10.314" rx="3.644" fill="#454545"/>
    </g>
    <path id="egFDSnEm7BK48" d="M207.467,281.319c1.613-4.565-13.167-13.526-13.167-13.526L198.43,262s12.4,13.054,15.829,8.785" transform="translate(544.318 3667.828)" fill="#dfdfdf" stroke="#1f415d" stroke-linecap="round" stroke-linejoin="round" stroke-width="3"/>
    <ellipse id="egFDSnEm7BK49" cx="12.945" cy="10.144" rx="12.945" ry="10.144" transform="matrix(0.577, -0.816, 0.816, 0.577, 727.552, 3940.128)" fill="#dfdfdf" stroke="#1f415d" stroke-linecap="round" stroke-linejoin="round" stroke-width="3.013"/>
    <path id="egFDSnEm7BK50" d="M189.87,269.452s5.955,2.222,10.276-3.933,2.027-8.66.452-11.119" transform="translate(547.466 3673.227)" fill="#dfdfdf" stroke="#1f415d" stroke-linecap="round" stroke-linejoin="round" stroke-width="3"/>
    <path id="egFDSnEm7BK52" d="M441.552,269.111c-1.471-4.614,13.581-13.117,13.581-13.117l-3.951-5.923s-12.8,12.663-16.092,8.289" transform="translate(373.27 3676.302)" fill="#dfdfdf" stroke="#1f415d" stroke-linecap="round" stroke-linejoin="round" stroke-width="3"/>
    <ellipse id="egFDSnEm7BK53" cx="10.1" cy="12.889" rx="10.1" ry="12.889" transform="matrix(0.834, -0.551, 0.551, 0.834, 808.638, 3926.73)" fill="#dfdfdf" stroke="#1f415d" stroke-linecap="round" stroke-linejoin="round" stroke-width="3"/>
    <path id="egFDSnEm7BK54" d="M477.508,257.28s-6.021,2.027-10.137-4.252-1.767-8.718-.107-11.128" transform="translate(351.969 3682.106)" fill="#dfdfdf" stroke="#1f415d" stroke-linecap="round" stroke-linejoin="round" stroke-width="3"/>
    <path id="egFDSnEm7BK56" d="M347.578,199.988c-4.753-.933-4.958-18.218-4.958-18.218l-7.1.611s4.938,17.314-.484,18.094" transform="translate(444.342 3724.82)" fill="#dfdfdf" stroke="#1f415d" stroke-linecap="round" stroke-linejoin="round" stroke-width="3"/>
    <ellipse id="egFDSnEm7BK57" cx="12.889" cy="10.1" rx="12.889" ry="10.1" transform="translate(770.916 3901.098) rotate(-4.68)" fill="#dfdfdf" stroke="#1f415d" stroke-linecap="round" stroke-linejoin="round" stroke-width="3"/>
    <path id="egFDSnEm7BK58" d="M339.288,190.36s-1.115,6.268-8.614,6.847-8.492-2.65-9.8-5.26" transform="translate(454.408 3718.718)" fill="#dfdfdf" stroke="#1f415d" stroke-linecap="round" stroke-linejoin="round" stroke-width="3"/>
    <path id="egFDSnEm7BK60" d="M463.783,400.68c-1.419,4.634,13.726,12.967,13.726,12.967l-3.887,5.966s-12.935-12.521-16.182-8.11" transform="translate(357.393 3569.314)" fill="#dfdfdf" stroke="#1f415d" stroke-linecap="round" stroke-linejoin="round" stroke-width="3"/>
    <ellipse id="egFDSnEm7BK61" cx="12.889" cy="10.1" rx="12.889" ry="10.1" transform="translate(815.197 3988.744) rotate(-57.17)" fill="#dfdfdf" stroke="#1f415d" stroke-linecap="round" stroke-linejoin="round" stroke-width="3"/>
    <path id="egFDSnEm7BK62" d="M499.871,420.189s-6.045-1.97-10.1,4.362-1.671,8.738,0,11.128" transform="translate(336.015 3555.661)" fill="#dfdfdf" stroke="#1f415d" stroke-linecap="round" stroke-linejoin="round" stroke-width="3"/>
    <path id="egFDSnEm7BK64" d="M203.267,414.32c2.508,4.142-10.137,15.93-10.137,15.93l5.213,4.837s9.486-15.3,13.711-11.817" transform="translate(545.149 3559.625)" fill="#dfdfdf" stroke="#1f415d" stroke-linecap="round" stroke-linejoin="round" stroke-width="3"/>
    <ellipse id="egFDSnEm7BK65" cx="10.1" cy="12.889" rx="10.1" ry="12.889" transform="translate(726.169 3987.851) rotate(-46.97)" fill="#dfdfdf" stroke="#1f415d" stroke-linecap="round" stroke-linejoin="round" stroke-width="3"/>
    <path id="egFDSnEm7BK66" d="M183.83,443.651s5.379-3.386,10.861,1.764,3.765,8.063,2.705,10.792" transform="translate(551.756 3539.565)" fill="#dfdfdf" stroke="#1f415d" stroke-linecap="round" stroke-linejoin="round" stroke-width="3"/>
    <g id="egFDSnEm7BK67" transform="translate(775.173 4003.838)">
      <path id="egFDSnEm7BK68" d="M342.47,517.956c4.747.953,4.875,18.247,4.875,18.247l7.1-.579s-4.857-17.337.579-18.093" transform="translate(-336.109 -517.53)" fill="#dfdfdf" stroke="#1f415d" stroke-linecap="round" stroke-linejoin="round" stroke-width="3"/>
      <ellipse id="egFDSnEm7BK69" cx="12.889" cy="10.1" rx="12.889" ry="10.1" transform="translate(0 6.077) rotate(-4.42)" fill="#dfdfdf" stroke="#1f415d" stroke-linecap="round" stroke-linejoin="round" stroke-width="3"/>
      <path id="egFDSnEm7BK70" d="M336.09,556.434s1.159-6.25,8.643-6.809,8.48,2.688,9.781,5.306" transform="translate(-331.577 -540.284)" fill="#dfdfdf" stroke="#1f415d" stroke-linecap="round" stroke-linejoin="round" stroke-width="3"/>
    </g>
  </g>
</svg>
