<svg id="Layer_1" data-name="Layer 1" xmlns="http://www.w3.org/2000/svg" viewBox="0 0 237.62 280.61"><defs><style>.cls-1{fill:#a3d100;}</style></defs><path class="cls-1" d="M209,3.81c2.14,1.22,2.86,3.1,2.84,5.5q-.08,14.65,0,29.3c0,4.3-.55,3.87,4,3.88,13.42,0,26.84,0,40.26,0,5.17,0,6.49,1.28,6.5,6.44q0,16.43,0,32.86a14.9,14.9,0,0,1-.05,1.64c-.33,3-2.16,4.92-4.58,4.77s-4.1-2.09-4.11-5.22c0-9.77-.08-19.54,0-29.3,0-2.2-.66-2.73-2.77-2.72-12,.1-23.92.13-35.88,0-2.69,0-3.5.56-3.49,3.41.1,49.66,0,99.32.13,149a10.18,10.18,0,0,1-3.32,7.93Q192.53,227,176.79,243a8.12,8.12,0,0,1-6.27,2.6c-27.48-.07-55,0-82.44-.11-2.7,0-3.63.59-3.56,3.45.19,8.12.12,16.25,0,24.38,0,2,.55,2.64,2.63,2.64q64.48-.09,129,0c2.32,0,2.65-.85,2.63-2.84-.09-8.85-.05-17.71,0-26.56,0-4.51,1.31-5.84,5.89-5.85,8.68,0,17.35-.09,26,0,2.45,0,3.23-.6,3.22-3.17q-.12-67.24-.05-134.47a15.54,15.54,0,0,1,.13-3.28c.46-2.16,1.71-3.63,4.12-3.63a3.82,3.82,0,0,1,4.2,3.46,20.85,20.85,0,0,1,.29,3.53q0,69.69.05,139.4a9.12,9.12,0,0,1-2.89,7q-16.19,16-32.16,32.14a8.06,8.06,0,0,1-6.24,2.64q-69.57-.1-139.13-.05c-5.17,0-6.39-1.23-6.4-6.46,0-9.77-.07-19.54.06-29.31,0-2.36-.55-3.11-3-3.08-13.78.12-27.57.06-41.35,0-5.15,0-6.46-1.29-6.46-6.47q0-35.61,0-71.21a17.58,17.58,0,0,1,.28-3,3.86,3.86,0,0,1,4.18-3.5c2.4,0,3.67,1.45,4.15,3.62a13.61,13.61,0,0,1,.13,3c0,22,0,44,0,66,0,2.32.46,3.09,3,3.08q64.08-.12,128.17,0c2.39,0,3.11-.58,3.06-3-.15-8.49-.06-17,0-25.47,0-5.36,1.28-6.67,6.53-6.67,8.49,0,17-.11,25.46.05,2.55.05,3.22-.71,3.22-3.2q-.12-45.33-.05-90.65V15.86c0-3.72,0-3.72-3.66-3.72H37.27c-3.84,0-3.46-.48-3.46,3.56q0,65.44,0,130.91a9.61,9.61,0,0,1-.41,4,4.06,4.06,0,0,1-4,2.71,3.86,3.86,0,0,1-3.92-3.18,16.07,16.07,0,0,1-.37-3.52q0-68.2,0-136.39c0-2.57.36-4.9,2.68-6.47Zm37.85,245.51H228.61c-.77,0-1.24.35-1.25,1.11,0,6.17,0,12.33,0,18.33Zm-50.12-38.89c-6.42,0-12.4,0-18.38,0-1.71,0-1.62,1-1.62,2.16,0,4.64,0,9.29,0,13.94,0,1.17-.35,2.44.31,3.59Z" transform="translate(-25.02 -3.81)"/><path class="cls-1" d="M167.51,95c.25-26.92-20.57-49.51-47.57-51.8a51,51,0,0,0-32.75,8.24c-.46.29-.91.6-1.39.87-2.57,1.46-4.87,1.08-6.26-1s-.81-4.53,1.54-6.16a57.49,57.49,0,0,1,29.47-10.62c20.18-1.33,37.26,5.49,50.76,20.66,21.55,24.24,19.42,62.18-4.53,84.11C145,150,131.1,155.59,115.26,155.46c-28.21-.24-51.81-19.07-58.51-46.63-4.45-18.34-.59-35.24,10.54-50.46,1.69-2.32,4.17-2.83,6.2-1.48,2.19,1.46,2.61,3.92.77,6.46A54.62,54.62,0,0,0,64.3,87c-3.51,21.7,8.16,44.53,27.88,54.17,28.84,14.08,62.07.45,72.7-29.84A49.26,49.26,0,0,0,167.51,95Z" transform="translate(-25.02 -3.81)"/><path class="cls-1" d="M151.05,79.81a10.74,10.74,0,0,1-3.47,8c-10.55,10.6-21.07,21.24-31.75,31.71-5,5-11.49,4.84-16.59-.1S88.83,109.24,83.76,104C79,99,79,92.17,83.56,87.61s11.11-4.47,16.17.22a77.54,77.54,0,0,1,5.8,5.81c1.48,1.69,2.46,1.72,4.08,0,7-7.19,14.19-14.2,21.23-21.34,3.27-3.31,7.09-4.8,11.64-3.78A11.13,11.13,0,0,1,151.05,79.81ZM91.84,93.13a2.42,2.42,0,0,0-2.69,1.41c-.67,1.48,0,2.64,1,3.67q7.16,7.16,14.32,14.32c2.62,2.61,3.66,2.6,6.35-.09q14.81-14.79,29.59-29.6c.38-.39.78-.77,1.13-1.19,1.06-1.27,1.35-2.62.11-3.9s-2.61-1.1-3.89,0c-.62.53-1.19,1.12-1.77,1.7Q123.72,91.74,111.42,104c-2.64,2.63-4.93,2.64-7.56.07-3.14-3-6.2-6.18-9.3-9.27C93.78,94,93.06,93.19,91.84,93.13Z" transform="translate(-25.02 -3.81)"/><path class="cls-1" d="M119.43,168.63h49c4.34,0,6.65,1.57,6.6,4.45s-2.35,4.37-6.72,4.37H70.58a15.52,15.52,0,0,1-2.73-.15c-2.48-.47-4.13-2.36-4-4.46a4.68,4.68,0,0,1,4.4-4.15,20.16,20.16,0,0,1,2.46-.05Z" transform="translate(-25.02 -3.81)"/><path class="cls-1" d="M103.56,196.71H69.87a10.14,10.14,0,0,1-2.71-.2,4,4,0,0,1-3.26-4.2,3.88,3.88,0,0,1,3.43-4,20,20,0,0,1,3.26-.29h65.73a23.89,23.89,0,0,1,3.27.26,3.86,3.86,0,0,1,3.51,4.2,4.09,4.09,0,0,1-3.67,4.14,15.52,15.52,0,0,1-2.73.09Z" transform="translate(-25.02 -3.81)"/></svg>