<svg xmlns="http://www.w3.org/2000/svg" width="151.027" height="112.212" viewBox="0 0 151.027 112.212">
  <g id="Group_107" data-name="Group 107" transform="translate(-1307.164 -3933.4)">
    <path id="Path_249" data-name="Path 249" d="M147.544,66.762a7.617,7.617,0,0,0,.317-1.35c.567-4.039,2.072-22.436-15.744-30.813-20.077-9.442-27.958-29.144-47.142-6.159C66.055,51.113,62.322,11.895,33.118,42.119A4.877,4.877,0,0,1,30.349,43.6c-5.437.82-23.345,5.24-21.07,27.735,1.981,19.587-2.714,27.043-5.29,29.6a7.225,7.225,0,0,0-1.862,6.376c.4,2.116,1.711,4.034,5.218,3.844,7.029-.38,120.585-2.172,137.18-2.431a5.323,5.323,0,0,0,4.741-3.783c1.243-3.432,1.384-9.608-4.21-20.057C145.054,84.882,142.882,80.684,147.544,66.762Z" transform="translate(1306.698 3930.886)" fill="#efefef" stroke="#1f415d" stroke-miterlimit="10" stroke-width="3"/>
    <path id="Path_250" data-name="Path 250" d="M114.211,118.2v3.031c14.323,8.509,31.212-1.494,32.114-2.937s-.9-12.342-.9-12.342Z" transform="translate(1292.156 3919.452)" fill="#fff" stroke="#1f415d" stroke-miterlimit="10" stroke-width="3"/>
    <path id="Path_251" data-name="Path 251" d="M115.438,107.6a12.71,12.71,0,1,0-13.153-12.7A12.933,12.933,0,0,0,115.438,107.6Z" transform="translate(1293.702 3922.53)" fill="#fff" stroke="#1f415d" stroke-miterlimit="10" stroke-width="3"/>
    <path id="Path_252" data-name="Path 252" d="M114.221,106.513l-1.711,3.965-9.279-2.522,1.288-3.557Z" transform="translate(1293.58 3919.653)" fill="#fff" stroke="#1f415d" stroke-miterlimit="10" stroke-width="3"/>
    <path id="Path_253" data-name="Path 253" d="M144.871,100.2s1.8,10.9.9,12.342-17.927,12.161-30.449,4.054.72-23.693.72-23.693,8.108,9.279,19.279-9.008Z" transform="translate(1292.711 3922.311)" fill="#dfdfdf" stroke="#1f415d" stroke-miterlimit="10" stroke-width="3"/>
    <path id="Path_254" data-name="Path 254" d="M147.824,104.88l1.711,3.965,9.279-2.522-1.29-3.557Z" transform="translate(1287.801 3919.865)" fill="#fff" stroke="#1f415d" stroke-miterlimit="10" stroke-width="3"/>
    <path id="Path_255" data-name="Path 255" d="M148.891,101.73a12.71,12.71,0,1,0-13.153-12.7A12.934,12.934,0,0,0,148.891,101.73Z" transform="translate(1289.367 3923.291)" fill="#fff" stroke="#1f415d" stroke-miterlimit="10" stroke-width="3"/>
    <path id="Path_256" data-name="Path 256" d="M151.7,100.224s.906,4.114,0,4.423" transform="translate(1287.299 3920.194)" fill="none" stroke="#1f415d" stroke-miterlimit="10" stroke-width="3"/>
    <path id="Path_257" data-name="Path 257" d="M156.395,99.4s.905,4.115,0,4.423" transform="translate(1286.69 3920.302)" fill="none" stroke="#1f415d" stroke-miterlimit="10" stroke-width="3"/>
    <path id="Path_258" data-name="Path 258" d="M94.548,20.168l3.334-.631c7.657,27.206,26.395,30.72,26.395,30.72,1.532,17.927,9.911,21.441,9.911,21.441-10.72,21.261-20.539,17.027-21.081,11.8s5.765-10.45,5.765-10.45L115.9,65.392c-22.792,3.963-26.575-9.368-26.575-9.368S82.117,43.59,94.548,20.168Z" transform="translate(1295.651 3930.65)" fill="#fff" stroke="#1f415d" stroke-miterlimit="10" stroke-width="3"/>
    <path id="Path_259" data-name="Path 259" d="M84.9,19.952c0-15.067,47.7-31.392,60.245-.109a18.321,18.321,0,0,1,1.045,9.788l-1.539,9.363a10.349,10.349,0,0,0,1.1,6.586c1.985,3.688,4.422,11.232.165,22.272-5.312,13.78-16.882-2.215-20.221-7.3a9.127,9.127,0,0,1-1.266-2.975l-.949-4.165a6.6,6.6,0,0,0-4.15-4.717c-5.539-2.057-16.635-8.5-21.786-27.874a2.4,2.4,0,0,0-4.6-.143L86.76,39.44a.255.255,0,0,1-.466.046c-1.03-1.821-4.319-8.522-1.884-16.225a10.672,10.672,0,0,0,.494-3.215v-.095Z" transform="translate(1296.133 3932.923)" fill="#454545" stroke="#1f415d" stroke-miterlimit="10" stroke-width="3"/>
    <path id="Path_260" data-name="Path 260" d="M104.329,53.449a8.769,8.769,0,0,1-4.943,2.283c-2.623.137-5.355-1.938-5.355-1.938a.514.514,0,0,1,.529-.882,8.048,8.048,0,0,0,4.8,1.791,7.648,7.648,0,0,0,4.323-2.057.514.514,0,0,1,.642.8Z" transform="translate(1294.805 3926.374)" fill="#454545" stroke="#1f415d" stroke-miterlimit="10" stroke-width="1"/>
    <path id="Path_261" data-name="Path 261" d="M108.359,49.9a1.258,1.258,0,0,1-1.285-1.231l-.036-1.585a1.258,1.258,0,0,1,2.515-.054l.036,1.585A1.259,1.259,0,0,1,108.359,49.9Z" transform="translate(1293.086 3927.247)" fill="#454545" stroke="#1f415d" stroke-miterlimit="10" stroke-width="1"/>
    <path id="Path_262" data-name="Path 262" d="M91.441,48.485a1.258,1.258,0,0,1-1.285-1.231l-.035-1.585a1.258,1.258,0,0,1,2.515-.054l.035,1.585A1.257,1.257,0,0,1,91.441,48.485Z" transform="translate(1295.278 3927.43)" fill="#454545" stroke="#1f415d" stroke-miterlimit="10" stroke-width="1"/>
    <path id="Path_263" data-name="Path 263" d="M110.258,100.431s-.906,4.115,0,4.423" transform="translate(1292.721 3920.167)" fill="none" stroke="#1f415d" stroke-miterlimit="10" stroke-width="3"/>
    <path id="Path_264" data-name="Path 264" d="M105.559,99.6s-.906,4.115,0,4.423" transform="translate(1293.33 3920.275)" fill="none" stroke="#1f415d" stroke-miterlimit="10" stroke-width="3"/>
    <path id="Path_265" data-name="Path 265" d="M102.539,21.008s8.03.6,13.338,18.567a10.285,10.285,0,0,0,2.04,3.764c2.608,3.057,8.368,8.787,15.77,10.038,0,0-6.42,1.847-9.608-.793" transform="translate(1293.669 3930.459)" fill="none" stroke="#1f415d" stroke-miterlimit="10" stroke-width="3"/>
    <path id="Path_266" data-name="Path 266" d="M146.6,27.632S105.1,7.552,85.283,21.726l-.408,2.3c.88-.479,18.434-10.825,61.713,5.481Z" transform="translate(1295.958 3931.023)" fill="#fff" stroke="#1f415d" stroke-miterlimit="10" stroke-width="3"/>
    <path id="Path_267" data-name="Path 267" d="M96.349,16.542a4.131,4.131,0,0,0,3.9-4.325,3.924,3.924,0,1,0-7.807,0A4.13,4.13,0,0,0,96.349,16.542Z" transform="translate(1294.978 3932.159)" fill="#fff" stroke="#1f415d" stroke-miterlimit="10" stroke-width="3"/>
    <path id="Path_268" data-name="Path 268" d="M96.608,14.9a2.285,2.285,0,0,0,2.159-2.393,2.17,2.17,0,1,0-4.317,0A2.285,2.285,0,0,0,96.608,14.9Z" transform="translate(1294.718 3931.872)" fill="#fff" stroke="#1f415d" stroke-miterlimit="10" stroke-width="3"/>
    <path id="Path_269" data-name="Path 269" d="M111.5,16s6.131-8.848,7.3-4.074l-5.045,4.234Z" transform="translate(1292.508 3931.82)" fill="#fff" stroke="#1f415d" stroke-miterlimit="10" stroke-width="3"/>
    <path id="Path_270" data-name="Path 270" d="M85.809,21.192s5.19-8.537,6.142-4.655l-4.1,3.441Z" transform="translate(1295.838 3931.17)" fill="#fff" stroke="#1f415d" stroke-miterlimit="10" stroke-width="3"/>
    <path id="Path_271" data-name="Path 271" d="M116.984,16.615s6.131-8.848,7.3-4.074l-5.045,4.234Z" transform="translate(1291.798 3931.74)" fill="#fff" stroke="#1f415d" stroke-miterlimit="10" stroke-width="3"/>
    <path id="Path_272" data-name="Path 272" d="M51.4,121.075H33.559a14.794,14.794,0,0,1-14.794-14.794V94.567A12.314,12.314,0,0,1,31.08,82.253H51.665A15.788,15.788,0,0,1,67.453,98.041v6.983A16.052,16.052,0,0,1,51.4,121.075Z" transform="translate(1304.525 3922.523)" fill="#fff" stroke="#1f415d" stroke-miterlimit="10" stroke-width="3"/>
    <path id="Path_273" data-name="Path 273" d="M50.842,79.532s4.327-.366,4.891,5.119a12.626,12.626,0,0,0,.78,3.9,4.322,4.322,0,0,1,.373,3.128,5.011,5.011,0,0,1-2.894,3.486s-3.334-3.941-6.769-2.859a.509.509,0,0,1-.613-.733C48.436,88.6,51.738,82.616,50.842,79.532Z" transform="translate(1300.927 3922.876)" fill="#dfdfdf" stroke="#1f415d" stroke-miterlimit="10" stroke-width="3"/>
    <path id="Path_274" data-name="Path 274" d="M35.229,79.532s-4.327-.366-4.891,5.119a12.624,12.624,0,0,1-.78,3.9,4.322,4.322,0,0,0-.373,3.128,5.01,5.01,0,0,0,2.894,3.486s3.334-3.941,6.77-2.859a.509.509,0,0,0,.613-.733C37.633,88.6,34.333,82.616,35.229,79.532Z" transform="translate(1303.193 3922.876)" fill="#dfdfdf" stroke="#1f415d" stroke-miterlimit="10" stroke-width="3"/>
    <path id="Path_275" data-name="Path 275" d="M58,89.894a4.321,4.321,0,0,1,.373,3.128Z" transform="translate(1299.441 3921.533)" fill="#fff"/>
    <path id="Path_276" data-name="Path 276" d="M58,89.894a4.321,4.321,0,0,1,.373,3.128" transform="translate(1299.441 3921.533)" fill="none" stroke="#1f415d" stroke-miterlimit="10" stroke-width="3"/>
    <path id="Path_277" data-name="Path 277" d="M39.171,55.691l-8.85-5.778,6.834-23.585,13.7-7.412a23.736,23.736,0,0,1,0,47.47L48.032,76.441s-.47,10.879-2.539,11.336S35.334,82.932,35.146,71.14L37.2,62l2.007-6.309" transform="translate(1303.028 3930.731)" fill="#fff"/>
    <path id="Path_278" data-name="Path 278" d="M39.171,55.691l-8.85-5.778,6.834-23.585,13.7-7.412a23.736,23.736,0,0,1,0,47.47L48.032,76.441s-.47,10.879-2.539,11.336S35.334,82.932,35.146,71.14L37.2,62l2.007-6.309" transform="translate(1303.028 3930.731)" fill="none" stroke="#1f415d" stroke-miterlimit="10" stroke-width="3"/>
    <path id="Path_279" data-name="Path 279" d="M57.812,6.028c5.13-2.836,12.256-4.557,12.971,7.135,0,0,2.07,8.227-20.316,7.13S45.952,41.5,45.952,41.5s1.88,5.485-3.386,2.56-12.416,3.107-4.891,9.689c0,0-20.5-.548-18.811-26.328C20.051,9.366,36.1,7.9,45.6,8.647A21.743,21.743,0,0,0,57.812,6.028Z" transform="translate(1304.525 3932.67)" fill="#454545" stroke="#1f415d" stroke-miterlimit="10" stroke-width="3"/>
    <path id="Path_280" data-name="Path 280" d="M59.125,47.753a9.39,9.39,0,0,0,5.669.423c2.617-.8,4.536-3.736,4.536-3.736a.511.511,0,0,0-.085-.733.546.546,0,0,0-.754.082,8.3,8.3,0,0,1-4.048,3.4,8.191,8.191,0,0,1-4.978-.427.538.538,0,0,0-.677.332A.513.513,0,0,0,59.125,47.753Z" transform="translate(1299.343 3927.533)" fill="#454545" stroke="#1f415d" stroke-miterlimit="10" stroke-width="1"/>
    <path id="Path_281" data-name="Path 281" d="M55.123,45.8a1.268,1.268,0,0,0,.809-1.624l-.544-1.52a1.323,1.323,0,0,0-1.671-.787,1.268,1.268,0,0,0-.809,1.624l.544,1.52A1.324,1.324,0,0,0,55.123,45.8Z" transform="translate(1300.11 3927.766)" fill="#454545" stroke="#1f415d" stroke-miterlimit="10" stroke-width="1"/>
    <path id="Path_282" data-name="Path 282" d="M71.162,38.467a1.268,1.268,0,0,0,.809-1.624l-.544-1.52a1.323,1.323,0,0,0-1.671-.787,1.268,1.268,0,0,0-.809,1.624l.544,1.52A1.321,1.321,0,0,0,71.162,38.467Z" transform="translate(1298.031 3928.716)" fill="#454545" stroke="#1f415d" stroke-miterlimit="10" stroke-width="1"/>
    <path id="Path_283" data-name="Path 283" d="M24.4,87.247,30.557,120.5" transform="translate(1303.795 3921.876)" fill="none" stroke="#1f415d" stroke-miterlimit="10" stroke-width="3"/>
    <path id="Path_284" data-name="Path 284" d="M61.363,85.673l6.155,31.477" transform="translate(1299.005 3922.08)" fill="none" stroke="#1f415d" stroke-miterlimit="10" stroke-width="3"/>
    <path id="Path_285" data-name="Path 285" d="M49.326,106.577s-1,10.352-.069,13.262a16.8,16.8,0,0,0,5.1,2.893,21.389,21.389,0,0,0,2.38-5.317s-4.241-8.216-6.094-11.238S49.326,106.577,49.326,106.577Z" transform="translate(1300.625 3919.584)" fill="#dfdfdf" stroke="#1f415d" stroke-miterlimit="10" stroke-width="3"/>
    <path id="Path_286" data-name="Path 286" d="M48.929,103.651s-3.631-.663-4.063-2.427,3.423-3.452,5.028-2.654S49.4,102.994,48.929,103.651Z" transform="translate(1301.147 3920.435)" fill="#dfdfdf" stroke="#1f415d" stroke-miterlimit="10" stroke-width="3"/>
    <path id="Path_287" data-name="Path 287" d="M88.51,87.121h-.039a3.668,3.668,0,0,0-1.2.212,4.107,4.107,0,0,0-1.132.629,7.013,7.013,0,0,0-1.689,2.031,15.131,15.131,0,0,0,0,13.866,7.878,7.878,0,0,0,1.242,1.639,5.124,5.124,0,0,0,.481.413,4.239,4.239,0,0,0,.6.387,3.619,3.619,0,0,0,.51.221,3.445,3.445,0,0,0,.681.171,3.643,3.643,0,0,0,.553.043q2.378,0,4.065-2.873a15.131,15.131,0,0,0,0-13.866,6.385,6.385,0,0,0-2.146-2.341A3.708,3.708,0,0,0,88.51,87.121Zm-1.271,1.26a3.281,3.281,0,0,1,1.106-.247c.056,0,.111,0,.165,0q2.136,0,3.644,2.574a13.558,13.558,0,0,1,0,12.44q-1.506,2.579-3.644,2.578a3.328,3.328,0,0,1-.613-.056,3.048,3.048,0,0,1-.622-.184,3.276,3.276,0,0,1-.481-.233,4.2,4.2,0,0,1-.626-.46,6.656,6.656,0,0,1-1.3-1.647,13.559,13.559,0,0,1,0-12.44A5.2,5.2,0,0,1,87.239,88.381Z" transform="translate(1296.231 3921.892)" fill="#dbdbdb"/>
    <path id="Path_288" data-name="Path 288" d="M88.5,106.768a3.74,3.74,0,0,1-.561-.043,3.431,3.431,0,0,1-.689-.172,3.9,3.9,0,0,1-.516-.223,4.071,4.071,0,0,1-.6-.392,5.338,5.338,0,0,1-.484-.415,7.845,7.845,0,0,1-1.249-1.649,15.171,15.171,0,0,1,0-13.907,7.12,7.12,0,0,1,1.7-2.042,4.19,4.19,0,0,1,1.143-.637,3.65,3.65,0,0,1,.655-.167,4.028,4.028,0,0,1,.564-.048H88.5a3.746,3.746,0,0,1,1.942.538,6.483,6.483,0,0,1,2.161,2.355,15.172,15.172,0,0,1,0,13.907C91.478,105.794,90.1,106.768,88.5,106.768Zm-.039-19.61a3.616,3.616,0,0,0-.551.046,3.786,3.786,0,0,0-.639.163,4.079,4.079,0,0,0-1.121.624,7.025,7.025,0,0,0-1.678,2.018,15.1,15.1,0,0,0,0,13.821,7.833,7.833,0,0,0,1.236,1.629,4.918,4.918,0,0,0,.477.408,4.169,4.169,0,0,0,.59.385,3.637,3.637,0,0,0,.5.218,3.37,3.37,0,0,0,.674.169,3.571,3.571,0,0,0,.548.043c1.563,0,2.918-.959,4.028-2.851a15.1,15.1,0,0,0,0-13.821A6.376,6.376,0,0,0,90.4,87.685a3.664,3.664,0,0,0-1.9-.525h-.043Zm.039,18.6a3.49,3.49,0,0,1-.62-.055,3.186,3.186,0,0,1-.629-.186,3.275,3.275,0,0,1-.486-.238,4.222,4.222,0,0,1-.633-.464,6.676,6.676,0,0,1-1.31-1.657,13.6,13.6,0,0,1,0-12.483,5.255,5.255,0,0,1,2.391-2.341,3.315,3.315,0,0,1,1.121-.25c.056,0,.113,0,.167,0,1.433,0,2.671.872,3.679,2.595a13.6,13.6,0,0,1,0,12.483C91.175,104.884,89.937,105.76,88.5,105.76Zm0-17.593c-.054,0-.109,0-.163,0a3.283,3.283,0,0,0-1.091.243A5.174,5.174,0,0,0,84.9,90.72a13.512,13.512,0,0,0,0,12.4,6.667,6.667,0,0,0,1.294,1.637,4.1,4.1,0,0,0,.62.454,3.11,3.11,0,0,0,.475.23,3.009,3.009,0,0,0,.614.18,3.248,3.248,0,0,0,.605.054c1.4,0,2.615-.861,3.607-2.558a13.51,13.51,0,0,0,0-12.4C91.118,89.025,89.9,88.168,88.5,88.168Z" transform="translate(1296.238 3921.898)" fill="#454545"/>
    <path id="Path_289" data-name="Path 289" d="M88.943,88.284a3.28,3.28,0,0,0-1.106.247,5.7,5.7,0,0,1,1.932,2.1,13.559,13.559,0,0,1,0,12.44,5.739,5.739,0,0,1-1.893,2.08,3.288,3.288,0,0,1-.481.247,3.288,3.288,0,0,0,.481.234,3.228,3.228,0,0,0,.622.184,6.984,6.984,0,0,0,1.693-2.031,13.5,13.5,0,0,0,1.682-6.933,15.722,15.722,0,0,0-.481-4,15.732,15.732,0,0,1,.481,4,13.5,13.5,0,0,1-1.682,6.933A7.041,7.041,0,0,1,88.5,105.82a3.33,3.33,0,0,0,.613.056q2.136,0,3.644-2.578a13.559,13.559,0,0,0,0-12.44q-1.506-2.575-3.644-2.575a1.659,1.659,0,0,0-.167,0,5.67,5.67,0,0,1,.468.51A6.265,6.265,0,0,0,88.943,88.284Zm1.114,1.422c.035.056.069.113.1.171C90.127,89.818,90.092,89.762,90.056,89.706Z" transform="translate(1295.632 3921.742)" fill="#cccbcb" opacity="0.976"/>
    <path id="Path_290" data-name="Path 290" d="M89.095,105.911a3.642,3.642,0,0,1-.6-.052l-.019,0-.093-.017,0,0a3.041,3.041,0,0,1-.538-.167,3.357,3.357,0,0,1-.486-.237l-.074-.044.08-.033a3.47,3.47,0,0,0,.475-.243,5.745,5.745,0,0,0,1.88-2.066,13.511,13.511,0,0,0,0-12.4A5.682,5.682,0,0,0,87.8,88.565l-.074-.043.078-.033a3.361,3.361,0,0,1,1.025-.245l0,0,.072,0a.126.126,0,0,0,.026,0c.056,0,.113,0,.167,0,1.433,0,2.671.872,3.679,2.595a13.6,13.6,0,0,1,0,12.483C91.768,105.035,90.53,105.911,89.095,105.911Zm-.51-.124a3.322,3.322,0,0,0,.51.039c1.4,0,2.615-.862,3.607-2.558a13.511,13.511,0,0,0,0-12.4c-.991-1.695-2.205-2.554-3.607-2.554H89.03a5.855,5.855,0,0,1,.4.445l-.065.054a5.8,5.8,0,0,0-.451-.494,3.264,3.264,0,0,0-.995.212,5.864,5.864,0,0,1,1.873,2.073,13.6,13.6,0,0,1,0,12.483,5.808,5.808,0,0,1-1.908,2.1,3.235,3.235,0,0,1-.408.215,3.483,3.483,0,0,0,.4.19,2.987,2.987,0,0,0,.594.177,7.032,7.032,0,0,0,1.669-2.007,13.511,13.511,0,0,0,1.674-6.91,15.839,15.839,0,0,0-.479-3.994l.082-.022a15.9,15.9,0,0,1,.483,4.015,13.6,13.6,0,0,1-1.687,6.953A7.181,7.181,0,0,1,88.584,105.787Zm1.524-15.895c-.032-.058-.067-.113-.1-.169l.072-.046c.035.056.07.113.1.173Z" transform="translate(1295.646 3921.748)" fill="#454545"/>
    <path id="Path_291" data-name="Path 291" d="M85.474,86.884a.284.284,0,0,1-.039,0c-.117-.009-.234-.013-.353-.013q-2.378,0-4.065,2.873a15.13,15.13,0,0,0,0,13.865q1.5,2.554,3.545,2.838h.017a3.4,3.4,0,0,0,.442.033l2.489.178a3.326,3.326,0,0,1-.681-.171,3.72,3.72,0,0,1-.51-.221,4.239,4.239,0,0,1-.6-.387,5.131,5.131,0,0,1-.481-.413A7.752,7.752,0,0,1,84,103.825,15.131,15.131,0,0,1,84,89.96a7.067,7.067,0,0,1,1.689-2.031,4.058,4.058,0,0,1,1.132-.629,3.58,3.58,0,0,1,.646-.165,3.676,3.676,0,0,1,.557-.046Z" transform="translate(1296.676 3921.925)" fill="#fff"/>
    <path id="Path_292" data-name="Path 292" d="M87.5,106.693l-2.489-.178a3.532,3.532,0,0,1-.44-.033h-.02a5.15,5.15,0,0,1-3.577-2.858,15.172,15.172,0,0,1,0-13.907c1.127-1.919,2.506-2.894,4.1-2.894.119,0,.238,0,.356.013a.131.131,0,0,0,.035,0h0l2.554.2,0,.085a3.609,3.609,0,0,0-.551.046,3.8,3.8,0,0,0-.639.163,4.08,4.08,0,0,0-1.121.624,7.027,7.027,0,0,0-1.678,2.018,15.1,15.1,0,0,0,0,13.822,7.863,7.863,0,0,0,1.236,1.629,4.9,4.9,0,0,0,.477.408,4.162,4.162,0,0,0,.59.385,3.635,3.635,0,0,0,.5.218,3.368,3.368,0,0,0,.674.169Zm-2.935-.3h.011a3.476,3.476,0,0,0,.438.033l1.934.139c-.048-.015-.095-.031-.141-.048a4.016,4.016,0,0,1-.516-.223,4.069,4.069,0,0,1-.6-.392,5.225,5.225,0,0,1-.484-.416,7.821,7.821,0,0,1-1.249-1.649,15.171,15.171,0,0,1,0-13.906,7.119,7.119,0,0,1,1.7-2.042,4.193,4.193,0,0,1,1.143-.637,3.65,3.65,0,0,1,.655-.167l.032-.006-2.021-.161a.123.123,0,0,1-.046-.006c-.109-.007-.226-.011-.343-.011-1.563,0-2.918.96-4.028,2.851a15.1,15.1,0,0,0,0,13.822,5.079,5.079,0,0,0,3.514,2.818Z" transform="translate(1296.683 3921.931)" fill="#454545"/>
    <path id="Path_293" data-name="Path 293" d="M88.053,106.772a3.721,3.721,0,0,1-.561-.041l-2.487-.18a4.1,4.1,0,0,1-.449-.031l-.017,0a5.19,5.19,0,0,1-3.608-2.88,15.219,15.219,0,0,1,0-13.951c1.134-1.934,2.526-2.914,4.137-2.914.121,0,.241.006.36.015a.325.325,0,0,0,.039,0l2.55.2h.032a3.8,3.8,0,0,1,1.962.544,6.519,6.519,0,0,1,2.175,2.37,15.219,15.219,0,0,1,0,13.952C91.057,105.792,89.665,106.772,88.053,106.772Zm-.538-.21a3.78,3.78,0,0,0,.538.038c1.546,0,2.888-.952,3.991-2.831a15.059,15.059,0,0,0,0-13.78,6.34,6.34,0,0,0-2.114-2.311,3.626,3.626,0,0,0-1.877-.52h-.037a3.508,3.508,0,0,0-.544.046,3.691,3.691,0,0,0-.629.161,4,4,0,0,0-1.108.616,6.952,6.952,0,0,0-1.671,2.007,15.059,15.059,0,0,0,0,13.78,7.775,7.775,0,0,0,1.231,1.621,4.646,4.646,0,0,0,.471.408,4.017,4.017,0,0,0,.587.377,3.781,3.781,0,0,0,.5.219A3.456,3.456,0,0,0,87.515,106.563ZM85.07,86.94c-1.546,0-2.888.952-3.991,2.831a15.059,15.059,0,0,0,0,13.781,5.032,5.032,0,0,0,3.484,2.8l.017,0a3.744,3.744,0,0,0,.434.031l1.622.117a3.834,3.834,0,0,1-.366-.171,4.309,4.309,0,0,1-.611-.393,5.074,5.074,0,0,1-.486-.421,7.917,7.917,0,0,1-1.258-1.656,15.219,15.219,0,0,1,0-13.952,7.154,7.154,0,0,1,1.713-2.055,4.177,4.177,0,0,1,1.156-.642,3.979,3.979,0,0,1,.384-.115l-1.713-.135-.043-.006C85.3,86.946,85.185,86.94,85.07,86.94Zm2.983,18.824a3.367,3.367,0,0,1-1.264-.244,3.628,3.628,0,0,1-.49-.241s0,0,0,0a4.4,4.4,0,0,1-.64-.467,6.741,6.741,0,0,1-1.32-1.669,13.645,13.645,0,0,1,0-12.525,5.3,5.3,0,0,1,2.411-2.359A3.324,3.324,0,0,1,87.884,88c.056,0,.111,0,.167,0,1.45,0,2.7.88,3.716,2.617a13.644,13.644,0,0,1,0,12.525C90.754,104.881,89.5,105.764,88.053,105.764Zm-.406-.2a3.331,3.331,0,0,0,.408.023c1.385,0,2.586-.854,3.569-2.537a13.468,13.468,0,0,0,0-12.353c-.974-1.667-2.164-2.517-3.534-2.532.113.119.225.243.332.375a.086.086,0,0,1-.132.109,6.411,6.411,0,0,0-.432-.477,3.248,3.248,0,0,0-.885.178A6.008,6.008,0,0,1,88.788,90.4a13.646,13.646,0,0,1,0,12.526,5.859,5.859,0,0,1-1.923,2.112c-.109.066-.221.126-.332.179a3.3,3.3,0,0,0,.321.149,3.178,3.178,0,0,0,.57.169,7.034,7.034,0,0,0,1.641-1.982,13.48,13.48,0,0,0,1.669-6.891,15.72,15.72,0,0,0-.479-3.982.085.085,0,0,1,.165-.043,15.88,15.88,0,0,1,.484,4.024,13.646,13.646,0,0,1-1.693,6.976A7.459,7.459,0,0,1,87.647,105.568Zm-.872-17.137A5.183,5.183,0,0,0,84.484,90.7a13.467,13.467,0,0,0,0,12.353,6.556,6.556,0,0,0,1.285,1.626,4.082,4.082,0,0,0,.577.429,3.55,3.55,0,0,0,.427-.223,5.721,5.721,0,0,0,1.865-2.053,13.467,13.467,0,0,0,0-12.353A5.7,5.7,0,0,0,86.774,88.431Zm2.333,1.335a.083.083,0,0,1-.072-.041c-.033-.058-.069-.113-.1-.169a.085.085,0,1,1,.145-.089c.033.056.069.113.1.171a.085.085,0,0,1-.03.117A.086.086,0,0,1,89.108,89.766Z" transform="translate(1296.688 3921.938)" fill="#454545"/>
    <path id="Path_294" data-name="Path 294" d="M85.384,82.816l-2-1.58,3.285,3.92.329.256Zm.548-2.255-1.426-1.129-1.123,1.8,2,1.58ZM89.4,80.3l.715-1.281-3.022-.54-2.584.948,1.426,1.129Z" transform="translate(1296.151 3923.012)" fill="#cccbcb"/>
    <path id="Path_295" data-name="Path 295" d="M87.115,85.584l-.522-.408-3.282-3.917-.026-.02,0-.006-.247-.293.288.227,1.078-1.732-.03-.024.058-.02.017-.028.019.015,2.571-.945.011,0,3.079.551-.756,1.353-.022,0-3.434.252L85.384,82.8Zm-.46-.466.136.106-1.483-2.387-1.669-1.318Zm-3.26-3.9,1.918,1.515.527-2.164-1.366-1.082Zm1.155-1.782L85.9,80.509l3.425-.252L90,79.048l-2.951-.527Z" transform="translate(1296.195 3923.019)" fill="#454545"/>
    <path id="Path_296" data-name="Path 296" d="M87.295,85.491l.791-.059,2.446-2.89-4.852.353Zm3.239-2.95-.839-2.157-3.464.256L85.682,82.9ZM90.411,79.1,89.7,80.384l.839,2.157,1-1.8Z" transform="translate(1295.854 3922.931)" fill="#fff"/>
    <path id="Path_297" data-name="Path 297" d="M87.259,85.523l-1.613-2.6-.033,0,.009-.039-.028-.045.039,0,.549-2.255.032,0,3.441-.254.737-1.322,1.177,1.717-.975,1.754.022,0-.048.058.011.03-.035,0-.033.059-.007-.019L88.09,85.456Zm-1.516-2.6,1.563,2.515.748-.056,2.37-2.8Zm.51-2.253-.527,2.168,4.735-.345-.806-2.075Zm3.477-.291.8,2.055.943-1.7L90.4,79.171Z" transform="translate(1295.865 3922.944)" fill="#454545"/>
    <path id="Path_298" data-name="Path 298" d="M86.983,85.483a.05.05,0,0,1-.017,0l0,0a.143.143,0,0,1-.033-.017l-.327-.254a.042.042,0,0,1-.013-.013l-3.284-3.918a.052.052,0,0,1-.009-.013.079.079,0,0,1-.011-.041.163.163,0,0,1,0-.03.058.058,0,0,1,.009-.019l1.123-1.8,0,0a.083.083,0,0,1,.043-.033l2.582-.948a.074.074,0,0,1,.045,0l3.02.54a.153.153,0,0,1,.028.009.087.087,0,0,1,.03.028L91.293,80.6a.081.081,0,0,1,0,.089l-1,1.8-.007.011,0,0-2.446,2.89a.088.088,0,0,1-.059.03l-.791.059Zm-1.466-2.606,1.511,2.433.705-.054,2.292-2.708ZM83.966,81.8,86.6,84.946l-1.3-2.088Zm2.02-1.175-.507,2.081,4.62-.336-.774-1.992Zm-2.5.577,1.836,1.45.5-2.073-1.309-1.036Zm5.994-.906.757,1.951.887-1.6L90.1,79.172Zm-4.811-.852,1.281,1.014,3.386-.249.635-1.136-2.881-.516Z" transform="translate(1296.164 3923.024)" fill="#454545"/>
  </g>
</svg>
