<svg xmlns="http://www.w3.org/2000/svg" width="142.49" height="153.959" viewBox="0 0 142.49 153.959">
  <g id="Group_112" data-name="Group 112" transform="translate(-1311.438 -4235.021)">
    <g id="Group_108" data-name="Group 108" transform="translate(0 -36)">
      <path id="eKG8IkL7Pvx2" d="M163.428,277.319s-10.9,7.831-17.507,6.6-23.19-11.976-27.493-35.012c0,0-3.838,37.469-22.268,38.546,0,0,27.644,28.564,50.68,16.737S173.41,277.319,163.428,277.319Z" transform="translate(1241.7 4094.101)" fill="#fff" stroke="#1f415d" stroke-linecap="round" stroke-linejoin="round" stroke-width="3"/>
      <g id="eKG8IkL7Pvx3" transform="translate(1312.938 4326.116)">
        <path id="eKG8IkL7Pvx4" d="M130.265,210.86c0,4.094-1.267,7.438-4.032,7.438-3.187,0-3.993-3.353-3.993-7.438s1.113-7.37,3.993-7.37C129.036,203.49,130.265,206.769,130.265,210.86Z" transform="translate(-89.558 -200.11)" fill="#fff" stroke="#1f415d" stroke-linecap="round" stroke-linejoin="round" stroke-width="3"/>
        <path id="eKG8IkL7Pvx5" d="M104.052,213.613c0,3.868-1.19,7.055-3.82,7.055-3.017,0-3.782-3.178-3.782-7.055s1.056-6.983,3.782-6.983C102.883,206.63,104.052,209.736,104.052,213.613Z" transform="translate(-71.442 -202.316)" fill="#fff" stroke="#1f415d" stroke-linecap="round" stroke-linejoin="round" stroke-width="3"/>
        <rect id="eKG8IkL7Pvx6" width="5.261" height="11.44" rx="2.63" transform="translate(19.858 2.535)" fill="#fff" stroke="#1f415d" stroke-linecap="round" stroke-linejoin="round" stroke-width="3"/>
        <path id="eKG8IkL7Pvx7" d="M48.865,277.947H4.178L1.5,210.53H51.543Z" transform="translate(-1.5 -201.931)" fill="#fff" stroke="#1f415d" stroke-linecap="round" stroke-linejoin="round" stroke-width="3"/>
        <path id="eKG8IkL7Pvx8" d="M12.694,234.958l-3.115-3.841-3.969,1.77L10.734,223l1.577.3Z" transform="translate(-4.387 -210.691)" fill="#fff" stroke="#1f415d" stroke-linecap="round" stroke-linejoin="round" stroke-width="3"/>
        <path id="eKG8IkL7Pvx9" d="M39.661,232.8l-4.811-1.154-2.071,3.817L30.83,224.5l1.434-.72Z" transform="translate(-22.103 -211.239)" fill="#fff" stroke="#1f415d" stroke-linecap="round" stroke-linejoin="round" stroke-width="3"/>
        <path id="eKG8IkL7Pvx10" d="M25.32,199.808c1.19.321,3.737-.509,4.213-1.678l.533,6.579-.6.176Z" transform="translate(-21.476 -196.345)" fill="#fff" stroke="#1f415d" stroke-linecap="round" stroke-linejoin="round" stroke-width="3"/>
        <path id="eKG8IkL7Pvx11" d="M39.57,198.15c.875.854,2.9,1.449,3.868.658l-2.722,6.013-.6-.131Z" transform="translate(-31.486 -196.359)" fill="#fff" stroke="#1f415d" stroke-linecap="round" stroke-linejoin="round" stroke-width="3"/>
        <path id="eKG8IkL7Pvx12" d="M46.149,200.4c.351,1.169,1.827,2.678,3.071,2.455l-5.308,3.939-.461-.408Z" transform="translate(-34.211 -197.939)" fill="#fff" stroke="#1f415d" stroke-linecap="round" stroke-linejoin="round" stroke-width="3"/>
        <path id="eKG8IkL7Pvx13" d="M50.436,208.74c-.259,1.19.3,3.222,1.488,3.633l-6.546.893-.208-.58Z" transform="translate(-35.42 -203.798)" fill="#fff" stroke="#1f415d" stroke-linecap="round" stroke-linejoin="round" stroke-width="3"/>
        <path id="eKG8IkL7Pvx14" d="M52.312,221c-.806.916-1.3,2.975-.464,3.9l-6.138-2.419.1-.61Z" transform="translate(-35.799 -212.41)" fill="#fff" stroke="#1f415d" stroke-linecap="round" stroke-linejoin="round" stroke-width="3"/>
        <path id="eKG8IkL7Pvx15" d="M50.945,228.513c-1.151.411-2.574,1.961-2.3,3.19l-4.2-5.091.384-.482Z" transform="translate(-34.914 -216.014)" fill="#fff" stroke="#1f415d" stroke-linecap="round" stroke-linejoin="round" stroke-width="3"/>
        <path id="eKG8IkL7Pvx16" d="M47.321,232.849c-1.205-.2-3.2.464-3.57,1.675l-1.19-6.489.568-.235Z" transform="translate(-33.586 -217.187)" fill="#fff" stroke="#1f415d" stroke-linecap="round" stroke-linejoin="round" stroke-width="3"/>
        <path id="eKG8IkL7Pvx17" d="M37.252,235.034c-.958-.759-3.026-1.146-3.922-.256l2.083-6.248.613.068Z" transform="translate(-27.102 -217.7)" fill="#fff" stroke="#1f415d" stroke-linecap="round" stroke-linejoin="round" stroke-width="3"/>
        <path id="eKG8IkL7Pvx18" d="M25.517,234.079c-.467-1.128-2.083-2.478-3.3-2.139L27.1,227.5l.5.357Z" transform="translate(-19.298 -216.976)" fill="#fff" stroke="#1f415d" stroke-linecap="round" stroke-linejoin="round" stroke-width="3"/>
        <path id="eKG8IkL7Pvx19" d="M17.818,230.557c.14-1.211-.622-3.175-1.848-3.469l6.421-1.517.265.556Z" transform="translate(-14.908 -215.62)" fill="#fff" stroke="#1f415d" stroke-linecap="round" stroke-linejoin="round" stroke-width="3"/>
        <path id="eKG8IkL7Pvx20" d="M16.05,221.43c.711-.994,1-3.08.068-3.93l6.352,1.785-.039.616Z" transform="translate(-14.964 -209.951)" fill="#fff" stroke="#1f415d" stroke-linecap="round" stroke-linejoin="round" stroke-width="3"/>
        <path id="eKG8IkL7Pvx21" d="M16.33,207.831c1.1-.524,3.077-2.865,2.678-4.061l3.978,5.3-.33.521Z" transform="translate(-15.161 -200.307)" fill="#fff" stroke="#1f415d" stroke-linecap="round" stroke-linejoin="round" stroke-width="3"/>
        <ellipse id="eKG8IkL7Pvx22" cx="2.949" cy="2.776" rx="2.949" ry="2.776" transform="translate(5.787 12.452) rotate(-86.57)" fill="#fff" stroke="#1f415d" stroke-linecap="round" stroke-linejoin="round" stroke-width="3"/>
        <path id="eKG8IkL7Pvx23" d="M155.555,200.54c0,4.091-1.268,7.439-4.032,7.439-3.187,0-3.993-3.356-3.993-7.439s1.113-7.37,3.993-7.37C154.326,193.17,155.555,196.449,155.555,200.54Z" transform="translate(-107.323 -192.861)" fill="#fff" stroke="#1f415d" stroke-linecap="round" stroke-linejoin="round" stroke-width="3"/>
        <path id="eKG8IkL7Pvx24" d="M152.828,224.518a2.692,2.692,0,0,1,1.785-.768,3.044,3.044,0,0,1,1.952.735l.7,1.663-5.118.1Z" transform="translate(-110.569 -214.342)" fill="#fff" stroke="#1f415d" stroke-linecap="round" stroke-linejoin="round" stroke-width="3"/>
        <ellipse id="eKG8IkL7Pvx25" cx="3.377" cy="3.071" rx="3.377" ry="3.071" transform="translate(19.245)" fill="#fff" stroke="#1f415d" stroke-linecap="round" stroke-linejoin="round" stroke-width="3"/>
        <path id="eKG8IkL7Pvx26" d="M80.88,195.205a3.036,3.036,0,0,1,2.208-.622,3.77,3.77,0,0,1,2.342.6,2.33,2.33,0,0,0-2.38-1.785A2.113,2.113,0,0,0,80.88,195.205Z" transform="translate(-60.504 -193.015)" fill="#fff" stroke="#1f415d" stroke-linecap="round" stroke-linejoin="round" stroke-width="3"/>
        <line id="eKG8IkL7Pvx27" x2="35.476" transform="translate(6.037 32.557)" fill="#fff" stroke="#1f415d" stroke-linecap="round" stroke-linejoin="round" stroke-width="3"/>
        <line id="eKG8IkL7Pvx28" x2="26.874" transform="translate(9.569 39.62)" fill="#fff" stroke="#1f415d" stroke-linecap="round" stroke-linejoin="round" stroke-width="3"/>
        <line id="eKG8IkL7Pvx29" x2="31.483" transform="translate(8.34 48.529)" fill="#fff" stroke="#1f415d" stroke-linecap="round" stroke-linejoin="round" stroke-width="3"/>
        <line id="eKG8IkL7Pvx30" x2="21.958" transform="translate(12.949 58.356)" fill="#fff" stroke="#1f415d" stroke-linecap="round" stroke-linejoin="round" stroke-width="3"/>
      </g>
      <path id="eKG8IkL7Pvx31" d="M271.222,249.582l.152,23.958s.506.455,1.324,1.285c3.243,3.3,11.378,12.5,12.113,22.44.922,12.437-.69,32.018-.69,32.018L224.69,327.9s3.838-27.567,30.176-52.522l-.69-21.194S268.458,246.588,271.222,249.582Z" transform="translate(1151.413 4094.119)" fill="#fff" stroke="#1f415d" stroke-miterlimit="10" stroke-width="3"/>
      <line id="eKG8IkL7Pvx32" x2="0.458" y2="15.204" transform="translate(1406.051 4362.127)" fill="#fff" stroke="#1f415d" stroke-linecap="round" stroke-linejoin="round" stroke-width="3"/>
      <path id="eKG8IkL7Pvx33" d="M270.06,337.941s-1.613,4.377-.461,6.222,7.438,2.169,11.4-.116c5.177-3,7.855-10.247,7.141-10.366l6.912,14.514L292.971,375.6l-27.4,6.912s-18.772-4.032-18.081-5.058,8.409-19.013,8.769-19.581,7.831-15.088,7.831-15.088S269.37,336.676,270.06,337.941Z" transform="translate(1135.413 4034.553)" fill="#fff" stroke="#1f415d" stroke-linecap="round" stroke-linejoin="round" stroke-width="3"/>
      <path id="eKG8IkL7Pvx34" d="M273.064,337.085s-1.535,11.669-12.363,21.652-18.2,14.359-19.655,13.592,3.916-18.2,7.064-23.729c3.109-5.46,6.757-11.286,6.757-11.286s-27.7,25.493-30.176,52.522l62.811,1.458s1.55-33.863-6.683-44.613S273.064,337.085,273.064,337.085Z" transform="translate(1151.413 4032.187)" fill="#fff" stroke="#1f415d" stroke-linecap="round" stroke-linejoin="round" stroke-width="3"/>
      <path id="eKG8IkL7Pvx35" d="M389.14,373.81s-5.222,2-7.373,9.521S379,416.5,379,416.5" transform="translate(1043.017 4006.363)" fill="#fff" stroke="#1f415d" stroke-linecap="round" stroke-linejoin="round" stroke-width="3"/>
      <path id="eKG8IkL7Pvx36" d="M168.89,35.592,209.278,1.5l49.3,42.078L213.81,72.448Z" transform="translate(1193.854 4271.021)" fill="#dfdfdf" stroke="#1f415d" stroke-linecap="round" stroke-linejoin="round" stroke-width="3"/>
      <path id="eKG8IkL7Pvx37" d="M228.292,220.261s-2-3.841-3.841-3.841-5.6,1.833-5.451,6.9,1.378,8.45,4.683,9.837c2.856,1.19,4.924-2.38,5.222-4.606C229.315,225.474,228.292,220.261,228.292,220.261Z" transform="translate(1155.413 4116.924)" fill="#fff" stroke="#1f415d" stroke-linecap="round" stroke-linejoin="round" stroke-width="3"/>
      <path id="eKG8IkL7Pvx38" d="M267.6,181.237a23.417,23.417,0,0,1-8.078,1.339c-21.125,0-22.958-13.339-22.958-29.793S242.549,123,259.518,123c17.123,0,22.958,13.339,22.958,29.793a43.269,43.269,0,0,1-2.642,15.713" transform="translate(1143.075 4182.547)" fill="#fff" stroke="#1f415d" stroke-linecap="round" stroke-linejoin="round" stroke-width="3"/>
      <path id="eKG8IkL7Pvx39" d="M377.046,219.333s2.38-5.058,7.37-2.3c4.383,2.389,4.383,6.587,3.377,10.444-1.116,4.258-7.156,9.2-11.363,5.683" transform="translate(1044.822 4117.072)" fill="#fff" stroke="#1f415d" stroke-linecap="round" stroke-linejoin="round" stroke-width="3"/>
      <g id="eKG8IkL7Pvx40_ts" transform="translate(1380.491 4303.968)">
        <path id="eKG8IkL7Pvx40" d="M269.6,128.016S261.617,140,254.092,142.6s-13.9.3-14.511-.613.458-15.273,8.751-20.033,15.436-4.99,19.888-3.3S269.6,128.016,269.6,128.016Z" transform="translate(-239.438 -117.692)" fill="#454545"/>
      </g>
      <path id="eKG8IkL7Pvx41" d="M240.84,120.648c-1.08.613-4.433,11.943-4.3,15.053,0,0,6.451-10.137,21.345-6.757a53.165,53.165,0,0,1,24.571,13.666l5.058-13.208s-10.583-15.2-26.094-15.2S241.138,119.88,240.84,120.648Z" transform="translate(1143.091 4188.729)" fill="#dfdfdf" stroke="#1f415d" stroke-linecap="round" stroke-linejoin="round" stroke-width="3"/>
      <path id="eKG8IkL7Pvx42" d="M301.832,233.687a11.157,11.157,0,0,1-6.349,2.764c-3.338.1-6.754-2.609-6.754-2.609a.655.655,0,0,1-.205-.893h0a.655.655,0,0,1,.893-.2c.3.186,2.824,2.478,6.058,2.41,2.975-.065,5.555-2.5,5.555-2.5a.654.654,0,0,1,.916.119h0A.661.661,0,0,1,301.832,233.687Z" transform="translate(1106.641 4105.61)" fill="#454545"/>
      <rect id="eKG8IkL7Pvx43" width="3.532" height="5.757" rx="1.766" transform="translate(1389.772 4332.412)" fill="#454545"/>
      <rect id="eKG8IkL7Pvx44" width="3.532" height="5.757" rx="1.766" transform="translate(1411.195 4332.528)" fill="#454545"/>
    </g>
  </g>
</svg>
