<svg xmlns="http://www.w3.org/2000/svg" width="129.76" height="172.83" viewBox="0 0 129.76 172.83">
  <g id="Group_110" data-name="Group 110" transform="translate(-127.636 -3876.096)">
    <path id="eDOgE316GvU2" d="M102.085,268.246h0c-1.806-3.181-1.072-7,1.63-8.536l22.1-12.581c2.707-1.536,6.362-.2,8.167,2.977h0c1.806,3.181,1.072,7-1.631,8.536l-22.1,12.581C107.546,272.754,103.891,271.423,102.085,268.246Z" transform="translate(57.157 3714.731)" fill="#fff" stroke="#1f415d" stroke-linecap="round" stroke-linejoin="round" stroke-miterlimit="10" stroke-width="4"/>
    <path id="eDOgE316GvU3" d="M96.577,254.969l-7.569-8.944s-4.76-5.566-8.944-2.75c-2.455,1.652-3.2,4.928-.861,9.116,1.776,3.177,5.406,10.6,8.021,13.963a7.825,7.825,0,0,0,13.839-1.368" transform="translate(71.964 3717.279)" fill="#fff" stroke="#1f415d" stroke-linecap="round" stroke-linejoin="round" stroke-miterlimit="10" stroke-width="4"/>
    <path id="eDOgE316GvU5" d="M174.9,269.113c-8.645,20.562-27.3,29.028-43.729,25.425-25.534-5.6-31.932-27.154-10.046-48.927,7.066-7.029,8.415-17.68,14.7-22.831,7.781-6.373,20.832-8.638,29.411-5.03C180.751,224.265,183.548,248.551,174.9,269.113Z" transform="translate(52.872 3734.079)" fill="#fff" stroke="#1f415d" stroke-miterlimit="10" stroke-width="4"/>
    <ellipse id="eDOgE316GvU6" cx="37.28" cy="25.282" rx="37.28" ry="25.282" transform="translate(147.041 3983.688)" fill="#dfdfdf" stroke="#1f415d" stroke-miterlimit="10" stroke-width="4"/>
    <path id="eDOgE316GvU7" d="M270.583,250s12.125-5.161,13.672,9.805,3.611,45.662,3.611,45.662,3.611,1.291,1.806,3.1-7.481,1.547-11.866,1.806-7.222-3.87-7.222-8.255S269.81,266,269.81,266" transform="translate(-50.016 3713.047)" fill="#fff" stroke="#1f415d" stroke-miterlimit="10" stroke-width="4"/>
    <path id="eDOgE316GvU8" d="M66.9,396.5c-1.291,0-28.04,7.055-33.8,6.19-11.049-1.652-14.314-17.009-4.9-22.185,5.162-2.838,12.125-8.773,21.153-8.773s9.546,14.449,11.352,17.8S66.9,396.5,66.9,396.5Z" transform="translate(106.968 3635.176)" fill="#fff" stroke="#1f415d" stroke-miterlimit="10" stroke-width="4"/>
    <path id="eDOgE316GvU9" d="M98.684,348.39s-4.9,27.861,20.124,35.343" transform="translate(58.936 3650.002)" fill="#dfdfdf" stroke="#1f415d" stroke-linecap="round" stroke-linejoin="round" stroke-miterlimit="10" stroke-width="4"/>
    <path id="eDOgE316GvU10" d="M162.256,355.46c-5.679.427-12.373,10.111-12.9,15.134-.671,6.405-3.611,11.695-3.783,16s-5.161,1.547-8.255-1.032" transform="translate(34.146 3645.511)" fill="#dfdfdf" stroke="#1f415d" stroke-linecap="round" stroke-linejoin="round" stroke-miterlimit="10" stroke-width="4"/>
    <path id="eDOgE316GvU11" d="M180.343,384.951c0-7.693-6.872-13.931-15.35-13.931a15.708,15.708,0,0,0-13.19,6.8c-2.437,2.437-13.318,10.225-11.705,19.771,3.611,21.412,32.377-.131,33.019-.821A13.7,13.7,0,0,0,180.343,384.951Z" transform="translate(32.485 3635.627)" fill="#fff" stroke="#1f415d" stroke-miterlimit="10" stroke-width="4"/>
    <path id="eDOgE316GvU13" d="M152.789,404.034a36.153,36.153,0,0,0,1.178-8.623c.741.026,1-.813,1.167-1.733a1.683,1.683,0,0,0-1.124-2.072,1.113,1.113,0,0,0-.219-.018,2.908,2.908,0,0,0,.153-.919,2.2,2.2,0,0,0-1.933-2.389,1.646,1.646,0,0,0-.839.237c.007-.087.011-.175.011-.266a2.345,2.345,0,0,0-2.065-2.55,2.012,2.012,0,0,0-1.751,1.2c0-.077.011-.153.011-.233a2.61,2.61,0,0,0-2.3-2.838,2.224,2.224,0,0,0-1.911,1.262,3.34,3.34,0,0,0-3.006-2.415,3.081,3.081,0,0,0-3.268,3.352c0,1.393-.219,2.966.646,3.7-1.6,2.345-1.171,7.109-.989,10.1,0,0,.106,10.75,0,11.479-.259,7.354,4.257,8.9,9.415,5.935,1.7-.978,3.243-3.334,4.509-6.23" transform="translate(34.757 3628.22)" fill="#fff" stroke="#1f415d" stroke-linecap="round" stroke-linejoin="round" stroke-miterlimit="10" stroke-width="4"/>
    <path id="eDOgE316GvU14" d="M275.41,402.712a5.217,5.217,0,0,0-3.484,2.386c-1.485,2.192-1.032,4.323.9,4.837s3.677-1.547,3.743-3.225a4.045,4.045,0,0,1,1.1-2.645s-2.214,4.87.387,5.935c2.623,1.076,4-.708,3.611-2.772s-.58-3.159-.452-2.838.923,5.742,3.936,5.224c2.375-.408,1.871-2.324.708-5.548a14.878,14.878,0,0,1,1.871,3.1c.773,1.871,4.881.989,3.075-2.108s-3.743-2.429-3.743-2.429" transform="translate(-50.8 3615.589)" fill="#fff" stroke="#1f415d" stroke-linecap="round" stroke-linejoin="round" stroke-miterlimit="10" stroke-width="4"/>
    <ellipse id="eDOgE316GvU15" cx="7.16" cy="9.739" rx="7.16" ry="9.739" transform="translate(241.075 3923.06)" fill="#fff" stroke="#1f415d" stroke-miterlimit="10" stroke-width="4"/>
    <ellipse id="eDOgE316GvU16" cx="7.16" cy="9.739" rx="7.16" ry="9.739" transform="translate(152.845 3923.964)" fill="#fff" stroke="#1f415d" stroke-miterlimit="10" stroke-width="4"/>
    <path id="eDOgE316GvU17" d="M135.428,138.662c-17.648-4.99-30.418-19.544-30.418-36.725,0-21.3,19.636-38.567,43.856-38.567s43.856,17.268,43.856,38.567c0,16.612-11.943,30.772-28.693,36.2" transform="translate(54.671 3831.055)" fill="#fff" stroke="#1f415d" stroke-miterlimit="10" stroke-width="4"/>
    <path id="eDOgE316GvU19" d="M170.841,39.6c.3-4.487-1.933-13.931-6.836-16.641s-8.514.259-8.514,1.291c0,0-3.1-7.481-12.9-5.161s-7.74,9.674-7.74,9.674-7.095-1.16-10.192,5.289,2.966,10.319,2.966,10.319-5.161.259-5.8,3.611,1.419,9.933,23.349,7.481S170.334,47.129,170.841,39.6Z" transform="translate(44.052 3859.465)" fill="#454545" stroke="#1f415d" stroke-linejoin="round" stroke-miterlimit="10" stroke-width="4"/>
    <path id="eDOgE316GvU20" d="M211.81,29.42a22.737,22.737,0,0,1,3.743,11.611" transform="translate(-13.172 3852.621)" fill="#454545" stroke="#1f415d" stroke-linecap="round" stroke-linejoin="round" stroke-miterlimit="10" stroke-width="4"/>
    <path id="eDOgE316GvU21" d="M157.71,46.39a20.227,20.227,0,0,1,11.611,4.771" transform="translate(21.194 3841.841)" fill="#454545" stroke="#1f415d" stroke-linecap="round" stroke-linejoin="round" stroke-miterlimit="10" stroke-width="4"/>
    <path id="eDOgE316GvU22" d="M137.9,89.18s4,0,6.321,1.806" transform="translate(33.778 3814.66)" fill="#454545" stroke="#1f415d" stroke-linecap="round" stroke-linejoin="round" stroke-miterlimit="10" stroke-width="4"/>
    <path id="eDOgE316GvU23" d="M179.62,176.989c3.484-.128,5.672-3.768,10.706-4.9,5.162-1.16,10.7.875,11.866,6.708,1.291,6.449-5.548,17.028-22.444,17.414-14.058.321-19.183-10.286-18.319-15.609.9-5.548,7.222-8.386,10.706-7.222S176.136,177.12,179.62,176.989Z" transform="translate(18.891 3762.194)" fill="#dfdfdf" stroke="#1f415d" stroke-miterlimit="10" stroke-width="4"/>
    <path id="eDOgE316GvU24" d="M192.213,215.433s-9.933-.773-11.093-4.644,4.257-8.773,6.967-7.609a34.945,34.945,0,0,0,4.129,1.547s3.87-3.352,7.481-2.579,8,3.352,5.935,7.354S200.213,214.915,192.213,215.433Z" transform="translate(6.425 3742.973)" fill="#fff" stroke="#1f415d" stroke-miterlimit="10" stroke-width="4"/>
    <path id="eDOgE316GvU25" d="M156.557,154.947h0a3.1,3.1,0,0,1-3.1-3.1v-1.933a3.1,3.1,0,0,1,3.1-3.1h0a3.1,3.1,0,0,1,3.1,3.1v1.933A3.1,3.1,0,0,1,156.557,154.947Z" transform="translate(23.894 3778.045)" fill="#454545"/>
    <path id="eDOgE316GvU26" d="M260.527,150.707h0a3.1,3.1,0,0,1-3.1-3.1v-1.933a3.1,3.1,0,0,1,3.1-3.1h0a3.1,3.1,0,0,1,3.1,3.1v1.933A3.1,3.1,0,0,1,260.527,150.707Z" transform="translate(-42.151 3780.738)" fill="#454545"/>
  </g>
</svg>
