<svg width="541" height="288" viewBox="0 0 541 288" fill="none" xmlns="http://www.w3.org/2000/svg">
<path d="M278.932 254.914L0.909668 257.458" stroke="#454545" stroke-width="3" stroke-miterlimit="10" stroke-linecap="round" stroke-linejoin="round"/>
<path d="M42.9468 230.055C42.9468 230.055 44.7516 237.892 43.8621 240.299C42.8244 243.099 37.307 246.625 36.2467 249.414C34.1584 254.918 35.4861 273.005 35.4861 273.005H38.2287C38.2287 273.005 36.598 254.918 38.6863 249.414C39.6242 246.938 44.6066 243.888 45.5412 241.411C46.5435 238.748 44.4744 230.055 44.4744 230.055H42.9468Z" stroke="#454545" stroke-width="3" stroke-miterlimit="10" stroke-linecap="round" stroke-linejoin="round"/>
<path d="M42.3954 223.64C43.4138 223.64 44.3194 224.116 44.9156 224.862C45.5988 225.035 46.6204 225.315 47.7355 225.691C49.7336 225.015 50.9067 224.346 51.548 223.94C51.9702 223.67 52.2732 223.247 52.3956 222.755C53.2045 219.492 50.7069 217.817 49.6466 217.265C49.3179 217.095 48.9408 217.038 48.5799 217.118C46.3175 217.621 43.6071 220.93 42.1311 222.948C42.1698 223.171 42.2085 223.404 42.2471 223.643C42.2955 223.64 42.3438 223.64 42.3954 223.64Z" fill="white" stroke="#454545" stroke-width="3" stroke-miterlimit="10" stroke-linecap="round" stroke-linejoin="round"/>
<path d="M53.5492 229.123C52.5631 227.612 49.9655 226.45 47.7353 225.691C47.1037 225.904 46.3914 226.117 45.5858 226.323C45.6244 226.527 45.6438 226.733 45.6438 226.946C45.6438 227.582 45.4665 228.174 45.1636 228.677C45.2474 229.38 45.3473 230.352 45.3956 231.424C46.7363 233.075 47.7772 233.947 48.3799 234.407C48.7795 234.71 49.2791 234.843 49.7721 234.783C53.0529 234.37 53.6814 231.391 53.8006 230.185C53.8393 229.816 53.7523 229.436 53.5492 229.123Z" fill="white" stroke="#454545" stroke-width="3" stroke-miterlimit="10" stroke-linecap="round" stroke-linejoin="round"/>
<path d="M45.5864 226.323C46.392 226.117 47.1043 225.904 47.7359 225.691C46.6241 225.311 45.6025 225.032 44.916 224.862C45.248 225.278 45.4832 225.777 45.5864 226.323Z" fill="white" stroke="#454545" stroke-width="3" stroke-miterlimit="10" stroke-linecap="round" stroke-linejoin="round"/>
<path d="M42.396 230.255C42.1156 230.255 41.8416 230.218 41.5806 230.152C40.9812 230.475 40.1851 230.884 39.2956 231.287C38.2708 233.158 37.8486 234.46 37.6456 235.202C37.5135 235.692 37.5715 236.211 37.8067 236.66C39.373 239.623 42.3283 239.141 43.4756 238.818C43.8333 238.718 44.1459 238.498 44.3586 238.192C45.3835 236.71 45.5059 233.824 45.3931 231.43C44.9967 230.941 44.5713 230.385 44.1234 229.749C43.6271 230.069 43.0308 230.255 42.396 230.255Z" fill="white" stroke="#454545" stroke-width="3" stroke-miterlimit="10" stroke-linecap="round" stroke-linejoin="round"/>
<path d="M44.1262 229.745C44.5742 230.381 44.9964 230.937 45.396 231.426C45.3444 230.354 45.2477 229.382 45.1639 228.68C44.9029 229.109 44.5484 229.475 44.1262 229.745Z" fill="white" stroke="#454545" stroke-width="3" stroke-miterlimit="10" stroke-linecap="round" stroke-linejoin="round"/>
<path d="M39.1632 227.272C38.6411 226.816 37.9449 226.18 37.2166 225.448C35.1315 225.155 33.7876 225.225 33.0367 225.301C32.5404 225.351 32.086 225.594 31.7605 225.98C29.6141 228.541 31.1256 231.171 31.8378 232.143C32.0569 232.446 32.3728 232.662 32.7337 232.755C34.4611 233.191 37.1489 232.263 39.2985 231.287C39.595 230.744 39.9431 230.155 40.3491 229.516C39.6917 228.973 39.2469 228.178 39.1632 227.272Z" fill="white" stroke="#454545" stroke-width="3" stroke-miterlimit="10" stroke-linecap="round" stroke-linejoin="round"/>
<path d="M40.3492 229.516C39.9399 230.155 39.5951 230.744 39.2986 231.287C40.1881 230.884 40.9841 230.474 41.5835 230.152C41.1227 230.028 40.7069 229.812 40.3492 229.516Z" fill="white" stroke="#454545" stroke-width="3" stroke-miterlimit="10" stroke-linecap="round" stroke-linejoin="round"/>
<path d="M41.5611 223.75C41.719 223.52 41.9124 223.247 42.1316 222.947C41.5901 219.881 40.8489 218.18 40.4267 217.338C40.2011 216.885 39.8112 216.542 39.3406 216.372C36.221 215.264 34.3615 217.651 33.7298 218.679C33.5332 218.999 33.4462 219.375 33.4945 219.748C33.7201 221.546 35.5474 223.76 37.2168 225.444C37.8517 225.534 38.5575 225.657 39.3374 225.827C39.6951 224.815 40.5266 224.029 41.5611 223.75Z" fill="white" stroke="#454545" stroke-width="3" stroke-miterlimit="10" stroke-linecap="round" stroke-linejoin="round"/>
<path d="M42.2477 223.643C42.2091 223.403 42.1736 223.174 42.1317 222.947C41.9126 223.247 41.7192 223.52 41.5613 223.75C41.7837 223.69 42.0125 223.653 42.2477 223.643Z" stroke="#454545" stroke-width="3" stroke-miterlimit="10" stroke-linecap="round" stroke-linejoin="round"/>
<path d="M39.1467 226.945C39.1467 226.553 39.2144 226.176 39.3369 225.83C38.557 225.66 37.8544 225.537 37.2163 225.447C37.9414 226.18 38.6375 226.812 39.1629 227.272C39.15 227.165 39.1467 227.055 39.1467 226.945Z" fill="white" stroke="#454545" stroke-width="3" stroke-miterlimit="10" stroke-linecap="round" stroke-linejoin="round"/>
<path d="M35.8696 250.403C35.8696 250.403 34.7868 244.261 26.7556 243.668C26.7588 243.665 29.8366 249.807 35.8696 250.403Z" fill="white" stroke="#454545" stroke-width="3" stroke-miterlimit="10" stroke-linecap="round" stroke-linejoin="round"/>
<path d="M436.872 215.07H230.051V227.428H436.872V215.07Z" fill="white" stroke="#454545" stroke-width="3" stroke-miterlimit="10" stroke-linecap="round" stroke-linejoin="round"/>
<path d="M244.715 227.425V262.105V269.875H411.406V227.425H244.715Z" fill="white" stroke="#454545" stroke-width="3" stroke-miterlimit="10" stroke-linecap="round" stroke-linejoin="round"/>
<path d="M411.406 262.105H244.715V269.879H411.406V262.105Z" fill="white" stroke="#454545" stroke-width="3" stroke-miterlimit="10" stroke-linecap="round" stroke-linejoin="round"/>
<path d="M278.251 245.816C278.251 245.816 274.693 247.707 273.459 247.44C272.224 247.174 269.701 243.965 269.701 243.965C269.701 243.965 269.894 239.837 270.735 238.864C271.577 237.892 275.528 237.24 275.528 237.24C275.528 237.24 278.892 239.477 279.285 240.715C279.675 241.954 278.251 245.816 278.251 245.816Z" stroke="#454545" stroke-width="3" stroke-miterlimit="10" stroke-linecap="round" stroke-linejoin="round"/>
<path d="M402.176 245.846C402.176 245.846 400.397 246.791 399.781 246.658C399.166 246.525 397.902 244.92 397.902 244.92C397.902 244.92 397.999 242.856 398.418 242.37C398.837 241.884 400.813 241.558 400.813 241.558C400.813 241.558 402.495 242.676 402.691 243.295C402.888 243.915 402.176 245.846 402.176 245.846Z" stroke="#454545" stroke-width="3" stroke-miterlimit="10" stroke-linecap="round" stroke-linejoin="round"/>
<path d="M416.166 114.06H252.859V201.847H416.166V114.06Z" fill="white" stroke="#464545" stroke-width="3" stroke-miterlimit="10" stroke-linecap="round" stroke-linejoin="round"/>
<path d="M407.996 118.451H261.022V197.459H407.996V118.451Z" fill="white" stroke="#464545" stroke-width="3" stroke-miterlimit="10" stroke-linecap="round" stroke-linejoin="round"/>
<path d="M421.69 272.093L383.423 287.058L510.51 287.501L539.444 260.531L422.161 263.091L421.69 272.093Z" fill="white" stroke="#454545" stroke-width="3" stroke-miterlimit="10" stroke-linecap="round" stroke-linejoin="round"/>
<path d="M47.5814 273.002H27.1104C25.4055 273.002 24.0229 271.573 24.0229 269.812V256.529C24.0229 254.768 25.4055 253.339 27.1104 253.339H47.5814C49.2862 253.339 50.6688 254.768 50.6688 256.529V269.812C50.6688 271.573 49.2862 273.002 47.5814 273.002Z" fill="#DDDEDE" stroke="#454545" stroke-width="3" stroke-miterlimit="10"/>
<path d="M278.57 254.854L0.548314 257.395C0.548314 257.395 -1.91388 275.229 23.662 273.694C49.2411 272.16 244.354 269.816 244.354 269.816V255.167" fill="white"/>
<path d="M278.57 254.854L0.548314 257.395C0.548314 257.395 -1.91388 275.229 23.662 273.694C49.2411 272.16 244.354 269.816 244.354 269.816V255.167" stroke="#464545" stroke-width="3" stroke-miterlimit="10" stroke-linecap="round" stroke-linejoin="round"/>
<path d="M339.664 117.152C328.955 126.121 328.955 129.71 319.116 128.515C313.528 127.836 301.3 121.24 297.697 101.309C297.697 101.309 296.637 111.143 281.2 112.072C281.2 112.072 299.847 158.537 321.43 156.324C333.583 155.075 344.476 147.178 354.424 135.693C364.267 124.33 350.373 108.183 339.664 117.152Z" fill="white" stroke="#454545" stroke-width="3" stroke-miterlimit="10" stroke-linecap="round" stroke-linejoin="round"/>
<path d="M295.577 91.9632C295.577 95.5055 294.707 98.4085 292.805 98.4085C290.614 98.4085 290.059 95.5055 290.059 91.9632C290.059 88.4209 290.826 85.5845 292.805 85.5845C294.732 85.5845 295.577 88.4243 295.577 91.9632Z" fill="white" stroke="#454545" stroke-width="3" stroke-miterlimit="10" stroke-linecap="round" stroke-linejoin="round"/>
<path d="M289.896 92.4361C289.896 95.7919 288.89 98.5418 286.695 98.5418C284.165 98.5418 283.527 95.7919 283.527 92.4361C283.527 89.0802 284.41 86.3936 286.695 86.3936C288.922 86.3936 289.896 89.0802 289.896 92.4361Z" fill="white" stroke="#454545" stroke-width="3" stroke-miterlimit="10" stroke-linecap="round" stroke-linejoin="round"/>
<path d="M281.133 96.4473C279.914 96.4473 278.928 95.4286 278.928 94.1702V88.8201C278.928 87.5617 279.914 86.543 281.133 86.543C282.351 86.543 283.337 87.5617 283.337 88.8201V94.1702C283.337 95.4286 282.351 96.4473 281.133 96.4473Z" fill="white" stroke="#454545" stroke-width="3" stroke-miterlimit="10" stroke-linecap="round" stroke-linejoin="round"/>
<path d="M301.007 148.44H263.575L261.332 90.1021H303.25L301.007 148.44Z" fill="white" stroke="#454545" stroke-width="3" stroke-miterlimit="10" stroke-linecap="round" stroke-linejoin="round"/>
<path d="M301.849 89.2464C301.849 92.7887 300.833 95.6917 298.616 95.6917C296.06 95.6917 295.416 92.7887 295.416 89.2464C295.416 85.7042 296.309 82.8677 298.616 82.8677C300.862 82.8677 301.849 85.7075 301.849 89.2464Z" fill="white" stroke="#454545" stroke-width="3" stroke-miterlimit="10" stroke-linecap="round" stroke-linejoin="round"/>
<path d="M266.099 106.648H295.813" stroke="#454545" stroke-width="3" stroke-miterlimit="10" stroke-linecap="round" stroke-linejoin="round"/>
<path d="M269.057 112.76H291.568" stroke="#454545" stroke-width="3" stroke-miterlimit="10" stroke-linecap="round" stroke-linejoin="round"/>
<path d="M268.029 120.467H294.398" stroke="#454545" stroke-width="3" stroke-miterlimit="10" stroke-linecap="round" stroke-linejoin="round"/>
<path d="M276.518 134.054H294.913" stroke="#454545" stroke-width="3" stroke-miterlimit="10" stroke-linecap="round" stroke-linejoin="round"/>
<path d="M334.294 257.91C334.294 257.91 336.354 270.002 335.451 272.196C334.552 274.39 333.585 277.113 333.65 277.38C333.714 277.646 348.184 278.841 348.184 278.442C348.184 278.042 348.442 273.191 347.927 271.4C347.411 269.606 347.027 264.292 347.669 261.103C348.31 257.914 343.234 250.799 334.294 257.91Z" fill="white" stroke="#454545" stroke-width="3" stroke-miterlimit="10" stroke-linecap="round" stroke-linejoin="round"/>
<path d="M332.493 268.674L337.83 269.14C337.83 269.14 337.25 273.924 335.129 273.924C335.129 273.924 343.618 277.909 348.443 273.924C348.443 273.924 350.373 280.17 349.793 280.769C349.213 281.368 339.954 281.501 335.706 281.698C331.462 281.897 315.445 281.897 315.061 281.098C314.674 280.303 313.83 277.846 319.757 275.848C325.674 273.854 330.692 273.787 330.692 273.787C330.692 273.787 331.465 274.453 332.493 268.674Z" fill="white" stroke="#454545" stroke-width="3" stroke-miterlimit="10" stroke-linecap="round" stroke-linejoin="round"/>
<path d="M365.553 258.21C365.553 258.21 367.612 270.301 366.71 272.495C365.811 274.689 364.844 277.413 364.908 277.679C364.973 277.945 379.443 279.14 379.443 278.741C379.443 278.341 379.701 273.491 379.185 271.7C378.669 269.905 378.286 264.592 378.927 261.402C379.569 258.213 374.493 251.099 365.553 258.21Z" fill="white" stroke="#454545" stroke-width="3" stroke-miterlimit="10" stroke-linecap="round" stroke-linejoin="round"/>
<path d="M363.751 268.973L369.088 269.439C369.088 269.439 368.507 274.223 366.387 274.223C366.387 274.223 374.876 278.208 379.7 274.223C379.7 274.223 381.631 280.469 381.05 281.068C380.47 281.667 371.211 281.801 366.964 281.997C362.719 282.197 346.702 282.197 346.319 281.398C345.932 280.602 345.088 278.145 351.014 276.148C356.931 274.153 361.949 274.087 361.949 274.087C361.949 274.087 362.723 274.753 363.751 268.973Z" fill="white" stroke="#454545" stroke-width="3" stroke-miterlimit="10" stroke-linecap="round" stroke-linejoin="round"/>
<path d="M365.134 101.308C365.134 101.308 384.235 105.793 388.866 117.455C393.497 129.114 389.446 176.655 390.313 180.54C391.18 184.425 392.627 261.266 392.627 261.266C392.627 261.266 376.948 268.43 357.315 269.339C337.924 270.235 321.136 262.165 321.136 262.165C321.136 262.165 314.478 186.223 319.689 170.675C324.9 155.128 332.136 133.002 334.74 125.528C337.35 118.051 350.373 100.11 365.134 101.308Z" fill="#DDDEDE" stroke="#454545" stroke-width="3" stroke-miterlimit="10" stroke-linecap="round"/>
<path d="M373.078 104.827C373.078 104.827 361.502 123.83 351.337 128.881C341.172 133.931 345.936 115.061 347.605 111.206C349.278 107.351 352.494 104.694 356.094 103.499C359.7 102.304 367.032 101.771 373.078 104.827Z" fill="white" stroke="#454545" stroke-width="3" stroke-miterlimit="10" stroke-linecap="round" stroke-linejoin="round"/>
<path d="M365.649 105.89C379.201 105.89 390.187 94.2888 390.187 79.9785C390.187 65.6682 379.201 54.0674 365.649 54.0674C352.097 54.0674 341.111 65.6682 341.111 79.9785C341.111 94.2888 352.097 105.89 365.649 105.89Z" fill="white" stroke="#454545" stroke-width="3" stroke-miterlimit="10"/>
<path d="M332.204 97.9526C332.204 97.9526 325.964 95.3625 331.656 85.861C336 78.61 344.969 81.2767 344.969 81.2767C344.969 81.2767 353.264 75.697 362.333 85.3616C362.333 85.3616 379.494 85.305 381.821 98.8482C383.236 107.088 366.094 108.383 366.094 108.383C366.094 108.383 351.556 120.841 338.501 112.768C328.571 106.622 332.204 97.9526 332.204 97.9526Z" fill="#B3B3B3" stroke="#454545" stroke-width="3" stroke-miterlimit="10" stroke-linecap="round" stroke-linejoin="round"/>
<path d="M347.608 87.1565C347.608 87.1565 350.953 82.5056 360.47 88.7511C360.47 88.7511 355.71 91.0117 351.724 90.2127C347.737 89.4137 347.608 87.1565 347.608 87.1565Z" fill="white" stroke="#454545" stroke-width="3" stroke-miterlimit="10" stroke-linecap="round" stroke-linejoin="round"/>
<path d="M385.495 86.9894C387.087 86.0673 388.834 85.9075 390.229 86.7398C392.659 88.1913 393.101 92.0964 391.219 95.4622C389.333 98.8314 385.837 100.386 383.41 98.9346C382.627 98.4652 382.047 97.7427 381.689 96.8605" fill="white"/>
<path d="M385.495 86.9894C387.087 86.0673 388.834 85.9075 390.229 86.7398C392.659 88.1913 393.101 92.0964 391.219 95.4622C389.333 98.8314 385.837 100.386 383.41 98.9346C382.627 98.4652 382.047 97.7427 381.689 96.8605" stroke="#454545" stroke-width="3" stroke-miterlimit="10" stroke-linecap="round" stroke-linejoin="round"/>
<path d="M380.844 66.9246C378.144 71.0095 379.397 77.8877 381.808 79.0828C381.808 79.0828 381.325 86.457 387.113 85.6613C392.901 84.8656 390.874 78.8831 390.49 76.4927C390.49 76.4927 391.84 70.7132 390.297 67.1244C388.756 63.5355 383.545 62.8364 380.844 66.9246Z" fill="#B3B3B3" stroke="#454545" stroke-width="3" stroke-miterlimit="10" stroke-linecap="round" stroke-linejoin="round"/>
<path d="M354.331 56.8572C354.331 56.8572 367.548 50.9779 378.064 59.2476C388.579 67.5173 390.607 76.7891 390.607 76.7891C390.607 76.7891 392.44 72.7042 393.307 66.2256C394.174 59.747 387.036 51.1776 379.414 47.8884C373.262 45.2317 365.134 46.6932 363.013 47.4889C360.889 48.2879 354.428 55.4623 354.331 56.8572Z" fill="#DDDEDE" stroke="#454545" stroke-width="3" stroke-miterlimit="10" stroke-linecap="round" stroke-linejoin="round"/>
<path d="M363.593 54.5668C363.593 54.5668 358.865 51.7769 354.911 51.4773C350.957 51.1776 348.253 53.9675 348.833 56.4611C349.413 58.9513 351.63 59.7503 356.745 58.4553C361.856 57.1569 363.593 54.5668 363.593 54.5668Z" fill="#B3B3B3" stroke="#454545" stroke-width="3" stroke-miterlimit="10" stroke-linecap="round" stroke-linejoin="round"/>
<path d="M350.503 87.4888C350.503 87.4888 352.304 88.8171 354.876 88.1546" stroke="#454545" stroke-width="3" stroke-miterlimit="10" stroke-linecap="round"/>
<path d="M345.99 78.0273C345.217 77.9008 344.691 77.1517 344.814 76.3561L345.033 74.9112C345.155 74.1122 345.881 73.5695 346.651 73.696C347.424 73.8225 347.95 74.5716 347.827 75.3673L347.608 76.8122C347.489 77.6078 346.764 78.1505 345.99 78.0273Z" fill="#454545"/>
<path d="M364.121 80.5509C363.351 80.421 362.826 79.672 362.952 78.8763L363.177 77.4347C363.303 76.639 364.028 76.0964 364.798 76.2262C365.568 76.3561 366.094 77.1051 365.968 77.9008L365.742 79.3424C365.62 80.138 364.892 80.6774 364.121 80.5509Z" fill="#454545"/>
<path d="M325.99 147.997C323.837 147.405 320.985 145.593 321.478 144.188C321.971 142.784 319.65 140.323 317.852 143.995C316.051 147.668 319.399 149.239 320.811 150.191C320.811 150.191 314.897 153.597 311.945 154.399C308.996 155.201 307.252 151.689 305.68 152.372C304.107 153.054 303.582 155.721 305.722 159.276C307.862 162.832 314.691 169.101 320.401 167.739C326.112 166.378 330.805 160.608 331.733 158.837C332.661 157.066 328.143 148.59 325.99 147.997Z" fill="white" stroke="#454545" stroke-width="3" stroke-miterlimit="10" stroke-linecap="round" stroke-linejoin="round"/>
<path d="M319.422 167.746C319.238 168.162 314.449 168.735 311.339 167.529C308.223 166.321 305.042 162.522 305.416 161.6" fill="white"/>
<path d="M319.422 167.746C319.238 168.162 314.449 168.735 311.339 167.529C308.223 166.321 305.042 162.522 305.416 161.6" stroke="#454545" stroke-width="3" stroke-miterlimit="10" stroke-linecap="round" stroke-linejoin="round"/>
<path d="M316.441 164.986C316.006 165.226 314.037 165.995 309.889 164.653C306.183 163.455 303.998 159.799 304.881 158.75" fill="white"/>
<path d="M316.441 164.986C316.006 165.226 314.037 165.995 309.889 164.653C306.183 163.455 303.998 159.799 304.881 158.75" stroke="#454545" stroke-width="3" stroke-miterlimit="10" stroke-linecap="round" stroke-linejoin="round"/>
<path d="M315.426 157.928C315.426 157.928 313.521 158.381 310.778 158.308C308.033 158.234 304.742 154.459 304.742 154.459C304.742 154.459 301.993 157.708 307.517 160.585C311.855 162.845 314.146 162.749 315.538 161.996" fill="white"/>
<path d="M315.426 157.928C315.426 157.928 313.521 158.381 310.778 158.308C308.033 158.234 304.742 154.459 304.742 154.459C304.742 154.459 301.993 157.708 307.517 160.585C311.855 162.845 314.146 162.749 315.538 161.996" stroke="#454545" stroke-width="3" stroke-miterlimit="10" stroke-linecap="round" stroke-linejoin="round"/>
<path d="M327.991 147.95C327.991 147.95 329.921 160.508 323.167 167.483C323.167 167.483 347.672 179.84 362.916 173.861C378.16 167.882 390.316 145.556 390.316 132.003C390.316 118.45 385.878 114.861 380.09 115.061C374.302 115.261 369.864 118.051 360.796 137.187C351.723 156.32 327.991 147.95 327.991 147.95Z" fill="white" stroke="#454545" stroke-width="3" stroke-miterlimit="10" stroke-linecap="round" stroke-linejoin="round"/>
<path d="M195.29 165.18L164.226 165.825C164.226 165.825 164.1 223.56 163.478 230.262C162.853 236.964 163.604 264.157 163.604 264.157C163.604 264.157 168.844 269.31 176.079 269.054C183.315 268.798 185.445 263.641 185.445 263.641C185.445 263.641 186.318 234.643 186.818 225.751C187.317 216.859 188.065 197.786 188.065 197.786L199.667 197.4C199.667 197.4 201.04 224.076 201.04 225.235C201.04 226.394 200.666 260.032 201.539 264.283C202.413 268.535 213.254 269.953 215.378 269.437C217.498 268.921 223.113 262.349 223.113 262.349L224.112 171.881L223.364 164.793L195.29 165.18Z" fill="#DDDEDE" stroke="#454545" stroke-width="3" stroke-miterlimit="10" stroke-linecap="round" stroke-linejoin="round"/>
<path d="M163.353 161.058L163.105 169.178C163.105 169.178 166.601 176.525 194.417 176.912C222.362 177.298 224.856 170.726 224.856 170.726L225.481 159.899L163.353 161.058Z" fill="white" stroke="#454545" stroke-width="3" stroke-miterlimit="10" stroke-linecap="round" stroke-linejoin="round"/>
<path d="M200.653 168.789H187.93V177.681H200.653V168.789Z" fill="white" stroke="#454545" stroke-width="3" stroke-miterlimit="10" stroke-linecap="round" stroke-linejoin="round"/>
<path d="M179.444 167.76H176.202V177.038H179.444V167.76Z" fill="white" stroke="#454545" stroke-width="3" stroke-miterlimit="10" stroke-linecap="round" stroke-linejoin="round"/>
<path d="M214.131 167.114H210.512V177.424H214.131V167.114Z" fill="white" stroke="#454545" stroke-width="3" stroke-miterlimit="10" stroke-linecap="round" stroke-linejoin="round"/>
<path d="M225.959 265.701C225.959 265.701 222.839 262.738 213.11 262.738C203.38 262.738 198.514 265.059 198.514 265.059C198.514 265.059 195.146 266.091 196.519 269.7C197.892 273.308 200.386 274.081 199.139 275.755C197.892 277.43 195.897 280.909 197.64 281.299C199.387 281.685 225.833 282.201 225.833 282.201C225.833 282.201 227.705 277.047 226.081 274.467C224.463 271.887 230.203 271.115 225.959 265.701Z" fill="white" stroke="#454545" stroke-width="3" stroke-miterlimit="10" stroke-linecap="round" stroke-linejoin="round"/>
<path d="M160.858 265.315C160.858 265.315 163.978 262.352 173.708 262.352C183.437 262.352 188.304 264.673 188.304 264.673C188.304 264.673 191.671 265.705 190.298 269.313C188.926 272.922 186.431 273.695 187.678 275.369C188.926 277.044 190.92 280.523 189.177 280.912C187.43 281.299 160.984 281.815 160.984 281.815C160.984 281.815 159.112 276.661 160.736 274.081C162.36 271.501 156.617 270.728 160.858 265.315Z" fill="white" stroke="#454545" stroke-width="3" stroke-miterlimit="10" stroke-linecap="round" stroke-linejoin="round"/>
<path d="M188.429 283.356C188.429 283.356 188.555 275.236 178.822 273.691C169.092 272.143 163.227 280.393 162.231 282.197C161.232 284.002 172.086 284.644 176.202 284.518C180.321 284.388 188.429 283.356 188.429 283.356Z" fill="white" stroke="#454545" stroke-width="3" stroke-miterlimit="10" stroke-linecap="round" stroke-linejoin="round"/>
<path d="M226.603 283.616C226.603 283.616 226.729 275.496 216.996 273.951C207.263 272.407 201.401 280.653 200.405 282.458C199.406 284.262 210.26 284.904 214.376 284.778C218.495 284.645 226.603 283.616 226.603 283.616Z" fill="white" stroke="#454545" stroke-width="3" stroke-miterlimit="10" stroke-linecap="round" stroke-linejoin="round"/>
<path d="M229.349 84.1204C229.349 84.1204 218.494 63.3729 196.663 64.9176C174.832 66.4624 166.472 76.7729 164.977 78.5773C163.478 80.3817 147.635 103.45 149.26 121.491C150.104 130.879 158.615 137.341 158.615 137.341C158.615 137.341 155.747 165.822 169.096 169.947C182.444 174.072 191.674 170.593 191.674 170.593C191.674 170.593 198.536 170.593 199.283 170.077C200.031 169.561 213.754 173.04 219.619 169.947C225.485 166.854 229.974 157.06 228.475 142.112C228.475 142.112 239.578 133.349 240.577 123.295C241.573 113.244 238.704 98.426 229.349 84.1204Z" fill="white" stroke="#454545" stroke-width="3" stroke-miterlimit="10" stroke-linecap="round" stroke-linejoin="round"/>
<path d="M209.887 4.08936C193.55 4.08936 187.817 15.4186 186.84 30.2568C186.625 30.2235 186.405 30.2069 186.183 30.2069C182.831 30.2069 180.111 33.9755 180.111 38.6264C180.111 43.2773 182.828 47.046 186.183 47.046C186.908 47.046 187.604 46.8695 188.252 46.5433C188.304 46.723 188.352 46.9095 188.407 47.0859C188.423 47.1359 188.429 47.1858 188.429 47.2357L188.265 84.2431C188.265 84.526 188.487 84.7558 188.761 84.7558H208.73C209 84.7558 209.223 84.5294 209.226 84.2497L209.384 66.9579C209.387 66.6782 209.609 66.4552 209.883 66.4552C209.886 66.4552 209.887 66.4552 209.89 66.4552C229.516 66.5417 233.094 52.4925 233.094 35.2673C233.09 18.052 229.513 4.08936 209.887 4.08936Z" fill="white" stroke="#454545" stroke-width="3" stroke-miterlimit="10" stroke-linecap="round"/>
<path d="M187.681 63.7583C187.681 63.7583 188.803 80.3843 198.284 80.3843C207.766 80.3843 209.88 66.4649 209.88 66.4649C209.88 66.4649 212.874 68.2128 214.002 71.2323C215.191 74.4184 214.666 77.7975 215.5 80.6406C215.5 80.6406 211.385 77.6777 208.639 78.9661C205.893 80.2545 200.279 83.9931 198.41 84.3793C196.541 84.7655 192.422 78.3235 188.429 78.1937C184.436 78.0638 181.693 83.4771 181.693 83.4771C181.693 83.4771 180.446 64.7904 187.681 63.7583Z" fill="#DDDEDE" stroke="#454545" stroke-width="3" stroke-miterlimit="10" stroke-linecap="round" stroke-linejoin="round"/>
<path d="M196.911 86.6972C196.911 86.6972 190.176 103.323 190.176 108.607C190.176 108.607 193.418 113.89 196.663 115.951C196.663 115.951 201.404 111.57 203.025 108.347C203.025 108.347 200.531 92.6232 199.158 86.6972C197.785 80.7713 196.911 86.6972 196.911 86.6972Z" fill="#DDDEDE" stroke="#454545" stroke-width="3" stroke-miterlimit="10" stroke-linecap="round" stroke-linejoin="round"/>
<path d="M197.785 88.8875C197.785 88.8875 192.419 85.0223 193.044 81.6698C193.67 78.3173 201.153 78.3207 203.148 80.8975C205.146 83.4776 199.032 88.1152 197.785 88.8875Z" fill="#DDDEDE" stroke="#454545" stroke-width="3" stroke-miterlimit="10" stroke-linecap="round" stroke-linejoin="round"/>
<path d="M170.092 77.1621C170.092 77.1621 172.586 87.8588 172.212 92.1102C171.838 96.3616 167.346 110.797 165.599 116.337C163.852 121.88 158.49 133.349 158.49 138.116" fill="white"/>
<path d="M170.092 77.1621C170.092 77.1621 172.586 87.8588 172.212 92.1102C171.838 96.3616 167.346 110.797 165.599 116.337C163.852 121.88 158.49 133.349 158.49 138.116" stroke="#454545" stroke-width="3" stroke-miterlimit="10" stroke-linecap="round" stroke-linejoin="round"/>
<path d="M219.868 76.3896C219.868 76.3896 217.415 82.5653 217.621 88.3748C217.869 95.3328 218.369 108.35 223.857 121.237C229.346 134.125 228.472 142.115 228.472 142.115" fill="white"/>
<path d="M219.868 76.3896C219.868 76.3896 217.415 82.5653 217.621 88.3748C217.869 95.3328 218.369 108.35 223.857 121.237C229.346 134.125 228.472 142.115 228.472 142.115" stroke="#454545" stroke-width="3" stroke-miterlimit="10" stroke-linecap="round" stroke-linejoin="round"/>
<path d="M179.573 164.407C179.573 164.407 183.44 174.974 195.668 174.332C207.895 173.689 211.385 164.021 211.385 164.021" fill="white"/>
<path d="M179.573 164.407C179.573 164.407 183.44 174.974 195.668 174.332C207.895 173.689 211.385 164.021 211.385 164.021" stroke="#454545" stroke-width="3" stroke-miterlimit="10" stroke-linecap="round" stroke-linejoin="round"/>
<path d="M192.506 8.817C192.506 8.817 200.073 0.740372 210.638 1.68586C221.199 2.63136 226.023 6.75623 227.938 9.15991C229.852 11.5636 232.511 13.5411 234.174 12.5091C235.837 11.477 237.416 11.7367 237.167 14.0572C236.919 16.3776 235.753 22.0472 225.356 24.0248C214.959 26.0023 204.482 20.4159 202.236 15.8616C199.99 11.3072 192.838 9.84905 191.675 11.1375C190.511 12.4258 191.256 9.93228 192.506 8.817Z" fill="#454545" stroke="#454545" stroke-width="3" stroke-miterlimit="10"/>
<path d="M225.73 43.3307C225.73 43.3307 223.032 45.9175 219.748 46.0207C216.603 46.1206 213.387 43.4805 213.387 43.4805C213.1 43.2941 213.013 42.9013 213.193 42.6016C213.374 42.3053 213.754 42.2154 214.044 42.4019C214.044 42.4019 216.703 44.8122 219.748 44.7456C222.543 44.6857 224.979 42.3153 224.979 42.3153C225.25 42.1023 225.636 42.1555 225.843 42.4318C226.052 42.7182 226.001 43.1177 225.73 43.3307Z" fill="#454545" stroke="#454545" stroke-miterlimit="10"/>
<path d="M209.886 40.3907C209.055 40.3907 208.381 39.6949 208.381 38.8359V36.875C208.381 36.0161 209.055 35.3203 209.886 35.3203C210.718 35.3203 211.391 36.0161 211.391 36.875V38.8359C211.391 39.6949 210.718 40.3907 209.886 40.3907Z" fill="#454545" stroke="#454545" stroke-miterlimit="10"/>
<path d="M227.686 40.3907C226.855 40.3907 226.181 39.6949 226.181 38.8359V36.875C226.181 36.0161 226.855 35.3203 227.686 35.3203C228.518 35.3203 229.191 36.0161 229.191 36.875V38.8359C229.191 39.6949 228.518 40.3907 227.686 40.3907Z" fill="#454545"/>
<path d="M79.1452 236.63C79.1452 232.898 76.7636 229.875 73.8212 229.875C70.8788 229.875 68.4972 232.901 68.4972 236.63C68.4972 239.08 69.5285 241.221 71.0657 242.403L71.6104 269.509C70.8369 270.128 70.3471 271.044 70.3471 272.069C70.3471 273.484 71.2817 274.696 72.603 275.199C72.4258 276.034 72.3226 277.046 72.3226 278.135C72.3226 281.018 73.0477 283.355 73.9437 283.355C74.8396 283.355 75.5647 281.018 75.5647 278.135C75.5647 277.053 75.4616 276.044 75.2876 275.212C76.6315 274.719 77.5822 273.501 77.5822 272.069C77.5822 270.921 76.9699 269.912 76.032 269.299L76.5702 242.403C78.1139 241.221 79.1452 239.08 79.1452 236.63Z" fill="white" stroke="#454545" stroke-width="3" stroke-miterlimit="10"/>
<path d="M116.823 236.887C116.823 233.155 114.441 230.132 111.499 230.132C108.556 230.132 106.175 233.158 106.175 236.887C106.175 239.337 107.206 241.478 108.743 242.66L109.288 269.766C108.514 270.385 108.024 271.301 108.024 272.326C108.024 273.741 108.959 274.953 110.28 275.456C110.103 276.291 110 277.303 110 278.392C110 281.275 110.725 283.612 111.621 283.612C112.517 283.612 113.242 281.275 113.242 278.392C113.242 277.31 113.139 276.301 112.965 275.469C114.309 274.976 115.26 273.758 115.26 272.326C115.26 271.178 114.647 270.169 113.709 269.556L114.248 242.66C115.791 241.478 116.823 239.337 116.823 236.887Z" fill="white" stroke="#454545" stroke-width="3" stroke-miterlimit="10"/>
<path d="M139.527 234.247C139.527 230.778 137.313 227.964 134.58 227.964C131.847 227.964 129.633 230.778 129.633 234.247C129.633 236.524 130.594 238.515 132.021 239.613L132.527 264.815C131.809 265.391 131.354 266.243 131.354 267.196C131.354 268.511 132.221 269.636 133.452 270.105C133.288 270.884 133.191 271.823 133.191 272.835C133.191 275.515 133.865 277.689 134.7 277.689C135.531 277.689 136.208 275.515 136.208 272.835C136.208 271.83 136.111 270.894 135.95 270.119C137.197 269.659 138.084 268.527 138.084 267.199C138.084 266.134 137.513 265.191 136.643 264.625L137.146 239.62C138.567 238.511 139.527 236.524 139.527 234.247Z" fill="white" stroke="#454545" stroke-width="3" stroke-miterlimit="10"/>
<path d="M99.355 234.759C99.355 231.29 97.1409 228.477 94.408 228.477C91.6751 228.477 89.4611 231.29 89.4611 234.759C89.4611 237.036 90.4214 239.027 91.8491 240.126L92.3551 265.328C91.6364 265.904 91.182 266.756 91.182 267.708C91.182 269.023 92.0489 270.149 93.28 270.618C93.1157 271.397 93.019 272.336 93.019 273.348C93.019 276.028 93.6926 278.202 94.5273 278.202C95.3587 278.202 96.0355 276.028 96.0355 273.348C96.0355 272.343 95.9388 271.407 95.7777 270.631C97.0249 270.172 97.9112 269.04 97.9112 267.712C97.9112 266.646 97.3407 265.704 96.4706 265.138L96.9733 240.133C98.3978 239.027 99.355 237.04 99.355 234.759Z" fill="white" stroke="#454545" stroke-width="3" stroke-miterlimit="10"/>
<path d="M56.8569 133.735C51.0365 136.142 42.3866 139.405 43.7176 150.231C45.0486 161.058 57.3564 174.115 57.3564 186.832C57.3564 199.55 54.3624 216.043 60.8499 218.45L66.8378 218.623V229.792C66.8378 229.792 66.6702 234.603 71.4947 234.603C76.3192 234.603 114.909 234.603 114.909 234.603C114.909 234.603 119.897 234.776 119.897 229.449C119.897 224.123 119.897 213.812 119.897 213.812C119.897 213.812 120.229 208.572 114.825 208.572C109.42 208.572 104.596 189.412 104.928 185.634C105.26 181.855 108.921 135.286 99.9388 132.54C90.957 129.783 62.6804 131.331 56.8569 133.735Z" fill="white" stroke="#454545" stroke-width="3" stroke-miterlimit="10"/>
<path d="M62.1809 135.798C62.1809 135.798 53.9467 139.407 53.4472 141.984C52.9476 144.561 52.4481 151.262 57.9397 161.057C63.4313 170.851 65.1748 180.646 65.6744 187.348" fill="white"/>
<path d="M62.1809 135.798C62.1809 135.798 53.9467 139.407 53.4472 141.984C52.9476 144.561 52.4481 151.262 57.9397 161.057C63.4313 170.851 65.1748 180.646 65.6744 187.348" stroke="#454545" stroke-width="2" stroke-miterlimit="10"/>
<path d="M127.29 187.078C127.29 187.078 134.715 188.536 136.965 190.054C138.931 191.383 139.959 193.563 140.178 197.319C140.397 201.074 138.196 200.848 138.196 200.848C138.196 200.848 131.148 201.986 128.502 200.848C125.859 199.709 119.581 190.607 122.553 189.012C125.524 187.418 127.29 187.078 127.29 187.078Z" fill="white" stroke="#454545" stroke-width="3" stroke-miterlimit="10" stroke-linecap="round" stroke-linejoin="round"/>
<path d="M136.127 193.107C136.127 193.107 139.295 196.18 138.19 200.504C137.403 203.587 135.438 201.869 135.438 201.869C135.438 201.869 135.605 197.205 133.865 195.724C133.865 195.724 136.079 197.698 135.141 202.552C134.593 205.392 132.163 202.785 132.095 200.731C132.057 199.576 130.13 196.406 130.13 196.406C130.13 196.406 132.782 200.388 132.095 202.778C131.409 205.169 129.933 202.891 129.736 201.869C129.54 200.844 126.591 200.161 126.298 198.683" fill="white"/>
<path d="M136.127 193.107C136.127 193.107 139.295 196.18 138.19 200.504C137.403 203.587 135.438 201.869 135.438 201.869C135.438 201.869 135.605 197.205 133.865 195.724C133.865 195.724 136.079 197.698 135.141 202.552C134.593 205.392 132.163 202.785 132.095 200.731C132.057 199.576 130.13 196.406 130.13 196.406C130.13 196.406 132.782 200.388 132.095 202.778C131.409 205.169 129.933 202.891 129.736 201.869C129.54 200.844 126.591 200.161 126.298 198.683" stroke="#454545" stroke-width="3" stroke-miterlimit="10" stroke-linecap="round" stroke-linejoin="round"/>
<path d="M92.8871 153.167C93.5478 151.689 95.3848 140.726 103.426 140.726C111.466 140.726 115.982 150.284 114.77 155.861C113.558 161.437 108.711 178.05 110.364 181.918C110.364 181.918 122.15 183.966 128.869 186.925C128.869 186.925 125.821 189.126 125.124 194.436C124.573 198.647 127.99 200.582 127.99 200.582C127.99 200.582 117.28 203.425 102.655 199.786C88.0659 196.151 88.6266 186.772 88.6266 179.265C88.6266 170.759 92.8871 153.167 92.8871 153.167Z" fill="white" stroke="#454545" stroke-width="3" stroke-miterlimit="10"/>
<path d="M140.703 253.932L141.325 272.728C141.522 274.3 142.537 275.631 143.965 276.204L156.098 282.366L139.456 282.127C139.456 282.127 134.635 282.529 133.001 282.366C131.457 282.213 129.146 281.834 128.724 278.431C128.334 275.298 131.695 273.767 132.069 272.166C133.368 266.583 132.537 255.377 132.537 255.377L140.703 253.932Z" fill="white" stroke="#454545" stroke-width="3" stroke-miterlimit="10"/>
<path d="M144.513 275.298C144.513 275.298 140.626 275.861 139.301 278.271C137.977 280.682 136.891 281.644 136.891 281.644L128.805 281.484C128.805 281.484 126.707 282.689 128.338 283.252C129.972 283.814 161.697 283.491 161.697 283.491C161.697 283.491 163.33 281.161 160.298 280.439C157.265 279.716 144.745 275.781 144.513 275.298Z" fill="white" stroke="#454545" stroke-width="3" stroke-miterlimit="10"/>
<path d="M124.558 253.07L125.221 273.175C125.434 274.853 126.517 276.281 128.045 276.894L141.023 283.485L123.223 283.229C123.223 283.229 118.067 283.658 116.32 283.485C114.67 283.322 112.198 282.916 111.747 279.274C111.331 275.925 114.925 274.287 115.324 272.572C116.713 266.603 115.824 254.615 115.824 254.615L124.558 253.07Z" fill="white" stroke="#454545" stroke-width="3" stroke-miterlimit="10"/>
<path d="M128.631 275.924C128.631 275.924 124.474 276.527 123.059 279.104C121.644 281.681 120.481 282.713 120.481 282.713L111.831 282.539C111.831 282.539 109.585 283.828 111.331 284.43C113.078 285.033 147.011 284.687 147.011 284.687C147.011 284.687 148.757 282.197 145.512 281.421C142.27 280.648 128.883 276.44 128.631 275.924Z" fill="white" stroke="#454545" stroke-width="3" stroke-miterlimit="10"/>
<path d="M88.3789 123.94C88.3789 123.94 78.6493 127.419 70.9147 142.627C63.18 157.834 60.5599 206.291 70.4151 215.569C80.2704 224.848 111.583 223.173 112.83 224.978C114.077 226.782 113.33 259.645 113.33 259.645C113.33 259.645 128.551 268.923 146.637 259.258C146.637 259.258 153.624 223.819 144.89 208.095C136.16 192.372 111.831 192.501 111.831 192.501C111.831 192.501 110.458 178.842 112.079 175.363C113.7 171.884 121.312 163.378 118.94 153.969C116.568 144.561 111.953 129.869 103.097 127.163C94.2411 124.456 88.3789 123.94 88.3789 123.94Z" fill="#DDDEDE" stroke="#454545" stroke-width="3" stroke-miterlimit="10"/>
<path d="M112.756 224.505L111.083 228.93H76.6089C71.1206 228.93 66.6699 224.429 66.6699 218.879V208.568C66.6699 203.015 71.1206 198.518 76.6089 198.518H113.477C118.966 198.518 115.111 205.229 115.111 210.782L114.538 213.745C114.541 219.295 118.247 224.505 112.756 224.505Z" fill="#DDDEDE" stroke="#454545" stroke-width="3" stroke-miterlimit="10"/>
<path d="M115.837 227.182L111.086 228.823C109.117 228.823 107.522 226.55 107.522 223.74V204.927C107.522 202.12 108.917 200.639 111.086 199.843L115.837 198.857C117.806 198.857 119.401 201.131 119.401 203.941V222.099C119.401 224.905 117.87 226.367 115.837 227.182Z" fill="white" stroke="#454545" stroke-width="3" stroke-miterlimit="10"/>
<path d="M104.306 189.839C104.306 189.839 112.714 191.49 115.263 193.211C117.487 194.716 118.653 197.186 118.902 201.438C119.15 205.689 116.655 205.433 116.655 205.433C116.655 205.433 108.672 206.721 105.678 205.433C102.685 204.144 95.5751 193.834 98.9429 192.029C102.311 190.225 104.306 189.839 104.306 189.839Z" fill="white" stroke="#454545" stroke-width="3" stroke-miterlimit="10" stroke-linecap="round" stroke-linejoin="round"/>
<path d="M114.316 196.671C114.316 196.671 117.906 200.15 116.652 205.047C115.759 208.539 113.536 206.595 113.536 206.595C113.536 206.595 113.726 201.312 111.753 199.637C111.753 199.637 114.261 201.874 113.2 207.371C112.579 210.587 109.826 207.637 109.749 205.31C109.707 204.002 107.522 200.413 107.522 200.413C107.522 200.413 110.529 204.924 109.749 207.631C108.969 210.337 107.3 207.76 107.077 206.599C106.855 205.437 103.516 204.664 103.181 202.99" fill="white"/>
<path d="M114.316 196.671C114.316 196.671 117.906 200.15 116.652 205.047C115.759 208.539 113.536 206.595 113.536 206.595C113.536 206.595 113.726 201.312 111.753 199.637C111.753 199.637 114.261 201.874 113.2 207.371C112.579 210.587 109.826 207.637 109.749 205.31C109.707 204.002 107.522 200.413 107.522 200.413C107.522 200.413 110.529 204.924 109.749 207.631C108.969 210.337 107.3 207.76 107.077 206.599C106.855 205.437 103.516 204.664 103.181 202.99" stroke="#454545" stroke-width="3" stroke-miterlimit="10" stroke-linecap="round" stroke-linejoin="round"/>
<path d="M65.3393 151.433C66.087 149.758 68.1657 137.344 77.2732 137.344C86.3808 137.344 91.4953 148.17 90.1224 154.482C88.7495 160.798 83.2611 179.611 85.1336 183.996C85.1336 183.996 98.4823 186.316 106.091 189.665C106.091 189.665 102.636 192.156 101.85 198.171C101.225 202.939 105.092 205.129 105.092 205.129C105.092 205.129 92.9617 208.349 76.3999 204.227C59.8799 200.116 60.5148 189.492 60.5148 180.986C60.5181 171.358 65.3393 151.433 65.3393 151.433Z" fill="white" stroke="#454545" stroke-width="3" stroke-miterlimit="10"/>
<path d="M124.889 84.2493C124.889 84.2493 135.202 101.778 135.202 111.915C135.202 122.052 126.388 133.908 111.25 131.674C111.25 131.674 106.593 133.049 106.094 141.125C105.594 149.202 106.426 151.606 100.106 147.311C93.7862 143.016 86.9668 128.754 87.9627 125.488C88.9617 122.222 96.6126 113.803 95.7811 107.101C94.9496 100.399 87.7532 95.7051 100.274 84.9351C115.321 71.9879 124.976 83.0641 124.889 84.2493Z" fill="white" stroke="#454545" stroke-width="3" stroke-miterlimit="10" stroke-linecap="round" stroke-linejoin="round"/>
<path d="M87.5053 125.618C87.5053 125.618 98.2339 146.109 104.473 146.881C104.473 146.881 108.092 143.659 107.341 138.245C106.594 132.832 112.582 140.18 114.203 150.101C115.824 160.025 105.347 148.812 105.347 148.812C105.347 148.812 102.601 156.932 100.232 158.091C97.86 159.253 84.637 133.348 87.5053 125.618Z" fill="white" stroke="#454545" stroke-width="3" stroke-miterlimit="10" stroke-linecap="round" stroke-linejoin="round"/>
<path d="M118.734 86.6532C118.734 86.6532 125.885 99.0244 131.042 101.085C136.198 103.146 138.029 95.2425 136.698 90.0889C135.367 84.9353 124.39 62.9393 108.089 76.8587C102.085 75.2274 87.5472 77.7143 86.7995 93.1817C86.7995 93.1817 75.9871 95.2425 77.4857 110.194C78.9843 125.145 86.6351 121.19 86.6351 121.19C86.6351 121.19 89.961 128.751 94.4535 126.69C98.9461 124.629 103.103 111.569 103.103 109.335C103.103 107.101 121.228 108.306 118.734 86.6532Z" fill="#454545" stroke="#454545" stroke-miterlimit="10"/>
<path d="M130.235 108.949C130.235 108.949 128.93 112.505 126.033 114.103C123.258 115.634 119.239 114.742 119.239 114.742C118.901 114.706 118.656 114.393 118.692 114.043C118.727 113.693 119.03 113.44 119.368 113.477C119.368 113.477 122.788 114.419 125.488 112.961C127.967 111.626 129.133 108.387 129.133 108.387C129.285 108.07 129.652 107.941 129.958 108.097C130.261 108.254 130.387 108.636 130.235 108.949Z" fill="#454545"/>
<path d="M116.053 112.435C115.276 112.744 114.406 112.342 114.106 111.542L113.423 109.711C113.123 108.909 113.513 108.01 114.286 107.701C115.063 107.391 115.933 107.794 116.233 108.593L116.916 110.424C117.216 111.223 116.829 112.125 116.053 112.435Z" fill="#454545"/>
<path d="M131.071 106.942C130.285 107.218 129.427 106.782 129.16 105.966L128.551 104.108C128.283 103.296 128.705 102.411 129.495 102.134C130.281 101.858 131.139 102.294 131.406 103.11L132.015 104.967C132.283 105.783 131.86 106.665 131.071 106.942Z" fill="#454545"/>
<path d="M517.777 242.912C517.777 239.78 515.396 237.243 512.453 237.243C509.511 237.243 507.129 239.783 507.129 242.912C507.129 244.97 508.161 246.764 509.698 247.76L510.242 270.511C509.469 271.031 508.979 271.8 508.979 272.662C508.979 273.851 509.914 274.866 511.235 275.289C511.058 275.991 510.955 276.84 510.955 277.752C510.955 280.173 511.68 282.134 512.576 282.134C513.472 282.134 514.197 280.173 514.197 277.752C514.197 276.843 514.094 275.998 513.92 275.299C515.264 274.886 516.214 273.861 516.214 272.662C516.214 271.7 515.602 270.851 514.664 270.338L515.202 247.76C516.746 246.764 517.777 244.97 517.777 242.912Z" fill="white" stroke="#454545" stroke-width="3" stroke-miterlimit="10"/>
<path d="M495.82 244.973C495.82 241.841 493.439 239.304 490.496 239.304C487.554 239.304 485.172 241.844 485.172 244.973C485.172 247.031 486.203 248.825 487.741 249.821L488.285 272.572C487.512 273.092 487.022 273.861 487.022 274.723C487.022 275.912 487.957 276.927 489.278 277.35C489.101 278.052 488.998 278.901 488.998 279.813C488.998 282.234 489.723 284.195 490.619 284.195C491.515 284.195 492.24 282.234 492.24 279.813C492.24 278.904 492.137 278.059 491.963 277.36C493.306 276.947 494.257 275.922 494.257 274.723C494.257 273.761 493.645 272.912 492.707 272.399L493.245 249.821C494.789 248.825 495.82 247.031 495.82 244.973Z" fill="white" stroke="#454545" stroke-width="3" stroke-miterlimit="10"/>
<path d="M457.644 155.065C457.644 155.065 470.225 142.038 495.569 142.824C520.52 143.596 532.37 144.884 534.99 150.298C537.61 155.711 528.254 209.321 520.52 212.67C517.371 214.035 520.362 224.243 519.772 231.057C519.34 236.058 517.513 240.299 516.404 241.281C513.784 243.602 488.334 245.922 449.413 242.054C410.491 238.185 410.114 225.817 412.36 222.335C414.607 218.856 432.944 196.044 444.92 195.658C456.896 195.272 457.644 155.065 457.644 155.065Z" fill="white" stroke="#454545" stroke-width="3" stroke-miterlimit="10"/>
<path d="M439.538 203.841C439.135 203.711 438.684 203.641 438.181 203.651C435.358 203.698 413.898 203.309 411.4 204.424C408.906 205.539 409.901 218.426 409.901 218.426C409.901 218.426 410.15 225.215 412.979 225.731C415.809 226.247 437.156 225.914 439.509 225.817C440.083 225.794 440.653 225.591 441.166 225.161C442.645 224.402 443.666 222.831 443.666 221.007V208.462C443.673 206.022 441.852 204.028 439.538 203.841Z" fill="white" stroke="#454545" stroke-width="3" stroke-miterlimit="10"/>
<path d="M415.812 225.731H412.986C410.505 225.731 408.494 223.654 408.494 221.09V208.546C408.494 205.982 410.505 203.905 412.986 203.905H415.812C418.294 203.905 420.305 205.982 420.305 208.546V221.09C420.302 223.654 418.291 225.731 415.812 225.731Z" fill="white" stroke="#454545" stroke-width="3" stroke-miterlimit="10"/>
<path d="M520.771 147.977C520.771 147.977 525.228 149.945 526.511 153.39C527.758 156.739 523.269 170.919 523.269 170.919" fill="white"/>
<path d="M520.771 147.977C520.771 147.977 525.228 149.945 526.511 153.39C527.758 156.739 523.269 170.919 523.269 170.919" stroke="#454545" stroke-width="3" stroke-miterlimit="10" stroke-linecap="round" stroke-linejoin="round"/>
<path d="M430.45 201.414C430.45 201.414 431.613 203.778 429.451 205.366C427.288 206.954 425.5 207.513 425.584 208.675C425.667 209.837 422.922 207.816 423.753 206.571C424.585 205.326 428.536 200.299 428.909 200.342C429.283 200.385 430.45 201.414 430.45 201.414Z" fill="white" stroke="#454545" stroke-width="3" stroke-miterlimit="10"/>
<path d="M413.482 208.419C413.356 209.065 410.488 210.224 409.74 205.712C408.992 201.201 415.48 199.141 415.48 199.141C415.48 199.141 423.672 197.206 426.334 197.895C428.996 198.585 429.576 201.461 429.16 202.233C428.745 203.006 423.756 205.153 422.799 205.886C421.841 206.618 416.185 208.892 415.647 208.978C415.103 209.062 413.482 208.419 413.482 208.419Z" fill="white" stroke="#454545" stroke-width="3" stroke-miterlimit="10" stroke-linecap="round" stroke-linejoin="round"/>
<path d="M414.107 201.607C413.897 201.694 411.841 204.208 411.925 206.225C412.009 208.243 412.859 210.929 413.775 211.272C414.69 211.615 415.48 211.315 415.853 211.056C416.227 210.799 416.353 209.854 416.353 209.295C416.353 208.735 416.852 204.614 417.516 204.141C418.18 203.668 418.764 202.939 418.764 202.939" fill="white"/>
<path d="M414.107 201.607C413.897 201.694 411.841 204.208 411.925 206.225C412.009 208.243 412.859 210.929 413.775 211.272C414.69 211.615 415.48 211.315 415.853 211.056C416.227 210.799 416.353 209.854 416.353 209.295C416.353 208.735 416.852 204.614 417.516 204.141C418.18 203.668 418.764 202.939 418.764 202.939" stroke="#454545" stroke-width="3" stroke-miterlimit="10" stroke-linecap="round" stroke-linejoin="round"/>
<path d="M418.245 201.824C418.245 201.824 416.707 203.498 416.166 205.775C415.908 206.867 415.625 209.857 417.081 210.803C418.538 211.748 419.743 211.748 420.285 211.189C420.826 210.629 419.66 209.514 420.91 207.84C422.157 206.165 424.362 202.856 424.362 202.856" fill="white"/>
<path d="M418.245 201.824C418.245 201.824 416.707 203.498 416.166 205.775C415.908 206.867 415.625 209.857 417.081 210.803C418.538 211.748 419.743 211.748 420.285 211.189C420.826 210.629 419.66 209.514 420.91 207.84C422.157 206.165 424.362 202.856 424.362 202.856" stroke="#454545" stroke-width="3" stroke-miterlimit="10" stroke-linecap="round" stroke-linejoin="round"/>
<path d="M430.656 199.739C430.656 199.739 430.324 203.391 428.703 204.207C427.082 205.023 424.961 206.248 424.587 207.579C424.214 208.911 423.798 210.995 422.593 210.995C421.387 210.995 419.286 210.609 419.911 207.13C420.536 203.651 421.513 202.406 422.718 201.847" fill="white"/>
<path d="M430.656 199.739C430.656 199.739 430.324 203.391 428.703 204.207C427.082 205.023 424.961 206.248 424.587 207.579C424.214 208.911 423.798 210.995 422.593 210.995C421.387 210.995 419.286 210.609 419.911 207.13C420.536 203.651 421.513 202.406 422.718 201.847" stroke="#454545" stroke-width="3" stroke-miterlimit="10" stroke-linecap="round" stroke-linejoin="round"/>
<path d="M460.389 144.109C451.282 152.485 441.426 172.846 438.058 182.9C434.691 192.951 434.816 192.309 427.204 194.113C419.595 195.918 414.729 199.14 414.729 199.14C414.729 199.14 427.33 197.982 429.45 204.037C431.571 210.093 443.673 203.908 447.666 201.847C451.659 199.786 461.14 186.769 462.261 181.615C463.383 176.462 467.502 158.934 471.495 156.613C475.488 154.293 469.497 135.732 460.389 144.109Z" fill="white" stroke="#454545" stroke-width="3" stroke-miterlimit="10" stroke-linecap="round" stroke-linejoin="round"/>
<path d="M517.4 145.4C517.4 145.4 505.55 135.35 493.697 134.963C482.639 134.604 476.98 135.995 469.371 141.795C461.827 147.544 455.897 156.227 453.528 162.286C451.159 168.342 446.042 189.995 445.919 196.051C445.919 196.051 429.825 197.599 418.1 212.933C406.373 228.267 407.997 273.505 408.245 276.724C408.493 279.943 430.701 281.235 436.689 281.235C442.677 281.235 483.845 279.301 487.838 277.626C491.831 275.952 488.212 278.142 488.212 278.142C488.212 278.142 487.98 243.345 487.922 240.769C487.838 237.116 489.336 228.913 499.939 228.138C520.281 226.653 516.781 200.945 516.781 194.889C516.781 188.833 515.035 159.45 515.534 155.841C516.031 152.229 517.4 145.4 517.4 145.4Z" fill="white" stroke="#454545" stroke-width="3" stroke-miterlimit="10"/>
<path d="M518.631 207.447C518.228 207.317 517.777 207.247 517.274 207.257C514.451 207.303 492.991 206.914 490.493 208.029C487.999 209.145 488.995 222.032 488.995 222.032C488.995 222.032 489.243 228.82 492.072 229.336C494.902 229.852 516.25 229.519 518.602 229.423C519.176 229.399 519.746 229.196 520.259 228.767C521.738 228.008 522.76 226.436 522.76 224.612V212.068C522.766 209.631 520.945 207.636 518.631 207.447Z" fill="white" stroke="#454545" stroke-width="3" stroke-miterlimit="10"/>
<path d="M494.906 229.336H492.079C489.598 229.336 487.587 227.259 487.587 224.696V212.151C487.587 209.588 489.598 207.51 492.079 207.51H494.906C497.387 207.51 499.398 209.588 499.398 212.151V224.696C499.395 227.262 497.384 229.336 494.906 229.336Z" fill="white" stroke="#454545" stroke-width="3" stroke-miterlimit="10"/>
<path d="M491.328 210.35C492.499 210.35 493.449 209.311 493.449 208.029C493.449 206.748 492.499 205.709 491.328 205.709C490.157 205.709 489.207 206.748 489.207 208.029C489.207 209.311 490.157 210.35 491.328 210.35Z" fill="white" stroke="#454545" stroke-width="3" stroke-miterlimit="10"/>
<path d="M488.624 207.517C489.795 207.517 490.745 206.478 490.745 205.196C490.745 203.915 489.795 202.876 488.624 202.876C487.453 202.876 486.504 203.915 486.504 205.196C486.504 206.478 487.453 207.517 488.624 207.517Z" fill="white" stroke="#454545" stroke-width="3" stroke-miterlimit="10"/>
<path d="M493.365 214.132C494.536 214.132 495.485 213.093 495.485 211.812C495.485 210.53 494.536 209.491 493.365 209.491C492.193 209.491 491.244 210.53 491.244 211.812C491.244 213.093 492.193 214.132 493.365 214.132Z" fill="white" stroke="#454545" stroke-width="3" stroke-miterlimit="10"/>
<path d="M484.966 206.485C486.137 206.485 487.087 205.446 487.087 204.164C487.087 202.883 486.137 201.844 484.966 201.844C483.795 201.844 482.846 202.883 482.846 204.164C482.846 205.446 483.795 206.485 484.966 206.485Z" fill="white" stroke="#454545" stroke-width="3" stroke-miterlimit="10"/>
<path d="M491.889 198.671L491.792 201.997C491.792 201.997 494.225 202.929 493.51 203.378C492.794 203.831 488.418 208.355 487 209.524C485.582 210.693 488.121 217.784 488.121 217.784C490.429 219.282 494.174 219.874 496.442 218.087C497.657 217.131 504.499 211.695 505.472 209.128C506.446 206.564 506.781 199.59 502.575 197.596C500.58 196.65 499.875 196.041 498.228 196.094L491.889 198.671Z" fill="white" stroke="#454545" stroke-width="3" stroke-miterlimit="10" stroke-linecap="round" stroke-linejoin="round"/>
<path d="M494.77 215.883C494.77 215.883 493.764 217.917 489.536 217.448C485.305 216.978 484.725 214.591 484.725 214.591" fill="white"/>
<path d="M494.77 215.883C494.77 215.883 493.764 217.917 489.536 217.448C485.305 216.978 484.725 214.591 484.725 214.591" stroke="#454545" stroke-width="3" stroke-miterlimit="10" stroke-linecap="round" stroke-linejoin="round"/>
<path d="M493.348 213.466C492.765 214.358 488.878 215.623 487.048 215.304C484.833 214.917 483.506 212.913 484.186 211.731" fill="white"/>
<path d="M493.348 213.466C492.765 214.358 488.878 215.623 487.048 215.304C484.833 214.917 483.506 212.913 484.186 211.731" stroke="#454545" stroke-width="3" stroke-miterlimit="10" stroke-linecap="round" stroke-linejoin="round"/>
<path d="M490.715 210.726C490.255 211.162 487.863 212.447 484.943 211.748C482.024 211.052 481.466 208.469 482.252 207.467C483.683 205.646 485.582 207.543 486.951 207.68C488.324 207.813 492.514 202.683 493.342 202.32C492.201 202.316 493.729 202.373 490.032 203.295C486.149 204.267 484.318 201.67 484.582 200.229C484.934 198.288 486.584 199.22 488.302 199.55C490.019 199.883 493.729 196.93 493.729 196.93C493.729 196.93 495.011 196.563 496.842 196.504C496.842 196.504 502.749 196.187 504.322 199.05C505.898 201.913 506.555 205.975 506.555 205.975L506.156 208.519" fill="white"/>
<path d="M490.715 210.726C490.255 211.162 487.863 212.447 484.943 211.748C482.024 211.052 481.466 208.469 482.252 207.467C483.683 205.646 485.582 207.543 486.951 207.68C488.324 207.813 492.514 202.683 493.342 202.32C492.201 202.316 493.729 202.373 490.032 203.295C486.149 204.267 484.318 201.67 484.582 200.229C484.934 198.288 486.584 199.22 488.302 199.55C490.019 199.883 493.729 196.93 493.729 196.93C493.729 196.93 495.011 196.563 496.842 196.504C496.842 196.504 502.749 196.187 504.322 199.05C505.898 201.913 506.555 205.975 506.555 205.975L506.156 208.519" stroke="#454545" stroke-width="3" stroke-miterlimit="10" stroke-linecap="round" stroke-linejoin="round"/>
<path d="M493.242 224.356C494.666 224.356 495.821 223.164 495.821 221.693C495.821 220.222 494.666 219.029 493.242 219.029C491.818 219.029 490.664 220.222 490.664 221.693C490.664 223.164 491.818 224.356 493.242 224.356Z" fill="white" stroke="#454545" stroke-width="3" stroke-miterlimit="10"/>
<path d="M490.58 227.619C492.004 227.619 493.159 226.426 493.159 224.955C493.159 223.484 492.004 222.292 490.58 222.292C489.156 222.292 488.002 223.484 488.002 224.955C488.002 226.426 489.156 227.619 490.58 227.619Z" fill="white" stroke="#454545" stroke-width="3" stroke-miterlimit="10"/>
<path d="M481.267 209.404C482.554 209.404 483.597 208.385 483.597 207.127C483.597 205.87 482.554 204.85 481.267 204.85C479.98 204.85 478.937 205.87 478.937 207.127C478.937 208.385 479.98 209.404 481.267 209.404Z" fill="white" stroke="#454545" stroke-width="3" stroke-miterlimit="10"/>
<path d="M480.267 214.132C481.691 214.132 482.846 212.939 482.846 211.469C482.846 209.998 481.691 208.805 480.267 208.805C478.844 208.805 477.689 209.998 477.689 211.469C477.689 212.939 478.844 214.132 480.267 214.132Z" fill="white" stroke="#454545" stroke-width="3" stroke-miterlimit="10"/>
<path d="M480.267 219.715C481.691 219.715 482.846 218.522 482.846 217.052C482.846 215.581 481.691 214.388 480.267 214.388C478.844 214.388 477.689 215.581 477.689 217.052C477.689 218.522 478.844 219.715 480.267 219.715Z" fill="white" stroke="#454545" stroke-width="3" stroke-miterlimit="10"/>
<path d="M482.098 225.042C483.522 225.042 484.676 223.849 484.676 222.378C484.676 220.907 483.522 219.715 482.098 219.715C480.674 219.715 479.52 220.907 479.52 222.378C479.52 223.849 480.674 225.042 482.098 225.042Z" fill="white" stroke="#454545" stroke-width="3" stroke-miterlimit="10"/>
<path d="M486.255 227.965C487.679 227.965 488.834 226.772 488.834 225.302C488.834 223.831 487.679 222.638 486.255 222.638C484.832 222.638 483.677 223.831 483.677 225.302C483.677 226.772 484.832 227.965 486.255 227.965Z" fill="white" stroke="#454545" stroke-width="3" stroke-miterlimit="10"/>
<path d="M493.471 82.3821C482.991 80.0616 471.141 82.3821 464.527 93.2086C457.914 104.035 459.787 121.044 461.782 125.169C463.777 129.294 462.259 134.707 462.259 138.186C462.259 141.665 461.256 161.51 473.361 161.51C486.336 161.51 497.19 142.181 504.925 140.377C509.185 139.381 511.66 140.12 517.4 145.404C517.4 145.404 519.021 134.707 512.286 133.548C505.55 132.39 507.919 119.629 509.044 113.703C510.168 107.777 503.948 84.6992 493.471 82.3821Z" fill="#DDDEDE" stroke="#454545" stroke-width="3" stroke-miterlimit="10"/>
<path d="M492.701 113.44C492.701 125.349 489.832 133.801 474.237 133.415C464.685 133.179 461.243 125.522 461.243 113.613C461.243 101.705 463.979 92.696 475.484 92.1766C489.832 91.5308 492.701 101.528 492.701 113.44Z" fill="white" stroke="#454545" stroke-width="3" stroke-miterlimit="10"/>
<path d="M502.183 158.028C502.244 157.512 508.483 143.014 513.159 143.789C517.839 144.562 521.142 149.782 521.829 155.388C522.515 160.995 523.327 190.311 523.388 195.595C523.45 200.878 523.388 206.934 518.648 209.128C513.907 211.319 504.925 212.501 504.3 211.728C503.675 210.956 505.547 199.7 496.813 197.596C492.137 196.47 491.157 197.379 491.157 197.379C491.157 197.379 498.808 190.741 503.301 189.133C503.301 189.133 503.427 170.533 503.549 165.829" fill="white"/>
<path d="M502.183 158.028C502.244 157.512 508.483 143.014 513.159 143.789C517.839 144.562 521.142 149.782 521.829 155.388C522.515 160.995 523.327 190.311 523.388 195.595C523.45 200.878 523.388 206.934 518.648 209.128C513.907 211.319 504.925 212.501 504.3 211.728C503.675 210.956 505.547 199.7 496.813 197.596C492.137 196.47 491.157 197.379 491.157 197.379C491.157 197.379 498.808 190.741 503.301 189.133C503.301 189.133 503.427 170.533 503.549 165.829" stroke="#454545" stroke-width="3" stroke-miterlimit="10" stroke-linecap="round" stroke-linejoin="round"/>
<path d="M499.562 165.052C499.562 165.052 500.935 169.433 503.556 170.915L499.562 165.052Z" fill="white"/>
<path d="M499.562 165.052C499.562 165.052 500.935 169.433 503.556 170.915" stroke="#454545" stroke-width="3" stroke-miterlimit="10" stroke-linecap="round" stroke-linejoin="round"/>
<path d="M454.901 198.109C452.906 195.146 445.919 196.048 445.919 196.048C445.919 196.048 449.039 192.183 454.153 193.341" fill="white"/>
<path d="M454.901 198.109C452.906 195.146 445.919 196.048 445.919 196.048C445.919 196.048 449.039 192.183 454.153 193.341" stroke="#454545" stroke-width="3" stroke-miterlimit="10" stroke-linecap="round" stroke-linejoin="round"/>
<path d="M479.558 114.812C479.558 114.812 476.86 117.398 473.576 117.502C470.431 117.602 467.215 114.961 467.215 114.961C466.928 114.775 466.841 114.382 467.021 114.083C467.202 113.786 467.582 113.696 467.872 113.883C467.872 113.883 470.531 116.293 473.576 116.227C476.37 116.167 478.807 113.796 478.807 113.796C479.078 113.583 479.464 113.636 479.671 113.913C479.88 114.199 479.829 114.599 479.558 114.812Z" fill="#454545"/>
<path d="M464.904 113.663C464.073 113.663 463.399 112.967 463.399 112.108V110.148C463.399 109.289 464.073 108.593 464.904 108.593C465.736 108.593 466.409 109.289 466.409 110.148V112.108C466.413 112.964 465.739 113.663 464.904 113.663Z" fill="#454545"/>
<path d="M482.513 113.077C481.682 113.077 481.008 112.381 481.008 111.522V109.562C481.008 108.703 481.682 108.007 482.513 108.007C483.345 108.007 484.018 108.703 484.018 109.562V111.519C484.018 112.378 483.345 113.077 482.513 113.077Z" fill="#454545"/>
</svg>
