<svg xmlns="http://www.w3.org/2000/svg" width="28.746" height="27.93" viewBox="0 0 28.746 27.93">
  <g id="Group_919" data-name="Group 919" transform="translate(-1677.64 -10011)">
    <path id="Path_683" data-name="Path 683" d="M28.715,8.211a9.951,9.951,0,0,0-.668-3.388,6.8,6.8,0,0,0-1.663-2.477A7.1,7.1,0,0,0,23.84.737,10.8,10.8,0,0,0,20.352.087C18.813.016,18.324,0,14.421,0S10.028.016,8.5.082A10.779,10.779,0,0,0,5.007.731a7.038,7.038,0,0,0-2.55,1.615A6.861,6.861,0,0,0,.8,4.818,9.978,9.978,0,0,0,.132,8.206c-.073,1.5-.09,1.97-.09,5.762s.017,4.267.084,5.756a9.951,9.951,0,0,0,.669,3.388,6.872,6.872,0,0,0,1.662,2.477A7.1,7.1,0,0,0,5,27.2a10.805,10.805,0,0,0,3.488.649c1.533.066,2.022.082,5.925.082s4.392-.016,5.926-.082a10.773,10.773,0,0,0,3.488-.649,7.253,7.253,0,0,0,4.207-4.087,9.982,9.982,0,0,0,.668-3.388c.067-1.49.084-1.964.084-5.756S28.782,9.7,28.715,8.211Zm-2.589,11.4a7.467,7.467,0,0,1-.494,2.592,4.7,4.7,0,0,1-2.73,2.652,8.109,8.109,0,0,1-2.668.48c-1.516.066-1.971.082-5.807.082s-4.3-.016-5.808-.082a8.077,8.077,0,0,1-2.668-.48A4.44,4.44,0,0,1,4.3,23.816a4.331,4.331,0,0,1-1.073-1.6,7.492,7.492,0,0,1-.494-2.592c-.068-1.473-.084-1.915-.084-5.642s.017-4.174.084-5.642a7.461,7.461,0,0,1,.494-2.592,4.236,4.236,0,0,1,1.079-1.6A4.478,4.478,0,0,1,5.956,3.1a8.117,8.117,0,0,1,2.668-.48c1.516-.065,1.972-.082,5.808-.082s4.3.016,5.808.082a8.083,8.083,0,0,1,2.668.48,4.436,4.436,0,0,1,1.651,1.042,4.331,4.331,0,0,1,1.073,1.6,7.5,7.5,0,0,1,.494,2.592c.067,1.473.084,1.915.084,5.642S26.193,18.141,26.126,19.615Z" transform="translate(1677.598 10011)" fill="#fff"/>
    <path id="Path_684" data-name="Path 684" d="M13.265,5.837a7.284,7.284,0,0,0-7.386,7.175,7.284,7.284,0,0,0,7.386,7.175,7.284,7.284,0,0,0,7.386-7.175A7.284,7.284,0,0,0,13.265,5.837Zm0,11.829a4.725,4.725,0,0,1-4.791-4.654,4.725,4.725,0,0,1,4.791-4.654,4.725,4.725,0,0,1,4.791,4.654A4.725,4.725,0,0,1,13.265,17.666Z" transform="translate(1678.753 10011.956)" fill="#fff"/>
    <path id="Path_685" data-name="Path 685" d="M20.463,5.829a1.725,1.725,0,1,1-1.724-1.675A1.7,1.7,0,0,1,20.463,5.829Z" transform="translate(1680.957 10011.68)" fill="#fff"/>
  </g>
</svg>
