<svg xmlns="http://www.w3.org/2000/svg" width="24.517" height="23.435" viewBox="0 0 24.517 23.435">
  <g id="Group_918" data-name="Group 918" transform="translate(-1482.621 -10013)">
    <path id="Path_232" data-name="Path 232" d="M3.711,1.219a2.739,2.739,0,1,0-.069,5.464h.034a2.74,2.74,0,1,0,.035-5.464Z" transform="translate(1481.883 10011.781)" fill="#fff"/>
    <path id="Path_233" data-name="Path 233" d="M1.023,8.214H6.279V24.026H1.023Z" transform="translate(1481.908 10012.408)" fill="#fff"/>
    <path id="Path_234" data-name="Path 234" d="M18.508,7.874c-2.835,0-4.736,2.664-4.736,2.664V8.245H8.516V24.056h5.256v-8.83a3.6,3.6,0,0,1,.173-1.283,2.877,2.877,0,0,1,2.7-1.922c1.9,0,2.662,1.45,2.662,3.576v8.459h5.255V14.99C24.558,10.134,21.965,7.874,18.508,7.874Z" transform="translate(1482.58 10012.378)" fill="#fff"/>
  </g>
</svg>
