<svg xmlns="http://www.w3.org/2000/svg" width="26.121" height="26.121" viewBox="0 0 26.121 26.121">
  <path id="phone-1357514dbcba3939e894ee5ed2000a9e50e365969c8f471e73b2c24a545c0cb9" d="M8.253,14.3a21.983,21.983,0,0,0,9.563,9.563l3.193-3.193a1.443,1.443,0,0,1,1.48-.348,16.553,16.553,0,0,0,5.181.827,1.455,1.455,0,0,1,1.451,1.451V27.67a1.455,1.455,0,0,1-1.451,1.451A24.668,24.668,0,0,1,3,4.451,1.455,1.455,0,0,1,4.451,3H9.53a1.455,1.455,0,0,1,1.451,1.451,16.486,16.486,0,0,0,.827,5.181,1.456,1.456,0,0,1-.363,1.48Z" transform="translate(-3 -3)" fill="#a3d100"/>
</svg>
