<svg xmlns="http://www.w3.org/2000/svg" width="102.966" height="134.036" viewBox="0 0 102.966 134.036">
  <g id="Group_111" data-name="Group 111" transform="translate(-735.195 -4263.464)">
    <path id="ekAbn4i8QSy2" d="M57.6,206.479s11.938,4.744,17.506,1.7a47.259,47.259,0,0,0,10.89-8.874c1.422-1.674,5.265-6.466,10.159-2.49,4.6,3.736,2.257,9.154,1.266,10.664-1.866,2.844-8.449,12.519-20.789,14.768C63.49,224.64,55.14,214.7,55.14,214.7S60.388,208.952,57.6,206.479Z" transform="translate(693.399 4119.752)" fill="#fff" stroke="#1f415d" stroke-linecap="round" stroke-linejoin="round" stroke-miterlimit="10" stroke-width="3"/>
    <g id="ekAbn4i8QSy3" transform="translate(736.702 4319.291)">
      <path id="ekAbn4i8QSy4" d="M28.432,214.065c-1.249-.261-1.98-2.158-1.869-2.858s-1.714-1.589-2.694.031a2.317,2.317,0,0,0,.312,3.124,29.118,29.118,0,0,0-3.484-3.028,5.059,5.059,0,0,0-3.727-.36c-1.258.368-1.821,2.263-.224,2.753,0,0-3.138.249-2.951,1.92.184,1.631,1.3,1.1,1.226,1.139a3.516,3.516,0,0,0-.722.473c-2.2,1.81-.051,3.283.991,2.294,1.626-1.544,2.75-.181,2.75-.181s-1.813-.51-2.807,2.218c-.765,2.1,1.521,2.577,2.416,1.773a2.408,2.408,0,0,0,.581-1c.136-.289.368-.4.847-.037,1.583,1.212,3.73,3.512,6.429,2.713s2.917-2.784,2.917-2.784a3.8,3.8,0,0,0,2.24-1.413C31.635,219.495,30.794,214.558,28.432,214.065Z" transform="translate(-13.346 -210.325)" fill="#fff" stroke="#1f415d" stroke-linecap="round" stroke-linejoin="round" stroke-miterlimit="10" stroke-width="3"/>
      <path id="ekAbn4i8QSy5" d="M51.59,224.59c1.2,2.164.054,2.368.235,3.773a4.082,4.082,0,0,0,2.546,3.648" transform="translate(-40.758 -220.55)" fill="#fff" stroke="#1f415d" stroke-linecap="round" stroke-linejoin="round" stroke-miterlimit="10" stroke-width="3"/>
      <path id="ekAbn4i8QSy6" d="M25.33,222.237s1.725-.53,4.427,2.226" transform="translate(-21.936 -218.834)" fill="#fff" stroke="#1f415d" stroke-linecap="round" stroke-linejoin="round" stroke-miterlimit="10" stroke-width="3"/>
      <path id="ekAbn4i8QSy7" d="M17.95,232.849a7.015,7.015,0,0,1,4.7.858" transform="translate(-16.646 -226.398)" fill="#fff" stroke="#1f415d" stroke-linecap="round" stroke-linejoin="round" stroke-miterlimit="10" stroke-width="3"/>
      <path id="ekAbn4i8QSy8" d="M30.884,250.243s-.943-.19-1.464,1.462" transform="translate(-24.867 -238.932)" fill="#fff" stroke="#1f415d" stroke-linecap="round" stroke-linejoin="round" stroke-miterlimit="10" stroke-width="3"/>
    </g>
    <path id="ekAbn4i8QSy9" d="M176.989,454.018l7.095-.068s2.637,1.824,1.419,6.217H163.539S162.868,455.032,176.989,454.018Z" transform="translate(615.706 3934.343)" fill="#fff" stroke="#1f415d" stroke-linecap="round" stroke-linejoin="round" stroke-miterlimit="10" stroke-width="3"/>
    <path id="ekAbn4i8QSy10" d="M199.136,321.812s-9.327,10-9.055,21.693,3.175,15.071,3.175,15.071-6.826-2.229-10.814-2.3a11.171,11.171,0,0,0-6.217,1.487,54.842,54.842,0,0,1-1.756-14.734c.337-8.65,2.906-16.827,9.327-22.774S199.136,321.812,199.136,321.812Z" transform="translate(607.888 4031.813)" fill="#fff" stroke="#1f415d" stroke-linecap="round" stroke-linejoin="round" stroke-miterlimit="10" stroke-width="3"/>
    <path id="ekAbn4i8QSy11" d="M185.023,448.853s-.337-4.6,3.716-4.461,3.583,4.121,3.583,4.121" transform="translate(600.309 3941.196)" fill="#fff" stroke="#1f415d" stroke-linecap="round" stroke-linejoin="round" stroke-miterlimit="10" stroke-width="3"/>
    <path id="ekAbn4i8QSy12" d="M251.9,452.784l7.676-.074s2.849,1.974,1.535,6.724H237.356S236.625,453.88,251.9,452.784Z" transform="translate(562.797 3935.232)" fill="#fff" stroke="#1f415d" stroke-linecap="round" stroke-linejoin="round" stroke-miterlimit="10" stroke-width="3"/>
    <path id="ekAbn4i8QSy13" d="M275.841,309.793s-10.086,10.817-9.794,23.463,3.436,16.3,3.436,16.3-7.381-2.413-11.695-2.484a12.106,12.106,0,0,0-6.724,1.609,59.316,59.316,0,0,1-1.9-15.934c.365-9.355,3.144-18.2,10.086-24.633S275.841,309.793,275.841,309.793Z" transform="translate(554.351 4040.652)" fill="#fff" stroke="#1f415d" stroke-linecap="round" stroke-linejoin="round" stroke-miterlimit="10" stroke-width="3"/>
    <path id="ekAbn4i8QSy14" d="M260.581,447.205s-.365-4.971,4.019-4.823,3.875,4.458,3.875,4.458" transform="translate(546.15 3942.637)" fill="#fff" stroke="#1f415d" stroke-linecap="round" stroke-linejoin="round" stroke-miterlimit="10" stroke-width="3"/>
    <path id="ekAbn4i8QSy15" d="M213.855,333.48s-6.14,14.691-5.92,21.71a28.529,28.529,0,0,0,3.288,12.278" transform="translate(583.885 4020.692)" fill="none" stroke="#1f415d" stroke-linecap="round" stroke-linejoin="round" stroke-miterlimit="10" stroke-width="3"/>
    <path id="ekAbn4i8QSy16" d="M291.476,342.51s-5.336,7.82-5.336,16.957c0,6.8,4.093,14.838,4.093,14.838" transform="translate(527.825 4014.22)" fill="none" stroke="#1f415d" stroke-linecap="round" stroke-linejoin="round" stroke-miterlimit="10" stroke-width="3"/>
    <path id="ekAbn4i8QSy17" d="M202.015,166.072c0,18.285-14.382,33.11-32.124,33.11s-32.781-14.935-32.781-33.22a33.089,33.089,0,0,1,32.781-33C187.633,132.96,202.015,147.784,202.015,166.072Z" transform="translate(634.646 4164.419)" fill="#fff" stroke="#1f415d" stroke-miterlimit="10" stroke-width="3"/>
    <path id="ekAbn4i8QSy18" d="M138.86,278.127a32.837,32.837,0,0,0,63.752-2.317s-25.4,1.971-33.724,2.518S138.86,278.127,138.86,278.127Z" transform="translate(633.392 4062.028)" fill="#dfdfdf" stroke="#1f415d" stroke-linecap="round" stroke-linejoin="round" stroke-miterlimit="10" stroke-width="3"/>
    <path id="ekAbn4i8QSy19" d="M212.234,196.95c0-.329-5.829-23.126,12.06-31.246,17.872-8.115,27.19,6.03,27.19,6.03a18.561,18.561,0,0,1,2.413,5.812s-13.878-13.751-27.74-7.126c-12.389,5.919-8.333,25.984-8.333,25.984Z" transform="translate(581.45 4142.75)" fill="#dfdfdf" stroke="#1f415d" stroke-linecap="round" stroke-linejoin="round" stroke-miterlimit="10" stroke-width="3"/>
    <path id="ekAbn4i8QSy20" d="M204.151,266.9h8.879a10.969,10.969,0,0,0,.11,8.879s-2.96,1.864-8.333.11C204.808,275.89,201.848,272.712,204.151,266.9Z" transform="translate(587.222 4068.415)" fill="#fff" stroke="#1f415d" stroke-linecap="round" stroke-linejoin="round" stroke-miterlimit="10" stroke-width="3"/>
    <path id="ekAbn4i8QSy21" d="M276.607,283.55s2.3,8,10.307,8a7.123,7.123,0,0,1-1.974,3.617s-10.853-1.864-11.949-11.513Z" transform="translate(537.251 4056.48)" fill="#fff" stroke="#1f415d" stroke-linecap="round" stroke-linejoin="round" stroke-miterlimit="10" stroke-width="3"/>
    <path id="ekAbn4i8QSy22" d="M302.588,279.29a21.881,21.881,0,0,1-1.535,11.074c-1.946,4.158-6.359,10.746-8.333,11.949" transform="translate(523.109 4059.534)" fill="none" stroke="#1f415d" stroke-linecap="round" stroke-linejoin="round" stroke-miterlimit="10" stroke-width="3"/>
    <path id="ekAbn4i8QSy23" d="M164.953,326.973a7.475,7.475,0,0,0-7.491-6.4c-5.7-.091-6.871,5.9-6.871,5.9v39.579h3.838V326.364s.4-2.277,3.69-2.277c2.778,0,3.362,3.033,3.362,3.033S165.281,326.973,164.953,326.973Z" transform="translate(624.984 4029.941)" fill="#fff" stroke="#1f415d" stroke-linecap="round" stroke-linejoin="round" stroke-miterlimit="10" stroke-width="3"/>
    <g id="ekAbn4i8QSy24" transform="translate(777.497 4349.234)">
      <path id="ekAbn4i8QSy25" d="M167.469,316.1s-5.537.49-6.636.949-3.824,2.079-3.41,3.906,1.634.977,1.634.977a1.361,1.361,0,0,0,.258,1.68c.827.634,1.042,0,1.042,0a2.612,2.612,0,0,0,.382,1.563c.326.374,1.045.637,1.416.145a1.7,1.7,0,0,0,1.413,1.634,3.118,3.118,0,0,0,2.226-.855c.94-.966.36-1.4.057-1.66a13.544,13.544,0,0,0,6.4-2.77C173.363,320.706,171.142,315.438,167.469,316.1Z" transform="translate(-157.38 -316.045)" fill="#fff" stroke="#1f415d" stroke-linecap="round" stroke-linejoin="round" stroke-miterlimit="10" stroke-width="3"/>
      <path id="ekAbn4i8QSy26" d="M165.655,325.136s-2.439-.329-3.175,2.863" transform="translate(-161.036 -322.554)" fill="#fff" stroke="#1f415d" stroke-linecap="round" stroke-linejoin="round" stroke-miterlimit="10" stroke-width="3"/>
      <path id="ekAbn4i8QSy27" d="M169.852,330.68c-.66.125-2.478.218-2.742,3.016" transform="translate(-164.354 -326.535)" fill="#fff" stroke="#1f415d" stroke-linecap="round" stroke-linejoin="round" stroke-miterlimit="10" stroke-width="3"/>
      <path id="ekAbn4i8QSy28" d="M175.91,337.05c-.371.113-1.878.045-2.26,2.753" transform="translate(-169.042 -331.101)" fill="#fff" stroke="#1f415d" stroke-linecap="round" stroke-linejoin="round" stroke-miterlimit="10" stroke-width="3"/>
      <path id="ekAbn4i8QSy29" d="M182.483,343.787a3.626,3.626,0,0,0-2.093.544" transform="translate(-173.873 -335.92)" fill="#fff" stroke="#1f415d" stroke-linecap="round" stroke-linejoin="round" stroke-miterlimit="10" stroke-width="3"/>
    </g>
    <path id="ekAbn4i8QSy30" d="M189.37,230.6s11.949-4.716,13.924-10.746a47.183,47.183,0,0,0,1.864-13.924c-.11-2.192-.589-8.318,5.7-8.772,5.908-.425,7.911,5.126,8.222,6.908.586,3.351,2.413,14.912-5.044,25-7.939,10.74-20.832,9.211-20.832,9.211S193.1,230.492,189.37,230.6Z" transform="translate(597.188 4118.418)" fill="#fff" stroke="#1f415d" stroke-linecap="round" stroke-linejoin="round" stroke-miterlimit="10" stroke-width="3"/>
    <ellipse id="ekAbn4i8QSy31" cx="6.523" cy="6.908" rx="6.523" ry="6.908" transform="translate(746.321 4300.01)" fill="#fff" stroke="#1f415d" stroke-miterlimit="10" stroke-width="3"/>
    <ellipse id="ekAbn4i8QSy32" cx="6.523" cy="6.908" rx="6.523" ry="6.908" transform="translate(799.824 4291.898)" fill="#fff" stroke="#1f415d" stroke-miterlimit="10" stroke-width="3"/>
    <ellipse id="ekAbn4i8QSy33" cx="26.862" cy="28.397" rx="26.862" ry="28.397" transform="translate(748.144 4278.007) rotate(-9.759)" fill="#fff" stroke="#1f415d" stroke-miterlimit="10" stroke-width="3"/>
    <path id="ekAbn4i8QSy34" d="M53.888,4.159A27.151,27.151,0,0,1,30.167,34.351,27.152,27.152,0,0,1,.338,10.178C-1.35-4.834,2.694,24.925,26.228,22.283,51.939,19.391,52.2-10.855,53.888,4.159Z" transform="matrix(0.999, 0.039, -0.039, 0.999, 753.465, 4296.854)" fill="#b4b4b4" stroke="#1f415d" stroke-miterlimit="10" stroke-width="3"/>
    <path id="ekAbn4i8QSy35" d="M108.443,155.23h0a1.532,1.532,0,0,1-1.646-1.408l-.1-1.269a1.532,1.532,0,0,1,1.408-1.646h0a1.532,1.532,0,0,1,1.646,1.408l.1,1.269A1.53,1.53,0,0,1,108.443,155.23Z" transform="translate(656.447 4151.558)" fill="#454545"/>
    <path id="ekAbn4i8QSy36" d="M196.763,145.9h0a1.532,1.532,0,0,1-1.646-1.408l-.1-1.269a1.532,1.532,0,0,1,1.408-1.646h0a1.532,1.532,0,0,1,1.646,1.408l.1,1.269A1.532,1.532,0,0,1,196.763,145.9Z" transform="translate(593.143 4158.245)" fill="#454545"/>
    <path id="ekAbn4i8QSy37" d="M142.224,172.782c-1.762,4.88-7.092-1.6-15.04-.535s-10.941,8.874-13.739,4.379c-3.161-5.07,4.934-12.162,12.881-13.224S144.037,167.766,142.224,172.782Z" transform="translate(652.11 4142.695)" fill="#b4b4b4" stroke="#1f415d" stroke-miterlimit="10" stroke-width="3"/>
    <path id="ekAbn4i8QSy38" d="M205.52,64.613a37.734,37.734,0,0,1,7.565,10.414c1,2,3.815,7.149-.549,7.347-4.382.2-13.451-6.837-15.13-12.278C196.193,66.157,201.091,60.424,205.52,64.613Z" transform="translate(591.563 4214.458)" fill="#454545" stroke="#1f415d" stroke-miterlimit="10" stroke-width="3"/>
    <g id="ekAbn4i8QSy40_ts" transform="translate(750.212 4281.988)">
      <path id="ekAbn4i8QSy40" d="M62.965,85.9s-5.373,6.687,1.864,6.687,19.954-4.166,25-9.978-9.647-4.163-16.116-1.971A44.873,44.873,0,0,0,62.965,85.9Z" transform="translate(-61.046 -78.618)" fill="#454545" stroke="#1f415d" stroke-miterlimit="10" stroke-width="3"/>
    </g>
    <g id="ekAbn4i8QSy41_ts" transform="translate(750.518 4265)">
      <path id="ekAbn4i8QSy41" d="M113.075,31.5s3.07,4.384-1.317,5.044S67.8,43.017,64.835,43.125s-2.96-4.605.218-5.591c0,0-13.924-6.687,18.968-16.008C115.984,12.471,116.366,27.23,113.075,31.5Z" transform="translate(-62.127 -18.64)" fill="#dfdfdf" stroke="#1f415d" stroke-miterlimit="10" stroke-width="3"/>
    </g>
  </g>
</svg>
