<svg xmlns="http://www.w3.org/2000/svg" width="22.765" height="18.501" viewBox="0 0 22.765 18.501">
  <path id="twitter-icon-dcb9598b4cfd065c78ff77297be2a2673cc947fbbc3de2b27ccd507108b44ccd" d="M7.9,21.225A13.2,13.2,0,0,0,21.19,7.937q0-.3-.013-.6a9.5,9.5,0,0,0,2.33-2.419,9.319,9.319,0,0,1-2.682.735,4.688,4.688,0,0,0,2.054-2.583A9.368,9.368,0,0,1,19.913,4.2a4.675,4.675,0,0,0-7.959,4.259A13.261,13.261,0,0,1,2.326,3.58,4.675,4.675,0,0,0,3.772,9.815a4.634,4.634,0,0,1-2.115-.584c0,.02,0,.039,0,.06A4.672,4.672,0,0,0,5.4,13.869a4.665,4.665,0,0,1-2.11.08,4.676,4.676,0,0,0,4.363,3.244,9.37,9.37,0,0,1-5.8,2,9.5,9.5,0,0,1-1.114-.065,13.221,13.221,0,0,0,7.159,2.1" transform="translate(-0.742 -2.725)" fill="#fff"/>
</svg>
