<?xml version="1.0" standalone="no"?>
<!DOCTYPE svg PUBLIC "-//W3C//DTD SVG 20010904//EN"
 "http://www.w3.org/TR/2001/REC-SVG-20010904/DTD/svg10.dtd">
<svg version="1.0" xmlns="http://www.w3.org/2000/svg"
 width="1920.000000pt" height="1080.000000pt" viewBox="0 0 1920.000000 1080.000000"
 preserveAspectRatio="xMidYMid meet">

<g transform="translate(0.000000,1080.000000) scale(0.100000,-0.100000)"
fill="#000000" stroke="none">
<path d="M3350 9843 c-275 -49 -530 -182 -730 -383 -164 -163 -270 -337 -339
-553 -49 -155 -64 -274 -58 -467 4 -142 9 -181 35 -280 71 -267 190 -470 386
-658 151 -144 313 -241 509 -307 99 -33 250 -65 308 -65 l29 0 0 -125 0 -125
1015 0 1015 0 0 -42 c1 -140 -22 -1285 -26 -1345 l-6 -73 -274 0 -274 0 0 68
c0 161 -63 394 -150 560 -183 347 -498 599 -872 696 -698 181 -1419 -213
-1643 -898 -192 -588 34 -1237 549 -1571 145 -94 292 -156 466 -196 127 -29
347 -36 485 -15 124 20 308 77 412 129 393 198 671 581 740 1015 l17 112 603
0 603 0 0 -36 c0 -57 37 -225 71 -321 115 -326 352 -598 658 -756 179 -93 350
-142 538 -154 l93 -6 0 -164 0 -163 1039 0 1039 0 -4 -147 c-6 -192 -24 -1188
-24 -1275 l0 -68 -283 0 -284 0 -6 128 c-16 353 -152 667 -396 911 -202 202
-425 322 -715 382 -142 30 -370 30 -512 0 -290 -60 -513 -180 -715 -382 -150
-151 -258 -324 -324 -522 -58 -175 -70 -251 -69 -447 0 -152 4 -189 26 -286
127 -540 528 -934 1071 -1051 115 -25 419 -25 534 0 271 58 501 181 691 369
200 198 326 428 383 701 l22 107 627 0 627 0 17 -86 c108 -552 523 -972 1076
-1091 119 -25 420 -26 537 0 490 106 881 453 1033 917 234 717 -158 1494 -870
1724 -259 84 -499 94 -759 31 -327 -79 -617 -283 -809 -567 -144 -213 -232
-499 -232 -752 l0 -86 -291 0 -291 0 6 213 c3 116 8 361 11 542 3 182 8 421
11 533 l6 202 1019 0 1019 0 0 163 0 164 108 6 c622 38 1145 505 1258 1125
l17 92 580 -2 581 -3 13 -80 c31 -189 129 -420 245 -577 127 -172 334 -343
524 -433 96 -46 247 -90 380 -110 137 -22 357 -16 484 14 424 98 757 358 946
741 212 429 174 967 -96 1365 -441 648 -1326 797 -1956 329 -87 -65 -222 -202
-287 -292 -162 -226 -257 -507 -257 -764 l0 -98 -279 0 -279 0 4 153 c6 199
24 1141 24 1235 l0 72 965 0 965 0 0 140 0 140 -45 0 -45 0 0 -95 0 -95 -1935
0 -1935 0 0 105 0 105 33 0 c60 0 220 32 311 61 121 40 236 95 342 165 118 77
301 260 378 378 419 636 249 1480 -382 1900 -230 154 -473 226 -756 226 -377
0 -701 -134 -967 -399 -265 -266 -399 -590 -399 -967 0 -283 72 -526 226 -756
226 -339 618 -577 999 -604 138 -9 125 8 125 -159 l0 -145 1016 0 1016 0 -6
-217 c-3 -120 -8 -355 -11 -523 -3 -168 -8 -398 -11 -512 l-6 -208 -248 0
-247 0 -6 114 c-19 356 -155 665 -402 911 -195 196 -420 317 -698 377 -145 31
-389 31 -534 0 -556 -120 -961 -526 -1080 -1082 -25 -120 -25 -401 0 -520 60
-278 169 -487 356 -682 187 -196 385 -314 640 -382 50 -14 117 -28 149 -31 99
-11 92 -1 92 -136 l0 -119 -2015 0 -2015 0 0 119 0 120 48 6 c242 31 443 104
632 230 101 67 303 269 369 370 100 152 167 315 208 506 25 118 25 399 0 519
-118 556 -524 963 -1080 1082 -135 28 -379 31 -511 5 -285 -57 -523 -183 -721
-382 -238 -237 -372 -532 -400 -877 l-7 -88 -276 0 -275 0 6 353 c4 193 10
522 14 730 l6 377 964 0 963 0 0 120 c0 116 1 120 23 124 12 3 57 12 100 21
469 91 867 446 1022 908 50 149 69 268 68 432 0 362 -128 682 -375 941 -188
196 -391 315 -658 386 -99 26 -138 31 -280 35 -124 4 -191 1 -267 -11 -427
-67 -801 -335 -997 -714 -60 -116 -91 -199 -124 -332 -24 -95 -26 -124 -27
-295 0 -211 8 -271 61 -434 70 -213 171 -378 334 -541 239 -240 521 -370 865
-400 70 -6 135 -8 146 -5 18 6 19 1 19 -69 l0 -76 -1935 0 -1935 0 0 74 0 74
78 7 c352 29 631 151 869 378 307 294 458 689 422 1106 -54 624 -520 1130
-1138 1235 -118 20 -345 20 -461 -1z m495 -97 c387 -86 705 -331 880 -679 93
-185 135 -361 135 -571 0 -266 -68 -493 -216 -719 -45 -68 -271 -307 -292
-307 -5 0 -12 50 -16 110 -14 217 -52 405 -108 529 -15 35 -27 65 -26 66 2 1
21 7 43 13 149 43 235 274 126 340 -22 13 -27 22 -20 32 5 8 9 27 9 43 0 23 4
27 28 27 61 0 98 61 68 117 -21 41 -101 115 -175 162 -49 32 -72 54 -93 93
-66 120 -173 236 -291 315 -103 68 -194 103 -358 137 -22 5 -25 10 -21 31 3
18 -3 34 -19 51 -65 70 -152 75 -279 18 -93 -42 -112 -72 -86 -134 4 -11 -12
-24 -60 -50 -135 -72 -263 -222 -319 -375 -24 -65 -30 -74 -66 -89 -76 -34
-136 -156 -106 -215 8 -15 11 -36 7 -47 -16 -43 22 -85 80 -86 36 -1 29 -18
-6 -18 -15 0 -38 -12 -55 -29 -56 -56 -32 -168 54 -255 54 -53 99 -78 142 -78
27 0 39 -8 70 -49 21 -28 52 -62 70 -77 l33 -27 -13 -80 c-13 -80 -29 -255
-41 -437 -3 -54 -10 -98 -14 -98 -20 0 -172 125 -246 202 -181 188 -296 418
-339 678 -25 144 -16 365 19 505 91 366 339 677 674 844 91 46 258 99 359 116
110 18 368 13 468 -9z m3751 -1 c473 -82 867 -423 1008 -873 39 -126 56 -240
56 -387 0 -206 -37 -376 -122 -553 -39 -82 -58 -96 -58 -43 0 37 -41 177 -81
277 -17 44 -42 117 -56 164 -27 92 -50 137 -97 188 -34 37 -114 82 -144 82
-17 0 -20 11 -25 83 -32 407 -176 697 -401 807 -104 51 -176 69 -301 77 -183
11 -340 -38 -450 -139 -57 -52 -115 -129 -152 -203 -93 -183 -163 -559 -167
-900 -1 -82 -10 -206 -20 -275 -14 -97 -17 -172 -14 -336 3 -192 1 -211 -13
-203 -34 18 -180 183 -232 261 -157 238 -225 480 -213 763 6 153 26 261 75
393 158 432 554 754 1010 821 96 14 303 12 397 -4z m4297 -10 c247 -55 453
-169 633 -349 249 -249 374 -551 374 -901 0 -217 -43 -395 -141 -587 -83 -160
-201 -304 -345 -419 -58 -46 -190 -129 -206 -129 -3 0 -21 26 -39 58 -47 81
-131 161 -214 202 -38 19 -72 36 -75 38 -2 2 11 15 30 29 87 66 197 206 243
309 18 40 21 42 72 46 67 6 114 36 159 103 48 71 69 143 64 221 -3 50 -9 69
-28 90 -35 37 -73 54 -120 54 l-40 0 0 63 c0 161 -47 376 -110 504 -77 156
-211 259 -396 305 -124 30 -333 29 -449 -1 -220 -58 -358 -182 -430 -390 -37
-104 -63 -239 -71 -369 l-7 -112 -36 0 c-45 0 -95 -30 -122 -72 -16 -27 -19
-46 -17 -103 8 -154 117 -295 231 -295 30 0 35 -5 56 -47 64 -132 194 -281
302 -346 l57 -33 -64 -48 c-58 -43 -147 -137 -172 -183 -9 -15 -15 -13 -66 17
-259 157 -463 414 -555 699 -47 145 -56 210 -55 411 1 174 3 192 32 305 129
490 545 865 1048 945 85 13 376 4 457 -15z m-8458 -174 c76 -34 85 -78 26
-118 -117 -79 -316 -64 -316 23 0 33 43 62 140 93 75 25 100 25 150 2z m4120
-41 c301 -95 444 -327 500 -810 8 -69 15 -128 15 -133 0 -4 11 -5 24 -1 53 13
152 -68 200 -163 35 -71 33 -78 -16 -43 -48 35 -85 38 -122 9 -35 -27 -52 -62
-126 -259 -106 -281 -190 -431 -302 -541 -107 -106 -241 -149 -395 -128 -342
47 -600 310 -690 703 -44 194 2 652 93 926 48 144 94 221 183 311 81 81 145
118 248 144 87 22 296 14 388 -15z m-3938 -100 c221 -53 430 -209 542 -405
l43 -74 -21 -27 c-24 -31 -28 -86 -7 -125 11 -22 11 -29 0 -44 -19 -26 -17
-62 5 -112 l19 -42 -114 -36 c-63 -20 -119 -33 -124 -30 -6 3 -10 16 -10 29 0
41 -62 128 -114 160 -92 57 -220 45 -304 -28 -41 -36 -82 -117 -82 -163 l0
-33 -32 20 c-36 22 -79 26 -108 10 -16 -9 -20 -4 -34 43 -17 60 -50 108 -97
143 -91 67 -237 56 -323 -24 -32 -31 -76 -116 -76 -150 0 -22 -1 -22 -29 -8
-26 14 -29 20 -34 88 -24 327 128 624 387 755 46 23 52 24 111 12 74 -14 148
-3 229 35 63 30 72 30 173 6z m8148 -68 c171 -46 298 -148 375 -304 37 -76 90
-252 79 -263 -3 -2 -39 13 -80 35 -88 46 -220 92 -339 117 -118 25 -408 25
-535 0 -129 -26 -238 -60 -334 -107 -46 -22 -85 -39 -87 -37 -6 6 31 145 56
209 75 201 246 330 485 369 82 13 301 2 380 -19z m40 -432 c110 -26 195 -54
289 -98 l98 -46 -6 -126 c-11 -213 -7 -201 -92 -265 -40 -30 -77 -55 -82 -55
-5 0 -12 17 -16 38 -7 47 -53 112 -98 140 -145 90 -322 18 -363 -147 -9 -34
-17 -45 -33 -46 -16 -1 -23 7 -32 41 -59 211 -354 237 -446 40 -13 -28 -24
-60 -24 -71 -1 -15 -13 -7 -54 39 -61 67 -61 67 -72 283 l-7 133 94 44 c188
89 345 117 609 111 102 -2 208 -9 235 -15z m-7517 -37 c75 -50 149 -124 158
-159 8 -33 -4 -54 -40 -72 -37 -18 -81 -2 -141 50 -73 64 -103 145 -75 199 15
27 34 24 98 -18z m-1580 -62 c-11 -70 -13 -74 -56 -103 -30 -20 -47 -27 -54
-20 -15 15 0 86 26 124 19 29 85 83 92 75 2 -1 -2 -35 -8 -76z m8154 -223 l4
-148 -24 23 c-24 21 -24 24 -18 131 13 211 32 207 38 -6z m1370 96 c3 -27 7
-83 7 -125 1 -72 -1 -78 -26 -94 l-26 -17 6 38 c4 22 7 88 7 147 0 82 3 108
13 105 6 -3 15 -27 19 -54z m-9101 20 c50 -25 92 -68 115 -119 44 -94 27 -183
-51 -261 -200 -200 -516 59 -359 296 62 94 199 133 295 84z m679 -4 c100 -51
150 -171 119 -284 -16 -57 -90 -131 -151 -152 -100 -33 -210 5 -273 95 -26 37
-30 53 -33 119 -3 70 0 81 27 129 32 54 92 98 154 114 43 10 114 0 157 -21z
m417 0 c14 -17 44 -42 68 -56 49 -28 60 -47 45 -75 -24 -43 -110 -7 -145 62
-21 39 -19 99 2 99 3 0 16 -14 30 -30z m-1527 -65 c0 -72 -1 -75 -24 -75 -29
0 -76 36 -76 57 0 17 74 93 90 93 6 0 10 -34 10 -75z m1538 -83 c23 -18 23
-18 8 -85 -57 -247 -227 -435 -475 -524 -57 -21 -66 -22 -73 -8 -12 21 -61 45
-92 45 -14 0 -42 -9 -63 -20 -21 -11 -52 -22 -68 -25 -26 -5 -32 -2 -47 25
-32 58 -108 62 -153 8 l-25 -30 -68 12 c-37 7 -76 14 -87 16 -11 2 -29 10 -40
18 -18 14 -14 15 57 16 84 0 172 26 202 59 16 18 19 18 80 -5 139 -50 307 -67
340 -34 30 30 -97 164 -192 201 -49 20 -76 23 -187 24 -123 0 -134 -2 -192
-29 -65 -29 -128 -88 -157 -145 -9 -17 -20 -31 -25 -31 -24 0 -135 140 -175
220 -40 80 -85 225 -73 236 10 10 47 -17 47 -35 0 -39 33 -109 68 -146 135
-140 368 -87 426 98 20 63 25 71 54 86 20 11 31 9 70 -11 39 -20 48 -31 62
-73 9 -27 34 -69 55 -93 129 -148 375 -96 430 92 8 27 15 55 15 63 0 7 50 28
123 52 67 22 124 40 127 40 3 0 15 -7 28 -17z m100 -36 c69 -36 86 -110 44
-192 -43 -84 -146 -151 -217 -142 l-24 3 31 50 c36 57 98 226 98 268 0 31 24
36 68 13z m-1611 -91 c13 -50 39 -123 58 -164 40 -85 40 -81 20 -81 -46 0
-152 86 -184 150 -43 83 -34 151 21 175 54 24 61 17 85 -80z m9129 76 c51 -23
111 -93 125 -145 27 -99 -17 -206 -104 -260 -40 -25 -59 -30 -112 -30 -53 0
-72 5 -112 30 -124 77 -147 240 -49 352 60 69 167 91 252 53z m-517 -20 c168
-86 159 -333 -14 -412 -123 -57 -275 24 -304 161 -40 185 151 336 318 251z
m-535 -103 c6 -93 31 -215 60 -295 l15 -43 -37 0 c-49 0 -93 29 -136 87 -114
155 -84 341 55 343 l36 0 7 -92z m1577 69 c19 -13 39 -38 46 -57 26 -71 -10
-204 -73 -279 -44 -50 -81 -71 -130 -71 -33 0 -36 2 -30 23 41 144 58 228 63
310 l6 97 42 0 c27 0 54 -8 76 -23z m-156 -172 c-36 -210 -124 -391 -256 -524
-85 -86 -154 -131 -261 -169 -101 -36 -241 -37 -343 -4 -226 75 -402 269 -490
539 -28 84 -55 234 -55 298 l1 40 29 -33 c17 -18 30 -41 30 -51 0 -49 63 -260
103 -343 53 -113 87 -154 137 -169 61 -18 103 -5 160 52 75 75 145 104 250
104 106 0 172 -28 246 -103 57 -57 101 -72 164 -53 49 15 84 56 131 156 55
118 108 299 109 372 0 12 12 34 28 48 l27 25 3 -42 c2 -24 -4 -88 -13 -143z
m-75 37 c-30 -159 -114 -357 -175 -411 -29 -25 -44 -31 -81 -31 -41 0 -51 5
-103 55 -31 30 -84 67 -117 82 -50 24 -72 28 -144 28 -71 -1 -95 -5 -145 -28
-33 -16 -80 -47 -105 -71 -55 -54 -79 -66 -124 -66 -54 0 -102 48 -152 155
-43 91 -86 223 -99 305 l-7 45 46 -45 c36 -36 49 -58 61 -105 35 -133 151
-212 274 -186 102 21 172 90 196 194 17 77 40 70 64 -18 14 -53 70 -118 124
-144 55 -27 146 -28 202 -2 61 27 112 90 132 162 16 57 21 65 87 115 39 29 73
49 75 43 1 -6 -3 -40 -9 -77z m-3861 11 c37 -39 55 -71 93 -168 53 -136 75
-218 84 -302 l6 -58 -59 -80 c-69 -92 -162 -187 -247 -253 -53 -41 -60 -44
-71 -28 -29 40 -55 275 -55 508 0 143 1 148 34 237 61 157 85 191 138 191 25
0 42 -10 77 -47z m-4778 -113 c35 -11 83 -35 106 -53 42 -32 103 -102 103
-118 0 -32 -152 -21 -281 20 -111 36 -122 37 -140 14 -30 -35 -100 -56 -191
-56 -49 0 -91 3 -94 6 -21 20 67 131 129 164 93 48 256 58 368 23z m693 -97
c57 -115 103 -332 113 -539 l6 -130 -27 -21 c-15 -12 -72 -45 -126 -73 -96
-49 -100 -50 -100 -28 0 13 -13 182 -29 375 l-29 353 56 55 c75 72 102 74 136
8z m2444 -56 c13 -45 41 -119 62 -164 l40 -81 -7 -216 c-3 -119 -8 -216 -11
-216 -10 0 -100 61 -116 79 -37 41 -44 333 -15 584 7 53 15 97 18 97 3 0 16
-37 29 -83z m-2599 -719 l1 -47 -79 -25 c-244 -77 -545 -75 -786 6 l-70 23 -3
244 c-2 229 -1 243 15 236 62 -24 177 -45 249 -45 141 0 277 59 323 140 15 28
31 40 63 49 47 14 155 68 203 100 l30 21 27 -328 c15 -180 27 -348 27 -374z
m3991 272 c6 -58 19 -128 29 -156 l17 -52 -60 -35 c-87 -49 -188 -92 -287
-121 -288 -83 -632 -55 -896 73 l-83 40 0 173 c0 95 3 189 6 210 l6 36 59 -73
c138 -171 329 -271 539 -282 118 -6 190 8 270 55 118 68 242 229 327 425 l48
110 7 -149 c4 -82 12 -196 18 -254z m-4996 324 c-36 -35 -31 -70 17 -116 l41
-39 -4 -229 c-2 -125 -6 -231 -9 -235 -4 -3 -40 10 -79 30 l-73 37 7 141 c8
155 20 292 38 404 l11 73 37 -21 37 -21 -23 -24z m345 46 c10 -5 24 -23 31
-41 12 -28 16 -31 47 -26 19 4 54 15 77 27 23 11 54 20 68 20 32 0 78 -35 78
-60 0 -29 -59 -80 -130 -114 -61 -29 -72 -31 -185 -31 -97 0 -134 4 -192 23
-123 38 -178 108 -118 148 25 16 76 16 171 -2 25 -5 32 -2 42 20 18 39 73 57
111 36z m8562 -395 c28 -15 74 -48 102 -73 50 -47 127 -154 127 -178 0 -13
-110 -62 -200 -88 -156 -46 -395 -59 -570 -31 -103 17 -241 60 -320 100 l-51
26 30 42 c54 77 193 197 228 197 8 0 13 -12 13 -30 0 -24 7 -33 40 -50 142
-72 325 -64 452 22 45 30 49 36 44 65 -2 17 -2 34 1 36 6 7 36 -4 104 -38z
m-143 -39 c-37 -30 -127 -68 -174 -74 l-44 -5 0 35 c0 35 1 36 48 42 26 4 79
19 117 34 68 27 70 27 73 8 3 -12 -6 -28 -20 -40z m-388 -2 c36 -7 84 -14 106
-14 39 0 42 -2 46 -31 l5 -31 -66 4 c-85 6 -191 51 -191 80 0 15 4 18 18 13 9
-4 46 -13 82 -21z m-7588 -885 c518 -104 918 -521 1004 -1047 21 -129 14 -372
-15 -487 -106 -426 -382 -746 -782 -906 -67 -27 -104 -37 -108 -30 -4 6 -22
73 -41 150 l-33 139 -51 30 c-28 17 -77 41 -108 53 -41 15 -58 27 -58 40 0 31
-21 65 -51 83 -16 9 -29 21 -29 25 0 4 34 25 75 45 91 45 193 142 245 234 26
45 41 61 57 62 96 1 177 102 178 222 0 78 -22 117 -73 133 -40 12 -40 18 0 36
50 22 78 71 78 138 0 62 -31 234 -53 296 -10 27 -13 64 -10 115 7 103 -20 175
-92 247 -85 84 -191 103 -332 57 l-52 -17 -37 33 c-48 42 -93 60 -146 60 -78
-1 -174 -61 -213 -133 l-18 -35 -44 15 c-98 34 -203 0 -308 -98 -86 -81 -110
-137 -101 -236 4 -40 13 -93 20 -117 12 -39 12 -47 -1 -58 -19 -16 -49 -76
-56 -115 -7 -37 14 -126 43 -183 l20 -39 -24 -17 c-56 -36 -61 -167 -10 -251
37 -62 108 -101 157 -86 31 8 33 7 70 -50 72 -112 175 -197 290 -239 31 -11
57 -24 57 -27 0 -4 -16 -13 -36 -20 -26 -9 -40 -23 -50 -47 -8 -19 -12 -39 -9
-44 3 -5 -7 -12 -22 -15 -143 -30 -173 -65 -189 -222 -4 -35 -10 -63 -15 -63
-4 0 -47 27 -96 59 -269 181 -453 447 -534 771 -21 85 -24 117 -23 295 1 182
3 209 26 296 66 244 176 438 343 604 305 302 734 430 1157 344z m3918 5 c451
-85 828 -415 974 -854 144 -432 44 -910 -261 -1255 l-43 -48 0 44 c0 64 -26
214 -51 295 -25 81 -49 130 -82 170 -24 29 -24 33 -31 304 -8 338 -20 475 -51
598 -65 255 -197 405 -420 479 -74 25 -93 27 -250 27 -157 0 -176 -2 -250 -27
-249 -83 -386 -261 -439 -572 -8 -49 -22 -229 -31 -400 -16 -300 -17 -312 -45
-380 -61 -150 -118 -368 -127 -490 l-6 -79 -69 73 c-306 327 -411 812 -271
1255 151 480 597 833 1113 880 72 6 259 -4 340 -20z m4110 16 c169 -17 300
-55 450 -130 246 -124 437 -312 561 -553 117 -227 163 -460 139 -704 -32 -325
-165 -595 -400 -817 -80 -74 -220 -176 -244 -176 -7 0 -97 40 -202 88 -186 87
-189 90 -215 137 -15 26 -32 51 -39 55 -17 11 -4 63 23 88 12 11 58 30 102 41
166 45 234 124 271 312 l17 87 38 11 c78 23 134 138 110 226 -18 66 -48 105
-98 127 l-46 20 7 72 c3 39 9 163 12 276 9 292 -6 343 -130 437 -115 86 -305
162 -462 185 -66 9 -105 9 -179 0 -196 -25 -300 -83 -330 -186 -15 -51 -16
-52 -49 -48 -82 10 -152 -47 -184 -148 -21 -68 -20 -282 2 -465 8 -66 14 -120
13 -120 -1 -1 -24 -10 -52 -21 -83 -33 -128 -124 -106 -218 20 -86 84 -146
156 -146 14 0 25 -2 25 -4 0 -2 6 -37 14 -78 39 -204 112 -286 289 -325 39 -8
82 -25 94 -36 29 -26 39 -73 20 -95 -8 -9 -26 -40 -41 -69 l-25 -51 -128 -43
c-70 -23 -148 -51 -172 -61 l-45 -19 -66 46 c-37 24 -106 84 -153 131 -180
180 -305 413 -354 661 -21 109 -24 356 -4 463 88 490 461 893 941 1016 153 39
289 49 440 34z m4022 -21 c482 -97 853 -454 986 -948 23 -87 25 -114 26 -296
1 -185 -1 -208 -26 -305 -73 -286 -224 -522 -452 -704 l-58 -47 -67 64 c-69
67 -138 107 -253 148 -38 13 -68 26 -68 29 0 3 28 16 63 29 158 60 274 157
335 279 36 74 37 79 36 181 0 100 -4 118 -61 306 l-60 199 51 50 c49 48 52 75
4 42 -45 -32 -53 -24 -113 129 -62 156 -120 266 -186 351 -147 190 -401 243
-531 109 l-41 -42 -44 19 c-208 92 -396 -55 -512 -401 -18 -52 -35 -114 -38
-138 -3 -24 -10 -46 -16 -50 -6 -3 -23 8 -39 26 -16 18 -32 30 -35 27 -7 -7
28 -63 62 -99 l27 -28 -27 -94 c-42 -147 -65 -288 -72 -437 l-6 -138 32 -64
c21 -43 50 -81 84 -111 53 -47 178 -113 255 -136 23 -7 42 -15 42 -19 0 -4
-19 -16 -42 -26 -49 -22 -212 -126 -245 -157 -29 -26 -47 -18 -136 63 -179
164 -314 398 -378 655 -29 115 -36 358 -15 487 94 572 549 1002 1129 1068 101
12 274 3 389 -21z m-8157 -264 c93 -19 219 -83 278 -139 98 -94 162 -223 197
-396 24 -119 40 -395 40 -720 0 -405 -21 -530 -110 -664 -86 -128 -222 -226
-375 -272 -86 -26 -263 -23 -370 5 -265 70 -488 255 -542 451 -37 135 -18 980
27 1202 35 172 98 297 196 392 59 57 185 121 274 140 87 19 297 19 385 1z
m8125 -96 c99 -46 206 -163 281 -309 12 -25 48 -108 79 -185 42 -103 63 -143
80 -152 23 -11 22 -12 -25 -42 -99 -62 -147 -75 -290 -76 -129 0 -130 0 -193
34 -122 67 -175 148 -259 401 -3 9 -10 -2 -18 -27 -18 -60 -72 -128 -181 -232
-184 -174 -322 -207 -443 -106 -29 25 -31 30 -18 40 9 6 23 46 32 88 47 227
175 441 301 503 47 23 63 26 122 22 41 -3 84 -13 110 -27 l44 -22 36 42 c54
63 100 80 202 76 65 -2 98 -9 140 -28z m-4507 -411 c43 -54 143 -125 210 -148
103 -36 173 -43 349 -31 155 11 270 25 301 37 11 4 27 -32 66 -139 l51 -143
-10 -200 c-14 -289 -46 -398 -137 -473 -39 -33 -112 -64 -174 -75 l-36 -6 4
67 c3 41 -1 98 -11 143 -13 65 -21 80 -55 112 -43 41 -83 54 -186 64 -75 7
-174 -12 -219 -41 -68 -45 -108 -175 -89 -289 11 -64 11 -65 -72 -42 -149 39
-223 128 -254 302 -14 77 -30 281 -33 420 l-3 111 38 42 c102 113 177 269 177
368 l0 56 25 -47 c14 -26 40 -66 58 -88z m4207 -48 c48 -138 138 -247 248
-298 53 -25 66 -27 172 -25 63 1 129 4 145 5 l30 3 -1 -115 c-2 -144 -21 -225
-84 -355 -121 -249 -330 -373 -565 -335 -178 28 -327 150 -420 344 -56 119
-93 310 -79 417 l6 46 52 7 c72 8 158 54 252 135 84 72 176 177 196 223 15 34
19 30 48 -52z m-12352 -25 c43 -52 113 -94 208 -125 158 -51 305 -58 430 -21
l31 9 11 -74 c15 -95 41 -147 83 -164 l31 -13 -7 -70 c-30 -309 -223 -567
-470 -632 -171 -44 -341 10 -485 155 -75 75 -139 177 -176 282 -29 82 -45 206
-35 272 5 33 13 98 16 144 l7 82 43 0 c30 0 53 8 81 28 47 34 113 108 151 168
l28 43 14 -27 c8 -15 25 -40 39 -57z m13138 -460 c53 -182 56 -194 52 -285 -4
-80 -9 -104 -32 -150 -62 -121 -161 -205 -319 -271 -110 -46 -143 -50 -133
-16 4 12 10 41 13 64 5 35 2 45 -20 67 l-26 25 32 26 c61 50 128 140 172 230
59 121 87 240 89 383 l1 113 50 23 50 23 8 -21 c5 -11 33 -106 63 -211z
m-1399 198 l43 -18 0 -103 c0 -235 85 -449 235 -591 52 -50 54 -53 40 -74 -20
-29 -19 -50 5 -97 l20 -40 -35 -15 c-34 -14 -40 -13 -116 15 -200 73 -314 172
-339 297 -19 92 13 350 70 562 12 45 25 81 28 81 4 0 26 -8 49 -17z m-3903
-210 c4 -71 9 -147 12 -170 6 -43 6 -43 -26 -43 -97 0 -169 132 -129 237 12
33 56 82 84 93 50 21 52 19 59 -117z m1347 104 c77 -51 101 -174 49 -250 -26
-38 -68 -67 -95 -67 -15 0 -17 6 -11 38 3 20 6 97 6 170 0 72 4 132 9 132 4 0
23 -10 42 -23z m-8326 -63 c25 -10 45 -59 45 -112 0 -94 -79 -202 -148 -202
-19 0 -23 4 -17 18 19 43 55 177 60 224 10 82 15 89 60 72z m-1250 -86 c4 -29
21 -91 37 -138 16 -47 30 -94 31 -105 4 -38 -61 -32 -113 11 -104 88 -100 284
6 284 31 0 32 -1 39 -52z m4019 -632 c48 -214 300 -421 586 -481 94 -20 265
-19 344 1 221 57 417 243 471 449 8 32 20 129 25 214 6 85 12 157 15 159 8 8
55 -75 75 -133 31 -89 60 -244 60 -318 0 -63 -1 -65 -42 -104 -151 -138 -365
-245 -588 -294 -133 -30 -358 -32 -490 -6 -207 41 -381 120 -552 250 l-68 51
0 70 c1 103 51 315 113 476 l22 55 6 -157 c4 -87 14 -191 23 -232z m5027 296
c21 -27 35 -72 45 -148 8 -63 -12 -89 -60 -80 -86 17 -185 18 -250 2 -89 -23
-106 -17 -106 37 1 70 18 169 32 184 20 19 117 32 226 30 85 -2 96 -4 113 -25z
m3560 -242 c130 -36 293 -23 407 31 35 17 45 19 58 8 32 -27 35 -46 14 -106
-25 -71 -26 -115 -2 -136 22 -20 89 -36 78 -19 -4 7 -16 12 -27 12 -21 0 -59
33 -59 53 1 38 16 39 111 7 52 -18 124 -47 160 -66 69 -34 179 -126 179 -150
0 -17 -113 -83 -220 -127 -358 -148 -789 -120 -1120 73 -36 21 -77 47 -90 58
l-23 19 64 45 c119 85 308 188 346 188 22 0 27 -28 10 -54 -9 -13 -32 -34 -51
-46 -44 -27 -48 -48 -5 -23 87 51 99 91 49 170 -32 50 -38 81 -19 100 9 9 19
8 39 -2 15 -8 61 -23 101 -35z m-11871 -18 c0 -4 -31 -36 -69 -69 l-68 -62
-52 53 c-68 69 -67 80 7 72 31 -3 80 -2 107 3 68 12 75 12 75 3z m54 -43 c18
-14 26 -30 26 -51 0 -31 -45 -124 -81 -167 -23 -28 -26 -27 -83 58 l-37 55 63
63 c34 35 68 63 74 63 6 0 23 -9 38 -21z m-255 -45 c34 -31 61 -60 61 -65 0
-5 -21 -38 -47 -75 l-48 -65 -22 28 c-35 43 -83 138 -83 164 0 27 37 69 61 69
10 0 45 -25 78 -56z m8386 -1 c66 3 130 8 143 12 22 7 23 6 17 -31 -4 -22 -16
-58 -26 -81 -24 -50 -110 -133 -139 -133 -40 0 -19 -26 59 -72 79 -48 127 -87
147 -123 17 -28 45 -9 62 41 14 40 12 171 -3 208 -7 16 -5 17 15 11 13 -4 96
-42 184 -85 l161 -78 -75 -35 c-86 -40 -214 -80 -315 -99 -91 -16 -340 -16
-432 1 l-73 13 14 26 c19 37 45 59 139 117 44 28 82 55 84 61 2 6 -10 14 -26
17 -60 12 -153 131 -166 214 l-7 41 59 -15 c43 -11 89 -14 178 -10z m-7942
-110 c26 -15 51 -31 56 -37 10 -13 75 -275 70 -280 -9 -6 -162 -36 -166 -32
-3 2 -12 51 -20 108 -9 57 -20 107 -24 113 -13 13 -11 -15 7 -122 12 -72 13
-98 5 -106 -8 -8 -59 -12 -154 -12 -141 1 -231 13 -355 50 l-54 16 7 82 c3 45
8 94 11 110 3 15 1 27 -4 27 -6 0 -13 -30 -16 -67 -4 -38 -10 -85 -14 -105
l-7 -36 -73 30 -73 31 6 46 c11 83 27 154 39 174 15 25 71 53 123 62 l41 6 31
-58 c18 -32 44 -73 60 -92 l28 -34 49 71 c27 40 52 72 56 72 4 0 28 -29 53
-65 26 -36 50 -65 53 -65 9 0 87 116 103 152 l12 27 51 -20 c28 -12 72 -32 99
-46z m7722 7 c38 -61 96 -121 129 -135 l29 -13 -29 -18 c-113 -70 -162 -106
-174 -128 -7 -15 -17 -26 -21 -26 -29 0 -46 122 -29 205 11 54 53 155 65 155
3 0 16 -18 30 -40z m441 -17 c36 -76 47 -230 19 -283 l-17 -32 -19 30 c-20 34
-75 77 -151 120 -49 28 -60 42 -33 42 22 0 106 86 135 138 13 23 27 42 31 42
4 0 20 -26 35 -57z m-556 -116 c-9 -59 0 -150 20 -187 6 -11 9 -20 6 -20 -2 0
-44 14 -93 31 -122 43 -248 108 -235 121 8 8 303 116 309 113 2 -1 -2 -27 -7
-58z m-3547 -822 c253 -45 489 -168 673 -350 187 -186 310 -415 361 -673 23
-118 23 -366 -1 -477 -91 -422 -339 -736 -727 -921 l-45 -21 0 131 c0 241 -26
280 -234 347 l-85 27 -3 39 -3 38 93 44 c79 36 105 56 173 125 55 56 89 101
109 144 23 48 34 61 45 56 9 -4 34 -9 56 -11 130 -12 186 182 77 268 l-31 24
19 56 c58 171 50 343 -20 423 -35 40 -127 77 -255 103 -79 16 -88 21 -107 51
-27 45 -99 97 -161 119 -120 41 -326 12 -503 -71 -97 -46 -180 -133 -159 -167
4 -5 -4 -5 -19 0 -54 21 -183 -77 -238 -180 -32 -61 -32 -197 0 -284 l22 -59
-24 -26 c-49 -51 -58 -117 -27 -187 26 -56 68 -77 135 -69 l51 6 32 -63 c81
-154 242 -272 426 -312 24 -5 27 -10 27 -44 l0 -39 -92 -36 c-51 -20 -108 -45
-126 -56 -60 -37 -92 -150 -92 -327 l0 -92 -68 29 c-391 166 -665 505 -758
935 -24 111 -24 359 -1 477 103 522 512 928 1030 1023 102 18 343 18 450 0z
m3978 -1 c345 -64 648 -260 834 -539 199 -300 264 -627 194 -977 -60 -300
-236 -579 -481 -761 -121 -90 -112 -91 -130 16 -20 118 -51 200 -96 249 -48
53 -173 113 -309 148 l-43 11 0 50 c0 43 3 52 20 56 110 29 268 153 336 264
34 55 37 57 69 52 19 -3 45 -3 58 1 35 8 86 64 99 108 6 21 13 38 15 38 2 0
21 -13 44 -29 60 -44 129 -55 218 -37 65 14 191 62 191 73 0 3 -12 14 -26 26
-45 35 -54 73 -54 231 0 222 -29 317 -121 400 -109 98 -301 111 -372 26 -16
-18 -31 -28 -41 -24 -8 3 -22 -3 -32 -14 -17 -20 -18 -19 -55 29 -73 91 -179
157 -306 190 -95 24 -287 26 -382 4 -137 -33 -267 -121 -340 -232 -28 -42 -31
-44 -31 -21 0 28 -23 53 -39 43 -6 -3 -26 10 -45 29 -95 94 -317 56 -411 -72
-59 -81 -67 -117 -74 -327 -7 -204 -12 -222 -63 -266 l-31 -26 74 -31 c185
-76 308 -59 395 55 l31 41 1 -44 c2 -56 30 -120 71 -159 24 -22 42 -30 77 -31
42 -2 47 -5 75 -49 71 -112 187 -199 327 -244 l87 -29 3 -40 3 -40 -73 -16
c-138 -31 -230 -92 -278 -186 -24 -47 -66 -202 -75 -275 -3 -27 -8 -64 -11
-82 l-5 -32 -47 21 c-204 89 -421 276 -547 473 -86 134 -158 318 -186 475 -22
119 -17 354 10 480 106 501 517 903 1016 993 111 20 352 21 456 1z m-758 -648
c9 -23 -13 -87 -39 -113 -29 -29 -44 -23 -44 18 0 65 66 140 83 95z m1190 -16
c31 -37 43 -85 26 -106 -10 -13 -14 -12 -31 3 -48 43 -66 133 -27 133 4 0 18
-13 32 -30z m-1233 -178 c-11 -35 -24 -95 -28 -133 -8 -68 -8 -71 15 -80 24
-9 33 -49 11 -49 -7 0 -26 -7 -41 -15 -26 -13 -28 -13 -22 4 17 55 23 135 14
193 -5 35 -13 80 -16 100 l-6 37 35 -6 c22 -3 38 -1 43 7 15 25 13 1 -5 -58z
m1294 49 c4 -5 -1 -40 -10 -78 -11 -46 -14 -93 -11 -145 5 -77 5 -78 -18 -78
-15 0 -26 8 -30 20 -8 24 1 40 22 40 14 0 15 10 9 68 -3 37 -12 90 -20 119
l-14 52 27 4 c14 2 29 5 33 6 4 0 9 -3 12 -8z m-4973 -227 c23 -14 67 -35 98
-46 154 -53 466 -64 649 -23 20 5 22 2 22 -40 0 -62 23 -104 60 -112 29 -5 30
-7 30 -62 0 -243 -195 -475 -456 -541 -339 -87 -689 138 -745 478 l-12 71 100
98 c117 114 147 165 141 233 l-5 47 38 -38 c21 -21 57 -50 80 -65z m4889 -101
c-1 -353 -264 -632 -595 -633 -152 0 -282 56 -400 175 -125 124 -185 266 -185
438 0 70 2 78 18 73 149 -43 753 -39 1056 9 45 7 87 13 94 14 9 1 12 -20 12
-76z m106 -59 c28 -59 34 -83 30 -109 -9 -47 -46 -97 -88 -120 -30 -16 -40
-17 -62 -7 l-25 11 19 56 c10 30 24 92 30 137 15 106 15 108 40 108 15 0 28
-18 56 -76z m-1302 -15 c5 -61 31 -155 60 -221 7 -15 3 -18 -27 -18 -42 0 -81
29 -106 78 -40 80 -39 150 5 202 44 51 60 41 68 -41z m-2724 -44 c39 -20 60
-63 60 -123 0 -78 -64 -138 -132 -125 -43 8 -48 22 -32 83 8 30 14 77 14 105
0 52 1 54 58 74 2 1 16 -6 32 -14z m-1389 -40 c17 -19 37 -35 44 -35 11 0 23
-59 28 -139 4 -59 -104 -43 -143 21 -34 57 -22 148 24 180 15 11 13 12 47 -27z
m4844 -584 c-8 -7 -171 -8 -178 -1 -2 3 -7 24 -11 48 l-6 42 57 1 c32 0 76 3
98 7 l40 7 3 -48 c2 -27 0 -52 -3 -56z m-4001 -36 c8 -42 4 -50 -36 -71 -35
-18 -129 -15 -180 5 -24 9 -28 16 -28 51 l0 40 43 -6 c23 -3 69 -1 102 4 95
15 92 15 99 -23z m4030 -8 c20 -55 -38 -131 -82 -108 -22 12 -27 23 -37 82
l-7 35 49 11 c61 13 66 12 77 -20z m146 -8 c118 -46 177 -84 211 -137 38 -61
66 -152 75 -245 l6 -73 -98 -46 c-166 -77 -290 -107 -479 -115 -183 -8 -344
16 -467 69 l-50 21 7 61 c28 256 96 391 229 456 33 16 75 33 92 36 31 6 32 5
39 -37 9 -54 29 -95 50 -103 37 -14 75 -6 91 19 l16 25 20 -25 c54 -69 155 12
128 103 l-9 33 32 -6 c18 -4 66 -20 107 -36z m-306 25 c26 -10 21 -77 -8 -111
-21 -25 -26 -26 -50 -15 -29 13 -56 65 -56 107 0 23 3 25 49 25 27 0 56 -3 65
-6z m-3778 -85 c101 -31 181 -74 198 -107 30 -59 47 -253 30 -341 -6 -28 -13
-33 -72 -51 -36 -11 -67 -18 -70 -15 -6 6 -20 185 -21 263 -1 23 -6 42 -12 42
-8 0 -9 -25 -5 -80 3 -44 9 -115 12 -159 l6 -78 -69 -14 c-43 -9 -131 -14
-243 -13 -169 1 -257 11 -254 30 8 46 12 304 5 289 -4 -11 -11 -81 -15 -155
-4 -74 -9 -136 -11 -138 -1 -1 -30 5 -64 14 l-61 17 0 111 c0 117 19 233 44
272 16 23 82 57 186 95 60 22 61 22 135 4 82 -19 134 -15 181 15 16 10 30 19
30 19 1 1 33 -9 70 -20z"/>
<path d="M7249 9380 c-256 -65 -448 -324 -465 -625 -14 -246 49 -427 206 -586
177 -179 402 -218 623 -108 94 48 211 171 264 279 66 134 78 191 77 365 0 129
-3 160 -24 220 -69 210 -199 362 -370 431 -53 22 -84 27 -170 30 -58 2 -121
-1 -141 -6z m283 -34 c75 -27 178 -95 228 -153 71 -81 132 -194 156 -289 l7
-27 -56 6 c-30 4 -79 19 -108 34 -69 36 -151 38 -224 4 -42 -19 -69 -23 -170
-25 -111 -2 -124 0 -170 23 -76 39 -162 36 -237 -6 -39 -23 -71 -33 -99 -33
-40 0 -41 1 -34 28 29 118 126 271 216 342 111 87 197 118 329 119 75 0 109
-4 162 -23z m-381 -427 c67 -23 52 -29 -70 -29 -122 0 -147 9 -78 29 45 13
108 13 148 0z m584 -8 l40 -19 -122 -1 c-68 -1 -123 1 -123 4 0 3 15 12 33 20
45 20 125 18 172 -4z m-477 -67 c76 -92 68 -218 -19 -306 -105 -105 -264 -87
-354 41 -27 39 -30 50 -30 121 0 71 3 82 30 122 l31 43 109 6 c222 11 200 13
233 -27z m189 4 c-28 -38 -47 -89 -47 -127 0 -23 -4 -26 -34 -26 -32 0 -35 2
-41 40 -3 22 -19 64 -36 93 l-29 52 105 0 106 0 -24 -32z m354 16 c9 -2 28
-27 44 -55 82 -152 -27 -338 -201 -339 -107 0 -201 77 -225 184 -15 67 6 148
51 196 l30 32 142 -7 c79 -4 150 -9 159 -11z m-911 -1 c0 -5 -9 -19 -20 -33
-11 -14 -25 -51 -32 -83 -21 -98 -47 -51 -33 60 5 43 10 53 28 56 38 7 57 7
57 0z m1036 -6 c3 -3 8 -40 11 -82 5 -60 3 -79 -8 -86 -28 -18 -39 -10 -39 30
0 22 -12 62 -29 96 l-29 57 44 -5 c25 -2 47 -7 50 -10z m-1083 -226 c9 -44 53
-106 96 -134 146 -97 336 -24 382 146 9 35 13 38 42 35 28 -3 33 -8 46 -53 13
-40 34 -69 114 -150 53 -55 105 -117 115 -137 19 -41 38 -52 26 -15 -8 28 -39
73 -76 113 l-29 31 48 -10 c103 -21 219 43 263 145 23 54 35 68 59 68 21 0 7
-124 -25 -219 -144 -431 -603 -571 -900 -273 -119 118 -204 312 -204 463 0 36
2 39 19 30 10 -6 21 -24 24 -40z"/>
<path d="M7074 8695 c-15 -23 -15 -27 0 -50 27 -41 66 -26 66 25 0 51 -39 66
-66 25z"/>
<path d="M7582 8718 c-19 -19 -15 -66 7 -78 27 -14 28 -13 46 14 30 45 -16
101 -53 64z"/>
<path d="M7180 8431 c-70 -72 -121 -161 -92 -161 4 0 14 16 21 36 7 20 42 67
78 105 82 86 76 104 -7 20z"/>
<path d="M7474 8356 c-46 -53 -147 -58 -204 -9 -32 27 -53 25 -30 -2 56 -67
221 -58 260 14 15 28 0 26 -26 -3z"/>
<path d="M3032 8538 c-28 -28 -3 -84 34 -76 28 5 40 33 26 62 -12 28 -40 34
-60 14z"/>
<path d="M3610 8546 c-28 -35 11 -93 48 -70 35 22 22 84 -18 84 -10 0 -23 -7
-30 -14z"/>
<path d="M11701 8346 c-31 -37 9 -103 47 -80 36 23 23 94 -18 94 -10 0 -23 -6
-29 -14z"/>
<path d="M11235 8336 c-22 -33 -5 -76 30 -76 34 0 53 39 37 75 -15 32 -47 32
-67 1z"/>
<path d="M11410 7886 l-95 -33 -3 -45 c-4 -55 28 -100 86 -120 47 -16 205 -16
254 1 54 18 88 63 88 116 0 23 -6 47 -12 53 -11 8 -72 25 -203 56 -11 3 -63
-10 -115 -28z m222 -17 c96 -23 108 -37 87 -98 -16 -45 -74 -72 -168 -78 -134
-9 -221 33 -221 107 l0 38 88 31 c48 16 96 28 107 25 11 -2 59 -14 107 -25z"/>
<path d="M11410 7794 c19 -9 60 -19 91 -21 59 -6 159 12 159 28 0 5 -12 6 -27
2 -36 -10 -166 -10 -218 0 l-40 7 35 -16z"/>
<path d="M7356 6305 c-195 -69 -340 -245 -407 -496 -32 -120 -32 -319 -1 -439
65 -246 229 -441 419 -500 87 -27 209 -27 295 0 187 57 341 234 414 475 25 81
28 105 28 245 0 140 -3 164 -28 245 -73 241 -227 418 -414 475 -93 29 -216 27
-306 -5z m257 0 c180 -38 345 -194 423 -401 33 -88 54 -198 54 -283 l0 -68
-54 -36 -55 -36 -11 33 c-40 123 -269 156 -368 53 -17 -17 -35 -44 -41 -59 -8
-21 -16 -27 -40 -26 -25 1 -32 7 -41 33 -28 84 -147 137 -256 115 -64 -14
-111 -44 -143 -92 l-24 -37 -60 41 -60 41 6 79 c3 44 7 81 9 83 1 1 62 -4 133
-12 194 -22 654 -22 815 0 144 21 172 26 165 36 -2 4 -37 2 -77 -5 -212 -37
-635 -43 -915 -13 -130 14 -126 10 -92 111 91 271 299 451 529 457 19 0 65 -6
103 -14z m-223 -716 c75 -42 101 -120 61 -185 -12 -19 -41 -42 -75 -59 -47
-23 -66 -27 -114 -23 -106 7 -182 69 -182 147 0 65 45 115 130 142 43 14 135
3 180 -22z m479 1 c145 -73 111 -238 -54 -269 -91 -17 -179 14 -222 79 -45 65
-17 143 66 187 58 30 154 32 210 3z m-809 -132 c0 -44 46 -101 105 -131 115
-58 285 -2 316 104 10 31 17 39 35 39 18 0 29 -12 49 -55 20 -42 37 -61 71
-81 55 -32 144 -42 210 -24 58 16 121 75 130 119 5 24 19 41 57 66 28 19 53
32 55 30 10 -10 -22 -165 -50 -241 -101 -280 -350 -455 -590 -415 -184 30
-334 156 -431 360 -38 81 -77 231 -77 299 l0 33 60 -42 c38 -26 60 -49 60 -61z"/>
<path d="M7254 5485 c-30 -46 12 -107 51 -75 20 16 19 65 -1 84 -21 22 -31 20
-50 -9z"/>
<path d="M7754 5494 c-32 -49 19 -115 53 -68 18 24 16 59 -3 78 -21 22 -31 20
-50 -10z"/>
<path d="M7410 5138 c0 -18 66 -48 108 -48 47 0 96 21 105 45 8 20 4 19 -39
-10 -46 -31 -68 -31 -127 -1 -26 13 -47 19 -47 14z"/>
<path d="M7056 4689 c116 -123 353 -249 465 -249 56 0 166 37 244 82 104 61
199 138 171 138 -3 0 -34 -22 -70 -49 -81 -61 -174 -113 -244 -136 -140 -45
-294 11 -509 187 -78 63 -104 76 -57 27z"/>
<path d="M11361 5472 c-32 -25 -33 -85 -3 -115 18 -17 26 -19 40 -11 46 29 50
102 5 131 -17 12 -23 11 -42 -5z"/>
<path d="M11916 5458 c-30 -43 -9 -118 34 -118 24 0 50 37 50 70 0 33 -26 70
-50 70 -10 0 -26 -10 -34 -22z"/>
<path d="M15291 5396 c-18 -22 -16 -85 3 -104 36 -36 80 32 55 84 -16 33 -40
41 -58 20z"/>
<path d="M15740 5384 c-34 -40 -2 -133 37 -108 27 17 36 59 21 91 -16 33 -40
40 -58 17z"/>
<path d="M15403 4987 c7 -21 90 -46 157 -46 66 -1 150 27 150 49 0 6 -19 1
-42 -12 -58 -29 -155 -29 -222 0 -30 14 -46 17 -43 9z"/>
<path d="M3594 5422 c-18 -12 -26 -50 -14 -72 21 -39 70 -18 70 30 0 40 -28
61 -56 42z"/>
<path d="M3152 5408 c-7 -7 -12 -24 -12 -38 0 -51 52 -69 72 -25 22 49 -25 98
-60 63z"/>
<path d="M3303 5168 c-61 -10 -90 -25 -139 -70 -100 -92 -100 -174 0 -172 51
1 87 19 165 85 l61 51 36 -28 c19 -16 53 -44 75 -61 84 -68 189 -65 189 7 0
60 -88 153 -171 179 -42 14 -163 19 -216 9z"/>
<path d="M3425 4960 c-11 -5 -40 -7 -65 -4 -33 4 -41 3 -30 -5 28 -20 130 -12
130 10 0 11 -8 10 -35 -1z"/>
<path d="M11802 4893 c-34 -23 -165 -29 -220 -10 -29 10 -42 11 -39 4 6 -20
98 -38 163 -34 60 4 134 31 134 48 0 13 -12 10 -38 -8z"/>
<path d="M7282 2257 c-32 -38 -19 -127 19 -127 39 0 55 93 21 123 -22 20 -26
21 -40 4z"/>
<path d="M7856 2248 c-30 -43 -12 -122 27 -116 31 4 47 69 27 106 -20 34 -35
37 -54 10z"/>
<path d="M7430 1945 c0 -16 110 -55 154 -55 49 0 136 32 136 51 0 13 -4 12
-46 -13 -50 -29 -124 -29 -181 0 -42 22 -63 27 -63 17z"/>
<path d="M11292 2368 c-25 -25 -12 -98 18 -98 20 0 30 19 30 55 0 50 -22 69
-48 43z"/>
<path d="M11895 2369 c-12 -18 -9 -77 4 -93 18 -22 40 -9 47 29 9 52 -29 100
-51 64z"/>
<path d="M11515 2084 c50 -38 169 -43 220 -10 35 23 25 32 -14 12 -38 -20
-116 -20 -171 -1 -53 19 -60 19 -35 -1z"/>
<path d="M15305 9834 c-376 -67 -713 -291 -917 -609 -179 -277 -251 -614 -202
-944 17 -116 75 -303 124 -402 198 -395 567 -669 1003 -745 121 -22 334 -21
457 0 790 139 1295 921 1094 1694 -136 522 -564 913 -1103 1007 -106 19 -349
18 -456 -1z m442 -89 c455 -74 839 -395 997 -833 94 -262 94 -591 0 -854 -57
-159 -159 -326 -280 -457 l-50 -54 -29 49 c-15 27 -52 84 -81 126 -30 43 -54
80 -54 83 0 3 7 5 15 5 44 0 197 69 272 123 49 34 58 61 18 51 -14 -3 -37 -3
-52 1 l-27 6 31 25 c62 48 131 191 148 308 l7 44 -59 -29 c-32 -15 -74 -31
-93 -35 l-34 -6 37 34 c39 37 87 128 87 166 0 23 -14 30 -25 12 -3 -5 -10 -10
-15 -10 -4 0 1 27 11 61 20 64 25 129 10 129 -5 0 -11 -6 -14 -14 -3 -8 -16
-20 -29 -27 -21 -11 -20 -10 5 20 27 32 44 77 34 87 -3 3 -24 -12 -46 -34 -22
-22 -54 -45 -71 -52 -43 -18 -58 -1 -121 138 -99 222 -148 309 -197 353 -123
108 -337 224 -483 261 -99 24 -260 22 -319 -5 -19 -8 -64 -23 -100 -31 -104
-26 -203 -81 -292 -165 -95 -89 -139 -146 -241 -307 -43 -67 -84 -125 -93
-128 -31 -12 -53 -5 -77 24 -14 17 -28 30 -31 30 -15 0 -3 -72 19 -115 13 -27
23 -51 21 -53 -2 -2 -17 13 -33 32 -15 20 -31 36 -35 36 -13 0 -9 -43 7 -74
15 -28 15 -28 -10 -22 -29 7 -32 -5 -15 -64 l9 -35 -30 35 -31 35 4 -67 c3
-50 10 -76 26 -97 12 -17 22 -33 22 -36 0 -15 -72 -3 -90 15 -54 54 -54 -16 0
-127 54 -110 122 -163 211 -163 18 0 20 -3 11 -12 -20 -20 -143 -16 -176 5
-62 41 -30 -18 40 -74 20 -16 55 -34 78 -40 23 -6 47 -13 55 -15 11 -4 8 -9
-10 -22 -16 -12 -42 -17 -81 -16 -41 1 -58 -3 -58 -12 0 -28 224 -154 275
-154 23 0 19 -6 -37 -70 -29 -33 -58 -73 -64 -90 l-10 -31 -60 75 c-307 388
-369 906 -159 1344 71 148 141 247 250 357 186 187 434 317 689 359 110 19
311 19 423 1z m-147 -329 c140 -26 286 -93 447 -207 111 -78 140 -116 214
-276 30 -65 72 -154 94 -198 39 -77 41 -80 78 -83 29 -3 47 3 75 24 36 26 36
26 -8 -19 l-44 -47 31 0 c16 0 42 9 57 21 23 18 26 19 26 3 0 -40 -37 -130
-66 -161 -45 -47 -109 -45 -167 5 -17 15 -16 17 14 48 25 26 32 42 33 75 1 23
-4 44 -10 46 -6 2 -8 -10 -6 -32 4 -30 -1 -41 -36 -75 -24 -24 -49 -40 -63
-40 -38 0 -85 35 -114 84 l-26 45 35 31 c39 35 56 80 56 152 0 74 -17 65 -22
-12 -6 -106 -52 -153 -164 -165 l-49 -6 37 20 c20 11 46 36 57 55 25 40 41
136 22 136 -6 0 -11 -13 -11 -30 0 -45 -29 -108 -59 -130 -46 -32 -114 -44
-179 -31 -91 18 -135 56 -168 146 -7 19 -8 19 -12 -3 -2 -13 6 -38 17 -57 11
-19 17 -35 13 -35 -4 0 -53 22 -109 49 -160 77 -231 156 -268 298 -29 110 -13
333 25 353 20 10 107 27 150 28 14 1 59 -5 100 -12z m-294 -62 c-4 -15 -11
-79 -15 -143 -14 -191 -76 -319 -220 -452 l-76 -70 -3 30 c-5 44 -18 38 -26
-10 -13 -83 -115 -144 -197 -120 -46 14 -57 28 -74 88 l-13 48 -1 -40 c-1 -24
7 -53 19 -72 l20 -33 -33 0 c-54 0 -121 28 -157 65 l-34 35 39 -20 c62 -32 87
-23 44 16 -22 20 -42 54 -54 93 -7 23 -7 23 16 7 58 -40 95 -13 190 140 159
256 294 382 472 440 98 31 111 31 103 -2z m64 -458 c16 -24 46 -58 66 -76 36
-31 169 -101 284 -148 l55 -23 -51 -18 c-28 -9 -63 -25 -78 -34 -39 -26 -83
-91 -96 -145 l-12 -47 -48 0 c-47 0 -47 0 -59 43 -33 123 -142 200 -270 190
-118 -9 -203 -82 -235 -204 l-11 -41 -107 30 -108 30 0 52 0 52 38 7 c20 3 54
6 75 6 52 0 103 24 151 70 23 21 70 63 106 93 82 67 161 176 197 272 l28 73
23 -70 c12 -38 35 -89 52 -112z m-83 -298 c48 -22 99 -75 119 -124 8 -19 14
-62 14 -97 0 -83 -42 -157 -114 -202 -44 -27 -58 -30 -126 -30 -68 0 -82 3
-126 30 -184 114 -133 405 78 444 55 10 102 4 155 -21z m585 20 c51 -15 126
-82 149 -133 23 -50 25 -142 3 -193 -37 -89 -124 -146 -224 -146 -139 0 -240
102 -240 241 1 75 25 128 83 179 69 61 144 78 229 52z m268 -44 c25 -44 40
-60 76 -75 24 -11 53 -17 63 -14 11 3 22 2 25 -3 3 -5 -45 -24 -107 -42 -62
-18 -116 -34 -122 -36 -5 -2 -18 23 -28 56 -12 43 -29 73 -60 105 l-44 45 46
1 c25 1 60 5 76 9 17 4 33 8 37 9 3 0 20 -24 38 -55z m-1588 26 c18 -11 51
-25 73 -31 l40 -11 -24 -19 c-25 -21 -84 -25 -124 -10 -21 8 -47 54 -47 82 0
16 49 9 82 -11z m3 -98 c43 -3 62 0 90 16 l35 21 1 -32 c1 -42 7 -86 18 -139
11 -49 -2 -71 -56 -94 -64 -27 -198 -11 -242 29 -25 23 -51 75 -51 102 0 14 3
14 25 -1 18 -12 38 -15 66 -11 60 8 67 20 30 54 -19 17 -34 44 -40 70 l-9 42
40 -26 c26 -18 57 -28 93 -31z m2004 -71 c-28 -65 -93 -124 -156 -141 -27 -7
-52 -17 -58 -23 -24 -23 199 20 258 50 16 8 31 13 33 11 2 -2 -4 -31 -12 -63
-25 -96 -72 -181 -128 -231 -54 -49 -53 -58 12 -70 l34 -7 -29 -19 c-50 -34
-157 -85 -213 -102 -77 -23 -232 -37 -315 -28 l-70 7 65 46 c115 83 202 187
265 322 35 72 75 209 75 254 l0 25 34 -21 c19 -12 50 -21 72 -21 39 0 104 31
104 49 0 8 39 20 48 15 2 -1 -7 -25 -19 -53z m-259 -3 c0 -45 -31 -151 -64
-223 -49 -106 -104 -182 -195 -267 -63 -60 -103 -87 -183 -126 -136 -67 -214
-85 -358 -84 -142 1 -236 23 -358 87 -155 80 -272 199 -351 356 -45 89 -92
241 -79 254 3 3 51 -6 107 -21 80 -22 101 -31 101 -45 0 -10 9 -43 21 -73 34
-92 141 -166 239 -166 121 0 237 99 256 219 7 44 26 56 74 49 18 -2 26 -14 37
-58 17 -71 57 -127 113 -162 155 -96 349 -16 393 162 l14 54 104 32 c127 39
129 39 129 12z m-1474 -355 c30 -46 90 -114 135 -156 l80 -75 -53 -19 c-38
-13 -81 -18 -153 -18 -87 0 -109 4 -170 29 -38 16 -96 46 -129 66 l-58 37 43
7 c45 7 119 48 119 66 0 6 -13 10 -28 10 -40 0 -112 27 -146 54 l-29 24 61 0
c58 0 156 24 167 41 2 5 -23 11 -56 14 -70 6 -155 45 -183 84 l-19 26 34 -7
c89 -18 159 -19 203 -2 24 9 50 24 57 32 10 12 17 2 41 -58 16 -40 54 -110 84
-155z m312 -277 c126 -64 201 -81 352 -81 74 0 155 3 180 7 l45 7 -55 -20
c-151 -55 -330 -75 -480 -55 -44 7 -53 6 -43 -5 8 -8 56 -14 145 -17 106 -3
152 0 229 16 99 20 253 76 326 118 39 22 52 24 192 24 l151 0 -81 -132 c-121
-199 -201 -271 -371 -335 -123 -47 -249 -66 -383 -60 -160 7 -265 52 -265 112
0 18 -14 35 -53 64 -85 62 -103 120 -72 238 8 31 15 72 15 89 0 29 4 34 43 47
56 20 49 21 125 -17z m1144 -73 c31 -43 69 -101 84 -130 l29 -51 -25 -27 c-38
-41 -206 -150 -291 -189 -98 -45 -221 -83 -333 -102 -137 -24 -376 -15 -516
20 -117 30 -284 105 -399 181 -85 56 -190 150 -201 180 -11 28 8 60 72 123
l54 52 97 4 97 3 0 -37 c0 -20 -7 -59 -15 -86 -8 -27 -15 -63 -15 -80 0 -48
45 -125 96 -162 30 -22 47 -43 51 -63 8 -39 42 -65 120 -89 225 -70 560 -3
749 149 57 45 123 135 236 320 20 34 41 61 46 61 5 0 34 -35 64 -77z"/>
<path d="M15270 8430 c-24 -24 -26 -53 -4 -74 32 -32 86 26 65 70 -13 29 -34
31 -61 4z"/>
<path d="M15698 8449 c-35 -20 -9 -99 33 -99 23 0 40 36 29 64 -10 30 -42 47
-62 35z"/>
<path d="M15303 8117 c-45 -47 -83 -107 -83 -131 0 -15 7 -9 26 24 14 25 42
64 61 88 42 52 39 65 -4 19z"/>
<path d="M15660 8144 c0 -3 25 -33 55 -67 31 -34 58 -71 61 -84 4 -13 10 -23
15 -23 22 0 -3 50 -61 118 -45 55 -70 75 -70 56z"/>
<path d="M15595 8029 c-37 -23 -108 -25 -160 -3 -46 19 -58 11 -15 -11 53 -28
120 -30 173 -7 26 12 47 26 47 31 0 15 -10 13 -45 -10z"/>
<path d="M15956 7654 c-69 -47 -259 -132 -362 -163 -56 -16 -150 -37 -210 -47
-119 -19 -169 -41 -69 -29 99 11 242 45 348 82 155 53 355 159 336 177 -3 3
-22 -6 -43 -20z"/>
</g>
</svg>
