<svg xmlns="http://www.w3.org/2000/svg" width="26.911" height="18.501" viewBox="0 0 26.911 18.501">
  <path id="youtube-icon-4caf5c26687add5d1040aae161aa4b1a20aec98f3f4e4ee888169780940f0d1a" d="M22.632,2.821c1.613.091,2.405.33,3.135,1.628.76,1.3,1.144,3.53,1.144,7.464v.013c0,3.915-.383,6.166-1.142,7.449-.73,1.3-1.522,1.534-3.135,1.643-1.613.093-5.665.148-9.175.148s-7.57-.056-9.182-.15c-1.61-.109-2.4-.345-3.138-1.643C.387,18.092,0,15.841,0,11.926v-.013C0,7.98.387,5.746,1.139,4.45c.737-1.3,1.531-1.537,3.14-1.63,1.61-.108,5.663-.153,9.18-.153S21.021,2.712,22.632,2.821Zm-4.131,9.1-8.41-5.046V16.963Z" transform="translate(0 -2.667)" fill="#fff" fill-rule="evenodd"/>
</svg>
